<?xml version="1.0" standalone="no"?>
<!DOCTYPE svg PUBLIC "-//W3C//DTD SVG 1.1//EN" "http://www.w3.org/Graphics/SVG/1.1/DTD/svg11.dtd" >
<svg xmlns="http://www.w3.org/2000/svg" xmlns:xlink="http://www.w3.org/1999/xlink" version="1.1">
<metadata>
Created by FontForge 20170731 at Mon Jun  7 20:28:01 2021
 By Aleksey,,,
Copyright (c) 2011 by typedepot. All rights reserved.
</metadata>
<defs>
<font id="CentraleSans-XLight" horiz-adv-x="1402" >
  <font-face 
    font-family="Centrale Sans XLight"
    font-weight="200"
    font-stretch="normal"
    units-per-em="2048"
    panose-1="2 0 0 0 0 0 0 0 0 0"
    ascent="1536"
    descent="-512"
    x-height="1065"
    cap-height="1434"
    bbox="-94 -406 2378 1843"
    underline-thickness="102"
    underline-position="-307"
    unicode-range="U+0020-FB04"
  />
<missing-glyph horiz-adv-x="1415" 
d="M1014 -174l-387 711l-389 -711h776zM152 1499h960v-1743h-960v1743zM233 1427l392 -722l387 722h-779zM1044 1327l-380 -709l380 -690v1399zM219 1309v-1364l367 673z" />
    <glyph glyph-name="f_f" unicode="ff" horiz-adv-x="1200" 
d="M850 0h-100v979h-435v-979h-100v979h-137v70l137 16v133q0 156 63.5 237t213.5 81q70 0 135 -19l-13 -86q-56 12 -112 12q-102 0 -144.5 -57.5t-42.5 -161.5v-139h435v158q0 156 63 234.5t215 78.5q72 0 133 -18l-12 -86q-55 12 -117 12q-101 0 -141.5 -59t-40.5 -164
v-156h295v-86h-295v-979z" />
    <glyph glyph-name="f_i" unicode="fi" horiz-adv-x="1087" 
d="M870 1442l-45 -76q-127 76 -282 76q-50 0 -90 -17.5t-65.5 -45.5t-42 -65.5t-23.5 -75t-7 -77.5v-96h592v-1065h-98v979h-494v-979h-100v979h-137v70l137 16v117q0 154 88.5 254t235.5 100q179 0 331 -94z" />
    <glyph glyph-name="f_l" unicode="fl" horiz-adv-x="1120" 
d="M922 0q-35 0 -60 14t-36.5 37t-16 42.5t-4.5 39.5v1032q0 131 -68 205t-180 74t-177 -73.5t-65 -205.5v-100h269v-86h-269v-979h-100v979h-137v70l137 16v92q0 172 95.5 275.5t244.5 103.5q150 0 249 -100.5t99 -276.5v-1009q0 -58 60 -58q35 0 71 6v-82
q-48 -16 -112 -16z" />
    <glyph glyph-name="f_f_i" unicode="ffi" horiz-adv-x="1624" 
d="M1407 1442l-45 -76q-127 76 -283 76q-50 0 -90 -17.5t-65 -45.5t-42 -65.5t-23.5 -75t-6.5 -77.5v-96h592v-1065h-98v979h-494v-979h-100v979h-437v-979h-100v979h-137v70l137 16v133q0 156 64 237t215 81q68 0 135 -19l-11 -86q-66 12 -114 12q-104 0 -146.5 -57.5
t-42.5 -161.5v-139h437v117q0 154 88 254t235 100q180 0 332 -94z" />
    <glyph glyph-name="f_f_l" unicode="ffl" horiz-adv-x="1662" 
d="M629 1497l-11 -86q-55 12 -116 12q-103 0 -144 -58.5t-41 -164.5v-135h435v92q0 173 95.5 276t246.5 103q147 0 246.5 -101t99.5 -276v-1012q0 -57 61 -57q15 0 40.5 3t29.5 3v-80q-49 -16 -111 -16q-35 0 -60.5 14t-37 36t-16.5 42.5t-5 40.5v1032q0 131 -67.5 205
t-179.5 74q-109 0 -175.5 -76.5t-66.5 -202.5v-100h268v-86h-268v-979h-100v979h-435v-979h-100v979h-137v70l137 16v137q0 155 64 234.5t215 79.5q71 0 133 -19z" />
    <glyph glyph-name=".notdef" horiz-adv-x="1415" 
d="M1014 -174l-387 711l-389 -711h776zM152 1499h960v-1743h-960v1743zM233 1427l392 -722l387 722h-779zM1044 1327l-380 -709l380 -690v1399zM219 1309v-1364l367 673z" />
    <glyph glyph-name=".null" horiz-adv-x="0" 
 />
    <glyph glyph-name="nonmarkingreturn" horiz-adv-x="682" 
 />
    <glyph glyph-name="space" unicode=" " horiz-adv-x="542" 
 />
    <glyph glyph-name="exclam" unicode="!" horiz-adv-x="501" 
d="M188 1434h129l-20 -1053h-86zM254 139q34 0 57 -22.5t23 -57.5q0 -32 -22.5 -53.5t-57.5 -21.5t-57.5 20.5t-22.5 54.5q0 35 22.5 57.5t57.5 22.5z" />
    <glyph glyph-name="quotedbl" unicode="&#x22;" horiz-adv-x="714" 
d="M176 1434h121l-90 -492q-9 0 -27.5 1t-27.5 1zM477 1434h121l-90 -492q-9 0 -27.5 1t-27.5 1z" />
    <glyph glyph-name="numbersign" unicode="#" horiz-adv-x="1591" 
d="M608 1434h88l-67 -369h465l69 369h90l-69 -369h289l-19 -88h-285l-96 -543h293l-16 -88h-293l-68 -346h-86l66 346h-467l-68 -346h-90l68 346h-295l18 88h291l98 543h-293l17 88h291zM612 977l-96 -543h467l96 543h-467z" />
    <glyph glyph-name="dollar" unicode="$" horiz-adv-x="1171" 
d="M629 -172h-74v156q-97 4 -196.5 28t-150 44.5t-85.5 39.5l39 88q225 -104 436 -104q174 0 269.5 72.5t95.5 205.5q0 66 -28.5 116.5t-76 83t-109.5 57.5t-130.5 46t-137 43t-130.5 53.5t-109.5 72.5t-76 105t-28.5 146q0 164 110 262t308 107v166h74v-166
q108 -4 207 -31.5t165 -58.5l-36 -86q-20 9 -55 22.5t-132.5 35.5t-183.5 22q-159 0 -258.5 -68.5t-99.5 -200.5q0 -66 28.5 -117t76 -84t109.5 -59t131 -47t137.5 -43.5t130.5 -54t109.5 -72t76 -103t28.5 -143.5q0 -173 -116 -271.5t-318 -106.5v-156z" />
    <glyph glyph-name="percent" unicode="%" horiz-adv-x="1652" 
d="M1219 -16q-141 0 -229.5 98t-88.5 246q0 151 89.5 250.5t230.5 99.5t229 -99t88 -249t-88 -248t-231 -98zM1223 59q104 0 165.5 75.5t61.5 193.5q0 119 -64 196.5t-167 77.5q-105 0 -167.5 -75.5t-62.5 -194.5t65 -196t169 -77zM360 0l826 1434h98l-825 -1434h-99z
M432 756q-141 0 -229 98t-88 246q0 151 89 250.5t230 99.5t229.5 -99t88.5 -249t-88.5 -248t-231.5 -98zM436 831q104 0 166 75.5t62 193.5t-64.5 196t-167.5 78q-105 0 -167 -75.5t-62 -194.5t64.5 -196t168.5 -77z" />
    <glyph glyph-name="ampersand" unicode="&#x26;" horiz-adv-x="1294" 
d="M563 1434q123 0 218.5 -80.5t95.5 -210.5q0 -187 -308 -350l418 -467q7 12 18 34t29.5 88t20.5 130h84q-1 -82 -23 -163t-44 -121l-21 -40l217 -254h-113l-164 190q-175 -190 -430 -190q-79 0 -158.5 28t-145 77t-107 126t-41.5 166q0 72 24 133t71.5 112t99.5 89.5
t128 83.5q-13 17 -49.5 59t-52 63t-38 57t-31.5 70.5t-9 72.5q0 131 94 214t217 83zM487 752q-139 -77 -211.5 -158.5t-72.5 -194.5q0 -89 55.5 -160t136.5 -107t166 -36q215 0 365 162zM563 1343q-92 0 -155.5 -58.5t-63.5 -149.5q0 -31 11 -63t22 -53t41 -57.5t42.5 -49.5
t53.5 -56q56 29 97 55t84 62t66 78.5t23 89.5q0 93 -65 147.5t-156 54.5z" />
    <glyph glyph-name="quotesingle" unicode="'" horiz-adv-x="415" 
d="M182 1434h119l-96 -492q-9 0 -27.5 1t-27.5 1z" />
    <glyph glyph-name="parenleft" unicode="(" horiz-adv-x="671" 
d="M559 1423l49 -59q-43 -37 -74 -66.5t-74.5 -77.5t-74.5 -92.5t-65 -107.5t-55 -127.5t-34.5 -147.5t-13.5 -172t13.5 -172t34 -146.5t55.5 -126.5t65 -106.5t75.5 -92t75 -76t74.5 -66.5l-51 -68q-63 46 -122.5 103.5t-120 139.5t-105 172t-72.5 205.5t-28 235.5
q0 118 28 231.5t72.5 203t105 171t120 139t122.5 103.5z" />
    <glyph glyph-name="parenright" unicode=")" horiz-adv-x="673" 
d="M111 1423q63 -46 122.5 -103.5t120.5 -139t105.5 -171t73 -203t28.5 -231.5q0 -120 -28.5 -235.5t-73 -205.5t-105.5 -172t-120.5 -139.5t-122.5 -103.5l-52 68q44 38 74.5 66.5t75.5 76.5t76 91.5t65.5 106.5t55.5 127t35 146.5t14 171.5t-13.5 172t-34.5 147.5
t-55 127.5t-65 107.5t-75 92.5t-75 77t-74 67z" />
    <glyph glyph-name="asterisk" unicode="*" horiz-adv-x="880" 
d="M403 915l17 277l-232 -154l-38 66l249 125l-249 123l38 65l232 -153l-17 276h76l-18 -276l231 153l39 -65l-250 -123l250 -125l-39 -66l-231 154l18 -277h-76z" />
    <glyph glyph-name="plus" unicode="+" horiz-adv-x="1044" 
d="M481 1042h80v-350h352v-80h-352v-352h-80v352h-350v80h350v350z" />
    <glyph glyph-name="comma" unicode="," horiz-adv-x="501" 
d="M240 156q55 0 87.5 -47.5t32.5 -104.5q0 -81 -55 -144.5t-135 -101.5l-27 43q53 32 98.5 94.5t26.5 122.5q-14 -24 -47 -24q-37 0 -54 23t-17 53q0 36 28.5 61t61.5 25z" />
    <glyph glyph-name="hyphen" unicode="-" horiz-adv-x="1038" 
d="M158 692h725v-78h-725v78z" />
    <glyph glyph-name="period" unicode="." horiz-adv-x="475" 
d="M238 168q37 0 62.5 -25.5t25.5 -62.5q0 -35 -25.5 -60.5t-62.5 -25.5t-62.5 25.5t-25.5 60.5q0 37 25.5 62.5t62.5 25.5z" />
    <glyph glyph-name="slash" unicode="/" horiz-adv-x="997" 
d="M813 1499h92l-721 -1567h-92z" />
    <glyph glyph-name="zero" unicode="0" horiz-adv-x="1419" 
d="M709 -16q-130 0 -238.5 59t-180.5 160t-111.5 233.5t-39.5 280.5t39.5 280.5t111 233.5t181 160t240.5 59q104 0 195.5 -38.5t159.5 -106.5t117 -160t74 -201t25 -227q0 -199 -67.5 -364t-200 -267t-305.5 -102zM713 78q107 0 196 52t146.5 140t89 203.5t31.5 243.5
q0 127 -32 242t-90.5 203.5t-148 141t-196.5 52.5q-86 0 -161 -34t-130 -94t-94.5 -140.5t-59.5 -175.5t-20 -197q0 -127 32 -241.5t90.5 -203t148.5 -140.5t198 -52z" />
    <glyph glyph-name="one" unicode="1" horiz-adv-x="630" 
d="M70 1282l266 152h76v-1434h-97v1309l-4 2l-202 -105z" />
    <glyph glyph-name="two" unicode="2" horiz-adv-x="1120" 
d="M135 1339q192 111 371 111q192 0 319 -113.5t127 -296.5q0 -69 -25.5 -142.5t-58 -129t-83 -117.5t-81 -93.5t-71.5 -70.5l-412 -399h772v-88h-905v82l481 477q281 281 281 481q0 143 -99.5 229.5t-252.5 86.5q-83 1 -171.5 -26t-154.5 -62z" />
    <glyph glyph-name="three" unicode="3" horiz-adv-x="1122" 
d="M178 1303l-33 77q193 73 355 70q113 -2 207.5 -41t155.5 -119t61 -188q0 -129 -81 -216.5t-192 -113.5q149 -34 240.5 -138.5t91.5 -248.5q0 -123 -70.5 -216t-182.5 -139t-245 -46q-108 0 -215 28.5t-172 65.5l37 74q64 -30 160.5 -53t181.5 -23q107 0 198 37t148.5 111
t57.5 171q0 99 -59.5 179t-150.5 121.5t-192 41.5h-131v72h133q60 0 119 18.5t109 52t81 89t31 123.5q0 122 -95.5 191.5t-244.5 72.5q-124 2 -303 -53z" />
    <glyph glyph-name="four" unicode="4" horiz-adv-x="1204" 
d="M840 1434h78v-969h186v-90h-186v-375h-95v375h-753v80zM823 1266l-639 -801h639v801z" />
    <glyph glyph-name="five" unicode="5" horiz-adv-x="1163" 
d="M973 1434v-86h-625l-63 -517q147 84 282 84q199 0 339.5 -129.5t140.5 -320.5q0 -135 -71.5 -246t-190 -173t-257.5 -62q-212 0 -407 104l35 74q173 -84 368 -84q173 0 297.5 114.5t124.5 270.5q0 152 -115 257t-278 105q-155 0 -295 -106l-82 41l88 674h709z" />
    <glyph glyph-name="six" unicode="6" horiz-adv-x="1247" 
d="M1057 1374l-31 -80q-169 64 -305 64q-115 0 -201.5 -38.5t-139.5 -102.5t-85.5 -161.5t-44.5 -201.5t-12 -236h4q51 137 165.5 211t258.5 74q194 0 326 -124t132 -326q0 -205 -137.5 -337t-351.5 -132q-127 0 -222.5 51t-153.5 144t-86 215.5t-28 275.5q0 72 6 141.5
t22.5 149t43 147.5t70.5 132.5t101.5 109.5t139.5 72.5t181 27.5q161 0 348 -76zM655 811q-162 0 -275.5 -106t-113.5 -267q0 -154 104.5 -258t268.5 -104q170 0 280.5 111.5t110.5 267.5q0 153 -108 254.5t-267 101.5z" />
    <glyph glyph-name="seven" unicode="7" horiz-adv-x="1026" 
d="M70 1434h909v-86l-604 -1348h-109l604 1341h-800v93z" />
    <glyph glyph-name="eight" unicode="8" horiz-adv-x="1226" 
d="M616 1450q105 0 194.5 -42.5t144.5 -124.5t55 -187q0 -111 -66 -197t-170 -117q134 -33 226 -140.5t92 -246.5q0 -123 -68 -218.5t-175 -144t-231 -48.5h-4q-124 0 -230.5 48.5t-174.5 144t-68 218.5q0 139 92 246.5t226 140.5q-104 31 -170 117t-66 197q0 105 55 187
t144 124.5t194 42.5zM236 395q0 -138 108 -230.5t272 -92.5t272.5 92.5t108.5 230.5q0 89 -47 164t-135 121t-199 47q-111 -1 -198.5 -47t-134.5 -121t-47 -164zM616 1362q-130 0 -216.5 -72t-86.5 -198q0 -118 83 -195.5t220 -77.5t220.5 77.5t83.5 195.5q0 126 -87 198
t-217 72z" />
    <glyph glyph-name="nine" unicode="9" horiz-adv-x="1247" 
d="M193 63l28 76q173 -63 336 -63q77 0 140.5 21t110 57.5t82 90.5t58 116t37 138t20 151.5t5.5 162.5h-4q-36 -133 -153.5 -210t-272.5 -77q-122 0 -225.5 55t-166.5 159.5t-63 236.5q0 130 57.5 236.5t170.5 171.5t261 65q158 0 269.5 -83t165 -227.5t53.5 -338.5
q0 -85 -6.5 -163.5t-23.5 -162t-43.5 -154t-68.5 -134t-96 -107.5t-129.5 -70t-165.5 -26q-182 0 -376 79zM592 618q161 0 276 104.5t115 260.5q0 150 -103 262.5t-262 112.5q-125 0 -217.5 -53.5t-137 -138t-44.5 -187.5q0 -157 106 -259t267 -102z" />
    <glyph glyph-name="colon" unicode=":" horiz-adv-x="489" 
d="M244 168q37 0 62.5 -25.5t25.5 -62.5q0 -35 -25.5 -60.5t-62.5 -25.5q-35 0 -60.5 25.5t-25.5 60.5q0 37 25.5 62.5t60.5 25.5zM244 950q37 0 62.5 -25.5t25.5 -62.5q0 -35 -25.5 -59.5t-62.5 -24.5q-35 0 -60.5 25t-25.5 59q0 37 25.5 62.5t60.5 25.5z" />
    <glyph glyph-name="semicolon" unicode=";" horiz-adv-x="538" 
d="M260 152q52 0 84.5 -46.5t32.5 -103.5q0 -79 -55 -142.5t-134 -99.5l-24 39q32 20 63 51t52.5 79t7.5 89q-12 -24 -49 -24q-34 0 -51 23t-17 51q0 36 28 60t62 24zM260 950q37 0 62.5 -25.5t25.5 -62.5q0 -35 -25.5 -59.5t-62.5 -24.5q-35 0 -60.5 25t-25.5 59
q0 37 25.5 62.5t60.5 25.5z" />
    <glyph glyph-name="less" unicode="&#x3c;" horiz-adv-x="905" 
d="M715 1020v-94l-492 -242l494 -240v-98l-586 301v74z" />
    <glyph glyph-name="equal" unicode="=" horiz-adv-x="1046" 
d="M176 862h694v-80h-694v80zM176 547h694v-80h-694v80z" />
    <glyph glyph-name="greater" unicode="&#x3e;" horiz-adv-x="905" 
d="M188 926v94l586 -299v-74l-588 -301v98l496 240z" />
    <glyph glyph-name="question" unicode="?" horiz-adv-x="999" 
d="M453 1481q115 0 208 -38t151 -118t58 -190q0 -61 -22 -113t-57 -90t-77 -72.5t-84.5 -67.5t-77.5 -67.5t-57 -81t-22 -100.5v-162h-86v166q0 63 21 115.5t55 90t74.5 71.5t81.5 66t75 66t55 79.5t21 99.5q0 81 -46 141t-116.5 87.5t-154.5 27.5q-72 0 -153 -24t-138 -62
l-47 71q63 47 157 76t181 29zM432 139q34 0 57 -22.5t23 -57.5q0 -32 -22.5 -53.5t-57.5 -21.5q-36 0 -59 21t-23 54q0 35 23.5 57.5t58.5 22.5z" />
    <glyph glyph-name="at" unicode="@" horiz-adv-x="1939" 
d="M1477 188q-225 0 -238 172q-38 -80 -120 -126t-181 -46q-126 0 -215.5 71t-89.5 192q0 71 33 121.5t87 75t105.5 34.5t106.5 10q111 0 252 -47v107q0 120 -59 167.5t-177 47.5t-250 -39l-18 61q149 45 282 45q154 0 228.5 -69.5t74.5 -212.5v-349q0 -87 46.5 -117
t140.5 -30q69 0 120.5 35.5t79.5 94.5t41 124t13 135q0 145 -44 266t-118 202t-172 137t-203 81t-215 25q-162 0 -306.5 -60t-246.5 -161.5t-161.5 -240t-59.5 -290.5q0 -153 58.5 -292.5t158 -241t238.5 -162t293 -60.5q146 0 282 54l27 -70q-155 -61 -309 -61
q-224 0 -414 111.5t-301 303.5t-111 420q0 169 65.5 322t178 264t271.5 176.5t337 65.5q103 0 203 -22t193 -64t172 -109t137.5 -152.5t91.5 -199.5t33 -244q0 -99 -19 -179.5t-59 -143.5t-106.5 -97.5t-155.5 -34.5zM938 258q109 0 194 71.5t85 170.5v80q-8 6 -40.5 16.5
t-92 21.5t-115.5 11q-48 0 -90 -8t-82.5 -26.5t-64 -55t-23.5 -86.5q0 -89 68.5 -142t160.5 -53z" />
    <glyph glyph-name="A" unicode="A" horiz-adv-x="1323" 
d="M606 1450h111l553 -1450h-109l-153 408h-693l-153 -408h-109zM662 1343l-316 -849h631z" />
    <glyph glyph-name="B" unicode="B" horiz-adv-x="1374" 
d="M217 1434h549q162 0 277.5 -109t115.5 -274q0 -113 -55 -200t-141 -118q119 -36 195.5 -126t76.5 -222q0 -164 -115.5 -274.5t-279.5 -110.5h-623v1434zM319 96h523q111 0 201 87t90 206q0 117 -86 204t-211 87h-517v-584zM319 1335v-563h476q117 0 189.5 69t72.5 189
q0 131 -85 218t-206 87h-447z" />
    <glyph glyph-name="C" unicode="C" horiz-adv-x="1390" 
d="M858 -16q-197 0 -366 98.5t-268 267.5t-99 367t99 367t268 267.5t366 98.5q106 0 218.5 -28.5t203.5 -73.5l-39 -80q-20 9 -54.5 23t-134.5 37.5t-190 23.5q-129 0 -246 -49.5t-201.5 -134t-134 -202.5t-49.5 -249t49.5 -249t134 -202.5t201.5 -134t246 -49.5
q90 0 185 21t145 42l49 21l39 -80q-91 -45 -203.5 -73.5t-218.5 -28.5z" />
    <glyph glyph-name="D" unicode="D" horiz-adv-x="1464" 
d="M698 0h-481v1434h481q58 0 143.5 -20t174.5 -71q163 -96 239 -260.5t76 -365.5q0 -97 -17.5 -186t-54.5 -171.5t-98.5 -152t-144.5 -117.5q-154 -90 -318 -90zM319 1335v-1237h365q148 0 287 82q132 76 195 216.5t63 320.5q0 181 -63 320t-195 216q-139 82 -287 82h-365z
" />
    <glyph glyph-name="E" unicode="E" horiz-adv-x="1331" 
d="M217 1434h967v-99h-865v-590h744v-96h-744v-553h900v-96h-1002v1434z" />
    <glyph glyph-name="F" unicode="F" horiz-adv-x="1247" 
d="M217 1434h967v-99h-865v-600h744v-96h-744v-639h-102v1434z" />
    <glyph glyph-name="G" unicode="G" horiz-adv-x="1540" 
d="M872 1450q107 0 227 -30t218 -79l-41 -79q-202 90 -393 90q-138 0 -260.5 -52t-207.5 -138.5t-134.5 -202.5t-49.5 -242q0 -173 81 -318t227 -231t325 -86q255 0 447 168v358h-406v90h502v-485q-234 -229 -543 -229q-205 0 -375 97.5t-267 266t-97 369.5
q0 200 98.5 368.5t270.5 266.5t378 98z" />
    <glyph glyph-name="H" unicode="H" horiz-adv-x="1521" 
d="M217 1434h102v-662h883v662h103v-1434h-103v678h-883v-678h-102v1434z" />
    <glyph glyph-name="I" unicode="I" horiz-adv-x="534" 
d="M217 1434h102v-1434h-102v1434z" />
    <glyph glyph-name="J" unicode="J" horiz-adv-x="561" 
d="M43 -287l-33 70q14 6 39 21t59.5 43.5t63.5 61t49.5 76.5t20.5 87v1259l-131 27v76h233v-1340q0 -68 -25 -129t-70 -107.5t-95 -81.5t-111 -63z" />
    <glyph glyph-name="K" unicode="K" horiz-adv-x="1269" 
d="M217 0v1434h102v-682l-2 -193l140 172l596 703h123l-531 -629l606 -805h-123l-546 733l-263 -303v-430h-102z" />
    <glyph glyph-name="L" unicode="L" horiz-adv-x="1218" 
d="M217 1434h102v-1338h840v-96h-942v1434z" />
    <glyph glyph-name="M" unicode="M" horiz-adv-x="1851" 
d="M217 1434h143l562 -1225h4l563 1225h145v-1434h-102v1286h-4l-557 -1202h-92l-557 1206h-5l2 -1290h-102v1434z" />
    <glyph glyph-name="N" unicode="N" horiz-adv-x="1497" 
d="M217 1434h105l475 -703l385 -575h2l-6 538v740h102v-1434h-109l-479 717l-375 561h-4l6 -545v-733h-102v1434z" />
    <glyph glyph-name="O" unicode="O" horiz-adv-x="1710" 
d="M125 717q0 201 99 370t266.5 266t363.5 97q199 0 367.5 -98.5t266 -267.5t97.5 -367q0 -201 -98.5 -370t-266.5 -266t-366 -97t-366 98t-265.5 266.5t-97.5 368.5zM231 715q0 -174 82 -319.5t225.5 -229.5t315.5 -84q173 0 317 84t226 229.5t82 319.5q0 173 -82.5 319
t-227 232t-317.5 86q-170 0 -313 -84.5t-225.5 -231t-82.5 -321.5z" />
    <glyph glyph-name="P" unicode="P" horiz-adv-x="1302" 
d="M217 1434h592q163 0 282 -127.5t119 -292.5q0 -107 -52.5 -204.5t-143.5 -157.5t-197 -60h-498v-592h-102v1434zM319 1335v-647h490q122 0 210.5 99t88.5 225q0 134 -94.5 228.5t-227.5 94.5h-467z" />
    <glyph glyph-name="Q" unicode="Q" horiz-adv-x="1703" 
d="M125 717q0 201 98.5 370t265.5 266t363 97q197 0 364 -98.5t264 -267t97 -365.5q0 -247 -149 -442t-381 -254v-7q106 -55 248 -105t223 -69l-41 -90q-55 10 -226.5 81t-263.5 128q-13 7 -23.5 11.5t-17.5 7t-19.5 3.5t-19 1.5t-26 0t-31.5 -0.5q-198 0 -365 99
t-263.5 267.5t-96.5 366.5zM233 715q0 -174 82 -319.5t224.5 -229.5t312.5 -84q169 0 311.5 84t224.5 229.5t82 319.5q0 132 -48.5 250t-131 203t-197 134.5t-241.5 49.5q-169 0 -311.5 -84.5t-225 -231t-82.5 -321.5z" />
    <glyph glyph-name="R" unicode="R" horiz-adv-x="1378" 
d="M217 1434h608q166 0 284 -117t118 -281q0 -141 -89.5 -251t-226.5 -138l367 -647h-117l-356 635h-486v-635h-102v1434zM319 1335v-604h506q124 0 211.5 90.5t87.5 214.5q0 131 -93.5 215t-227.5 84h-484z" />
    <glyph glyph-name="S" unicode="S" horiz-adv-x="1220" 
d="M618 -16q-253 0 -495 114l41 88q40 -18 87.5 -36.5t158 -43t211.5 -24.5q185 0 286 71.5t101 204.5q0 66 -30 116.5t-80 82.5t-115.5 57t-138 45.5t-144.5 42t-137.5 53t-115.5 72t-80 104.5t-30 146q0 173 126 273t349 100q127 0 243.5 -28.5t191.5 -61.5l-39 -86
q-21 9 -57.5 22.5t-139.5 35.5t-193 22q-167 0 -271.5 -68.5t-104.5 -200.5q0 -66 30 -117t80 -84t115.5 -58.5t137.5 -46.5t144 -43t137.5 -52.5t115.5 -71t80 -103t30 -142.5q0 -181 -132.5 -282t-361.5 -101z" />
    <glyph glyph-name="T" unicode="T" horiz-adv-x="1243" 
d="M49 1434h1145v-99h-522v-1335h-103v1335h-520v99z" />
    <glyph glyph-name="U" unicode="U" horiz-adv-x="1464" 
d="M205 1434h100v-969q0 -148 127.5 -257.5t300.5 -109.5t300.5 109.5t127.5 257.5v969h101v-842q0 -74 -7 -170q-12 -178 -163.5 -300t-358.5 -122t-358.5 122t-163.5 300q-6 82 -6 170v842z" />
    <glyph glyph-name="V" unicode="V" horiz-adv-x="1280" 
d="M49 1434h107l481 -1309h6l481 1309h107l-539 -1434h-104z" />
    <glyph glyph-name="W" unicode="W" horiz-adv-x="1933" 
d="M61 1434h111l369 -1272h4l368 1272h105l368 -1272h5l366 1272h113l-432 -1434h-103l-368 1270h-2l-369 -1270h-102z" />
    <glyph glyph-name="X" unicode="X" horiz-adv-x="1323" 
d="M57 1434h121l481 -641h5l481 641h121l-545 -723l543 -711h-121l-479 629h-5l-479 -629h-123l545 711z" />
    <glyph glyph-name="Y" unicode="Y" horiz-adv-x="1189" 
d="M643 0h-98v588l-510 846h112l445 -750h4l444 750h113l-510 -846v-588z" />
    <glyph glyph-name="Z" unicode="Z" horiz-adv-x="1251" 
d="M109 1434h1046v-88l-938 -1254l2 -2l248 4h688v-94h-1073v76l946 1263q0 1 -1 2t-1 2l-328 -4h-589v95z" />
    <glyph glyph-name="bracketleft" unicode="[" horiz-adv-x="563" 
d="M483 1460v-84h-213v-1650h213v-84h-297v1818h297z" />
    <glyph glyph-name="backslash" unicode="\" horiz-adv-x="997" 
d="M813 -68l-721 1567h92l723 -1567h-94z" />
    <glyph glyph-name="bracketright" unicode="]" horiz-adv-x="563" 
d="M80 1376v84h299v-1818h-299v82h213v1652h-213z" />
    <glyph glyph-name="underscore" unicode="_" horiz-adv-x="1411" 
d="M303 -184h805v-78h-805v78z" />
    <glyph glyph-name="grave" unicode="`" horiz-adv-x="526" 
d="M150 1462l100 56l121 -301h-58z" />
    <glyph glyph-name="a" unicode="a" horiz-adv-x="1157" 
d="M193 1024q195 57 374 57q201 0 296 -79.5t95 -260.5v-600q0 -49 60 -49q6 0 76 4v-82q-49 -14 -109 -14q-48 0 -83.5 27.5t-35.5 85.5v90q-44 -100 -152 -159.5t-243 -59.5q-77 0 -144.5 19.5t-122.5 58.5t-86.5 105.5t-31.5 154.5q0 84 37 146.5t101.5 98.5t143.5 53
t171 17q44 0 91 -3t85.5 -7.5t68.5 -8.5t52.5 -8t23.5 -4v127q0 145 -79 202.5t-230 57.5q-190 0 -336 -47zM860 524q-165 33 -313 33q-70 0 -130 -10.5t-116 -35t-88.5 -73t-32.5 -116.5q0 -86 45 -144.5t111 -83t147 -24.5q147 0 262 96.5t115 224.5v133z" />
    <glyph glyph-name="b" unicode="b" horiz-adv-x="1320" 
d="M178 1499h101v-665q58 115 170.5 181t248.5 66q149 0 267.5 -77.5t181.5 -203t63 -270.5q0 -147 -64.5 -271.5t-182.5 -199.5t-265 -75q-135 0 -251.5 69.5t-174.5 196.5l-16 -250h-78v1499zM688 989q-177 0 -298.5 -132t-121.5 -327q0 -191 120.5 -322.5t299.5 -131.5
q178 0 300 131t122 323t-122 325.5t-300 133.5z" />
    <glyph glyph-name="c" unicode="c" horiz-adv-x="1069" 
d="M657 -16q-112 0 -214 44t-175 117.5t-116 175t-43 211.5t43 211.5t116 175.5t175 118t214 44q175 0 318 -67l-37 -78l-8 3q-7 3 -20.5 7.5t-31.5 10t-41.5 11.5t-49.5 10.5t-57 7.5t-62 3q-130 0 -235.5 -65t-162.5 -169.5t-57 -222.5t57 -222t162.5 -169t235.5 -65
q31 0 62 3t57 7.5t49.5 10t41.5 11.5l31.5 10.5t20.5 7.5l8 3l37 -78q-143 -67 -318 -67z" />
    <glyph glyph-name="d" unicode="d" horiz-adv-x="1320" 
d="M1042 1499h101v-1499h-78l-16 250q-58 -127 -174.5 -196.5t-251.5 -69.5q-147 0 -265 75t-182.5 199.5t-64.5 271.5q0 145 63 270.5t181.5 203t267.5 77.5q136 0 248.5 -66t170.5 -181v665zM633 989q-178 0 -300 -133.5t-122 -325.5t122 -323t300 -131q179 0 299.5 131.5
t120.5 322.5q0 195 -121.5 327t-298.5 132z" />
    <glyph glyph-name="e" unicode="e" horiz-adv-x="1212" 
d="M111 532q0 147 67 273t187.5 201t267.5 75q111 0 204.5 -45.5t153.5 -121t93.5 -171t33.5 -196.5l-4 -53h-897q9 -177 133 -295.5t312 -118.5q153 0 333 80l37 -84q-189 -92 -370 -92q-161 0 -288.5 75.5t-195 200t-67.5 272.5zM217 571h801q0 74 -25.5 146.5
t-71.5 132.5t-120.5 97.5t-163.5 37.5q-170 0 -290.5 -121t-129.5 -293z" />
    <glyph glyph-name="f" unicode="f" horiz-adv-x="667" 
d="M627 1518l-11 -86q-56 12 -116 12q-103 0 -144 -58.5t-41 -164.5v-156h295v-86h-295v-979h-100v979h-137v70l137 16v158q0 155 64 234t215 79q74 0 133 -18z" />
    <glyph glyph-name="g" unicode="g" horiz-adv-x="1089" 
d="M1004 1065v-64l-181 -22q58 -35 90.5 -98.5t32.5 -141.5q0 -154 -101 -245t-292 -91q-133 0 -221 46q-12 -5 -29 -17t-37 -42t-20 -64q0 -46 35.5 -75t104 -39.5t110.5 -12.5t112 -2h9h8h8q85 0 148 -11.5t113.5 -39t76.5 -77.5t26 -122q0 -70 -27 -123.5t-69.5 -85
t-102 -52t-116 -27.5t-119.5 -7q-452 0 -452 295q0 134 137 221q-94 47 -94 151q0 83 108 173q-52 41 -79 107.5t-27 139.5q0 161 107 251.5t288 90.5q70 0 129 -16h324zM563 999q-144 0 -227.5 -68.5t-83.5 -191.5q0 -117 78 -185.5t223 -68.5q144 0 220.5 68t76.5 186
q0 122 -78.5 191t-208.5 69zM618 115q-199 0 -284 20q-127 -73 -127 -188q0 -211 358 -211q336 0 336 211q0 93 -69.5 130.5t-213.5 37.5z" />
    <glyph glyph-name="h" unicode="h" horiz-adv-x="1245" 
d="M178 1499h103v-670q6 30 31.5 69.5t70.5 82t121 71.5t166 29q195 0 300 -120t105 -338v-623h-102v625q0 167 -82 262.5t-236 95.5q-75 0 -138.5 -24.5t-106 -64.5t-72.5 -92t-43.5 -105t-13.5 -105v-592h-103v1499z" />
    <glyph glyph-name="i" unicode="i" horiz-adv-x="475" 
d="M90 1065h207v-1065h-100v969l-107 26v70zM225 1434q35 0 62.5 -25t27.5 -59q0 -36 -27 -62t-63 -26q-35 0 -59.5 25.5t-24.5 60.5t24.5 60.5t59.5 25.5z" />
    <glyph glyph-name="j" unicode="j" horiz-adv-x="479" 
d="M96 -348l-33 67q47 20 91.5 71.5t44.5 129.5v1049l-109 26v70h211v-1038q0 -164 -56.5 -255t-148.5 -120zM223 1430q35 0 62.5 -25t27.5 -59q0 -36 -27 -62.5t-63 -26.5q-35 0 -59.5 25.5t-24.5 60.5q0 36 24.5 61.5t59.5 25.5z" />
    <glyph glyph-name="k" unicode="k" horiz-adv-x="991" 
d="M178 1499h103v-733l-2 -313l268 315l258 297h129l-430 -490l436 -575h-121l-377 500l-161 -183v-317h-103v1499z" />
    <glyph glyph-name="l" unicode="l" horiz-adv-x="505" 
d="M184 1499h101v-1349q0 -58 59 -58q42 0 72 6v-82q-48 -16 -113 -16q-39 0 -65 15.5t-36.5 40.5t-14 43t-3.5 38v1362z" />
    <glyph glyph-name="m" unicode="m" horiz-adv-x="1845" 
d="M180 1065h78l18 -195q29 74 87.5 124t119.5 68.5t125 18.5q130 0 216.5 -64.5t123.5 -164.5q35 92 135.5 160.5t214.5 68.5q190 0 283.5 -103t93.5 -288v-690h-102v702q0 138 -76 209.5t-207 71.5q-135 0 -224 -93t-89 -231v-659h-103v705q0 135 -79 206.5t-203 71.5
q-131 0 -220 -94.5t-89 -229.5v-659h-103v1065z" />
    <glyph glyph-name="n" unicode="n" horiz-adv-x="1245" 
d="M180 1065h78l18 -240q5 23 21.5 53.5t50 66.5t77 66t109 50t138.5 20q195 0 300 -120t105 -338v-623h-102v625q0 167 -82 262.5t-236 95.5q-75 0 -138.5 -25t-106 -65.5t-72.5 -93t-43.5 -106t-13.5 -105.5v-588h-103v1065z" />
    <glyph glyph-name="o" unicode="o" horiz-adv-x="1310" 
d="M111 532q0 113 43 215t115.5 175t173 116t210.5 43q112 0 213 -42.5t174.5 -115.5t116.5 -175t43 -216q0 -228 -160 -388t-387 -160q-147 0 -272 73t-197.5 199t-72.5 276zM653 989q-184 0 -312 -133t-128 -324q0 -123 58 -228t159.5 -166.5t222.5 -61.5q185 0 315 134
t130 322q0 191 -129.5 324t-315.5 133z" />
    <glyph glyph-name="p" unicode="p" horiz-adv-x="1323" 
d="M688 989q-177 0 -297.5 -132.5t-120.5 -324.5q0 -195 121 -325.5t297 -130.5q178 0 300 132.5t122 323.5q0 192 -122 324.5t-300 132.5zM698 1081q146 0 264.5 -74.5t184 -199.5t65.5 -275q0 -146 -63.5 -270.5t-182.5 -201t-268 -76.5q-88 0 -170 28.5t-149.5 87.5
t-97.5 140v-588h-103v1413h80l16 -248q39 89 112 151t151.5 87.5t160.5 25.5z" />
    <glyph glyph-name="q" unicode="q" horiz-adv-x="1325" 
d="M635 989q-178 0 -300 -132.5t-122 -324.5q0 -191 122 -323.5t300 -132.5q176 0 297 130.5t121 325.5q0 192 -120.5 324.5t-297.5 132.5zM625 1081q81 0 160 -26t152 -88.5t112 -151.5l16 250h80v-1413h-103v588q-30 -81 -97.5 -140t-149.5 -87.5t-170 -28.5
q-149 0 -268 76.5t-182.5 201t-63.5 270.5q0 150 65.5 275t184 199.5t264.5 74.5z" />
    <glyph glyph-name="r" unicode="r" horiz-adv-x="688" 
d="M178 1063h78l18 -201q41 101 131 152t209 51v-109q-68 0 -126.5 -18.5t-105.5 -55t-74 -98.5t-27 -143v-641h-103v1063z" />
    <glyph glyph-name="s" unicode="s" horiz-adv-x="970" 
d="M487 -16q-191 0 -376 86l34 77q41 -22 137 -48.5t203 -26.5q139 0 214 53t75 145q0 60 -36 102.5t-94 66.5t-127.5 43t-139.5 41.5t-128 53.5t-94 86.5t-36 133.5q0 130 97.5 207t270.5 77q97 0 189.5 -21.5t148.5 -45.5l-34 -78q-16 6 -44 15.5t-107 25.5t-148 16
q-124 0 -200.5 -50.5t-76.5 -143.5q0 -53 28 -92t74 -61t105 -42.5t120.5 -35t120.5 -39t105 -55t74 -82.5t28 -120q0 -134 -102.5 -211t-280.5 -77z" />
    <glyph glyph-name="t" unicode="t" horiz-adv-x="698" 
d="M252 1372h82v-307h293v-86h-293v-641q0 -124 43 -187t145 -63q66 0 144 16l16 -73q-91 -31 -172 -31q-154 0 -215.5 84.5t-61.5 257.5v637h-161v70l161 16z" />
    <glyph glyph-name="u" unicode="u" horiz-adv-x="1245" 
d="M168 1065h102v-625q0 -172 81.5 -265t266.5 -93q140 0 243.5 103t103.5 245v635h102v-1065h-78l-16 207q-54 -111 -152 -167t-219 -56q-218 0 -326 114t-108 328v639z" />
    <glyph glyph-name="v" unicode="v" horiz-adv-x="997" 
d="M47 1065h109l340 -940h4l342 940h108l-399 -1065h-109z" />
    <glyph glyph-name="w" unicode="w" horiz-adv-x="1595" 
d="M53 1065h105l301 -932h6l278 932h105l280 -932h7l301 932h104l-354 -1065h-107l-282 922h-2l-281 -922h-106z" />
    <glyph glyph-name="x" unicode="x" horiz-adv-x="1071" 
d="M63 1065h125l347 -459h4l346 459h123l-408 -526l420 -539h-123l-358 469h-4l-361 -469h-123l420 539z" />
    <glyph glyph-name="y" unicode="y" horiz-adv-x="1044" 
d="M45 1065h107l368 -950h4l367 950h108l-436 -1094q-18 -45 -31 -73.5t-35 -71t-44 -69t-51.5 -53t-66 -39.5t-77.5 -13q-73 0 -168 31l23 92q77 -25 139 -25q35 0 65.5 16t51.5 38t41.5 59.5t32.5 66t28 72.5z" />
    <glyph glyph-name="z" unicode="z" horiz-adv-x="1044" 
d="M104 1065h850v-78l-743 -901l2 -4l242 2h499v-84h-874v76l754 899l-3 4l-391 -2h-336v88z" />
    <glyph glyph-name="braceleft" unicode="{" horiz-adv-x="645" 
d="M217 553q61 -16 84 -61t23 -119v-463q0 -96 43.5 -138t142.5 -42h57v-84h-57q-149 0 -211.5 64.5t-65.5 201.5v455q0 147 -149 147v78q72 2 110.5 35.5t38.5 111.5v455q3 137 65.5 201.5t211.5 64.5h57v-82h-57q-99 0 -142.5 -43t-43.5 -139v-463q0 -74 -23 -119t-84 -61
z" />
    <glyph glyph-name="bar" unicode="|" horiz-adv-x="454" 
d="M184 1632h86v-1933h-86v1933z" />
    <glyph glyph-name="braceright" unicode="}" horiz-adv-x="645" 
d="M428 553q-60 16 -83 61t-23 119v463q0 96 -44 139t-145 43h-55v82h55q150 0 212.5 -64.5t64.5 -201.5v-455q0 -78 38.5 -111.5t112.5 -35.5v-78q-151 0 -151 -147v-455q-2 -137 -64.5 -201.5t-212.5 -64.5h-55v84h55q101 0 145 42t44 138v463q0 74 23 119t83 61z" />
    <glyph glyph-name="exclamdown" unicode="&#xa1;" horiz-adv-x="503" 
d="M315 0h-127l23 1049h80zM254 1292q-35 0 -57.5 22.5t-22.5 57.5q0 34 22.5 55t57.5 21q36 0 58 -21.5t22 -54.5q0 -35 -22.5 -57.5t-57.5 -22.5z" />
    <glyph glyph-name="cent" unicode="&#xa2;" horiz-adv-x="1210" 
d="M729 -180h-67v164q-138 6 -255.5 81t-187 199t-69.5 268q0 142 67 264t185 198t260 85v154h67v-152q155 -6 287 -67l-37 -78l-7 3q-8 3 -21.5 7.5t-31.5 10t-41.5 11.5t-49.5 10.5t-57 7.5t-62 3q-130 0 -235.5 -65t-162.5 -169.5t-57 -222.5q0 -119 57.5 -223
t163 -168.5t232.5 -64.5q28 0 56 2t51 6t45.5 8.5t39 9t32 9.5t25 8.5t16.5 6.5l7 3l33 -78q-38 -25 -119 -43.5t-164 -23.5v-164z" />
    <glyph glyph-name="sterling" unicode="&#xa3;" horiz-adv-x="1167" 
d="M983 1288l-70 -67q-98 127 -251 127q-143 0 -226.5 -90t-83.5 -230v-313h522v-70h-522v-338q0 -64 -25.5 -124.5t-78.5 -94.5h790v-88h-903v86q5 3 12.5 8t27.5 23.5t35 40.5t27.5 59t12.5 78v350h-113v70h113v329q0 177 115.5 291.5t296.5 114.5q93 0 177.5 -44
t143.5 -118z" />
    <glyph glyph-name="yen" unicode="&#xa5;" horiz-adv-x="1312" 
d="M98 1434h115l274 -459l168 -285h4l170 287l275 457h113l-508 -846v-64h274v-67h-274v-105h274v-67h-274v-285h-101v285h-289v67h289v105h-289v67h289v64z" />
    <glyph glyph-name="section" unicode="&#xa7;" horiz-adv-x="1224" 
d="M973 1341l-51 -79q-62 35 -147 55t-163 20q-62 0 -123 -12t-116 -36.5t-89 -68.5t-34 -100q0 -91 97.5 -148t305.5 -106q174 -44 247 -76q198 -87 198 -241q0 -67 -36 -121.5t-94.5 -88.5t-119.5 -54t-123 -27q55 -18 97 -33.5t93.5 -43.5t84.5 -58t56 -74.5t23 -95.5
q0 -82 -46.5 -143t-122 -94t-156.5 -48.5t-164 -15.5q-107 0 -211.5 25.5t-173.5 68.5l55 84q147 -82 338 -82q60 0 121.5 10.5t121.5 33t98 66t38 101.5q0 37 -16 69t-47.5 56.5t-66 44t-86.5 36.5t-91.5 27.5t-96.5 24.5q-46 11 -75 19t-80.5 25t-85.5 33t-75.5 42.5
t-66.5 55t-42 68t-17 83.5q0 64 32 116.5t86 85t114 52.5t126 28q-54 17 -93.5 32t-89.5 41.5t-81 56t-53 73.5t-22 96q0 69 33 124t84 89t116 56.5t123 31.5t112 9q86 0 184.5 -26t170.5 -67zM616 764q-90 1 -173 -20t-143.5 -72t-63.5 -123q0 -70 57 -123.5t136.5 -78.5
t162.5 -25q40 0 87.5 5.5t105 21.5t103 39.5t76.5 64.5t31 92q0 57 -36.5 101t-95 68.5t-121.5 36.5t-126 13z" />
    <glyph glyph-name="dieresis" unicode="&#xa8;" horiz-adv-x="901" 
d="M332 1305q0 -33 -22.5 -54.5t-61.5 -21.5q-32 0 -55 22t-23 54t23.5 55.5t54.5 23.5q39 0 61.5 -21.5t22.5 -57.5zM709 1305q0 -33 -22.5 -54.5t-59.5 -21.5q-34 0 -57 22t-23 54t24 55.5t56 23.5q38 0 60 -21.5t22 -57.5z" />
    <glyph glyph-name="copyright" unicode="&#xa9;" horiz-adv-x="1708" 
d="M1092 997l-43 -59q-86 59 -179 59q-112 0 -191 -78.5t-79 -191.5q0 -110 78 -189t190 -79q96 0 181 59l41 -61q-88 -82 -222 -82q-148 0 -252 103.5t-104 252.5q0 146 104.5 249t251.5 103q125 0 224 -86zM854 1448q145 0 278.5 -57.5t230 -154t153.5 -230t57 -279.5
q0 -145 -57.5 -278.5t-154 -230.5t-229.5 -154.5t-278 -57.5t-278 57.5t-229.5 154.5t-154 230.5t-57.5 278.5q0 146 57 279.5t153.5 230t230 154t278.5 57.5zM854 1384q-133 0 -254.5 -52.5t-209.5 -140.5t-140.5 -209.5t-52.5 -254.5q0 -134 52 -256.5t140 -211t210 -141
t255 -52.5t255 52.5t210 141t140 211t52 256.5q0 133 -52.5 254.5t-140.5 209.5t-209.5 140.5t-254.5 52.5z" />
    <glyph glyph-name="ordfeminine" unicode="&#xaa;" horiz-adv-x="995" 
d="M252 1458q134 41 221 41q146 0 213.5 -61t67.5 -193v-405q0 -25 37 -25q5 0 23 2t20 2v-61q-33 -17 -76 -17q-33 0 -52.5 18.5t-19.5 47.5v78q-29 -66 -98.5 -105t-159.5 -39q-107 0 -185.5 64t-78.5 174q5 213 311 213q38 0 89 -10t82 -20l32 -9v61q-1 43 -6.5 72.5
t-19 57.5t-37 44.5t-62.5 26.5t-94 10q-66 0 -191 -34zM678 1092q-24 11 -85.5 26t-115.5 15q-237 0 -237 -156q0 -72 59.5 -118t136.5 -46q101 0 170 60.5t72 150.5v68zM164 627h667v-72h-667v72z" />
    <glyph glyph-name="guillemotleft" unicode="&#xab;" horiz-adv-x="1112" 
d="M932 999l53 -53l-342 -414l340 -415l-51 -54l-412 461v17zM528 999l54 -53l-342 -414l340 -415l-52 -54l-413 461v17z" />
    <glyph glyph-name="registered" unicode="&#xae;" horiz-adv-x="1255" 
d="M627 1434q125 0 230.5 -61.5t166.5 -167.5t61 -232q0 -123 -61.5 -229t-167 -168t-229.5 -62q-190 0 -324.5 135t-134.5 324q0 126 61.5 232t167 167.5t230.5 61.5zM627 1382q-167 0 -287.5 -120t-120.5 -289t119.5 -288.5t288.5 -119.5q165 0 287 118.5t122 289.5
q0 169 -120 289t-289 120zM471 1212h199q56 0 94.5 -39t38.5 -96q0 -45 -29 -81t-74 -46l123 -211h-51l-121 207h-135v-207h-45v473zM516 1167v-178h154q36 0 62 27t26 61q0 42 -29.5 66t-71.5 24h-141z" />
    <glyph glyph-name="macron" unicode="&#xaf;" horiz-adv-x="923" 
d="M147 1313h598v-74h-598v74z" />
    <glyph glyph-name="degree" unicode="&#xb0;" horiz-adv-x="632" 
d="M123 1264q0 77 58.5 130.5t133.5 53.5q78 0 135.5 -52t57.5 -130q0 -83 -57 -136t-136 -53q-76 0 -134 53t-58 134zM184 1262q0 -53 39 -88t92 -35q55 0 93 33.5t38 89.5q0 55 -39 89.5t-92 34.5q-52 0 -91.5 -36t-39.5 -88z" />
    <glyph glyph-name="plusminus" unicode="&#xb1;" horiz-adv-x="1009" 
d="M467 1071h76v-272h295v-74h-295v-272h-76v272h-295v74h295v272zM174 291h664v-76h-664v76z" />
    <glyph glyph-name="acute" unicode="&#xb4;" horiz-adv-x="526" 
d="M272 1518l101 -56l-164 -245h-57z" />
    <glyph glyph-name="paragraph" unicode="&#xb6;" horiz-adv-x="1040" 
d="M811 -174h-82v1526h-115v-1526h-82v809h-65q-67 2 -124 25t-98 61.5t-70.5 89.5t-43.5 109.5t-14 121.5q0 175 107.5 283.5t258.5 108.5h328v-1608z" />
    <glyph glyph-name="periodcentered" unicode="&#xb7;" horiz-adv-x="522" 
d="M260 721q46 0 78.5 -32.5t32.5 -78.5q0 -44 -32.5 -76t-78.5 -32q-44 0 -76 32t-32 76q0 46 32 78.5t76 32.5z" />
    <glyph glyph-name="cedilla" unicode="&#xb8;" horiz-adv-x="659" 
d="M373 -16l-27 -111q13 4 31 4q66 0 104.5 -37.5t38.5 -95.5q0 -70 -50.5 -110t-119.5 -40q-72 0 -135 37l21 47q56 -20 102 -20q49 0 80 25t31 63q0 37 -28.5 60.5t-74.5 23.5q-29 0 -41 -4l-31 33l50 125h49z" />
    <glyph glyph-name="ordmasculine" unicode="&#xba;" horiz-adv-x="1138" 
d="M565 741q-169 0 -280 109.5t-111 265.5v6q0 155 113 266t284 111q172 0 283 -108.5t111 -266.5v-6q0 -155 -113 -266t-287 -111zM174 555v72h791v-72h-791zM573 823q129 0 214 86t85 207v6q0 122 -88.5 208.5t-218.5 86.5q-128 0 -212.5 -85.5t-84.5 -207.5v-6
q0 -122 87.5 -208.5t217.5 -86.5z" />
    <glyph glyph-name="guillemotright" unicode="&#xbb;" horiz-adv-x="1112" 
d="M532 946l54 53l413 -458v-17l-413 -461l-51 54l339 415zM127 946l51 53l416 -458v-17l-416 -461l-49 54l340 415z" />
    <glyph glyph-name="questiondown" unicode="&#xbf;" horiz-adv-x="993" 
d="M545 -35q-114 0 -206.5 37t-151 116.5t-58.5 188.5q0 61 22 112.5t56.5 89t76.5 71.5t84.5 67t77 67t56.5 80t22 99v156h86v-160q0 -62 -21 -114.5t-54.5 -90t-74.5 -70.5t-81.5 -65t-74 -65.5t-54.5 -78.5t-21 -98q0 -120 93 -186t223 -66q70 0 149.5 23.5t136.5 60.5
l48 -69q-63 -47 -156 -76t-178 -29zM565 1292q-34 0 -57 22t-23 58q0 33 22.5 54.5t57.5 21.5q34 0 57 -22t23 -54q0 -36 -23 -58t-57 -22z" />
    <glyph glyph-name="Agrave" unicode="&#xc0;" horiz-adv-x="1323" 
d="M461 1765l100 58l123 -303h-57zM606 1450h111l553 -1450h-109l-153 408h-693l-153 -408h-109zM662 1343l-316 -849h631z" />
    <glyph glyph-name="Aacute" unicode="&#xc1;" horiz-adv-x="1323" 
d="M762 1823l100 -58l-164 -245h-57zM606 1450h111l553 -1450h-109l-153 408h-693l-153 -408h-109zM662 1343l-316 -849h631z" />
    <glyph glyph-name="Acircumflex" unicode="&#xc2;" horiz-adv-x="1323" 
d="M506 1520h-84l201 219h75l205 -219h-88l-151 145zM606 1450h111l553 -1450h-109l-153 408h-693l-153 -408h-109zM662 1343l-316 -849h631z" />
    <glyph glyph-name="Atilde" unicode="&#xc3;" horiz-adv-x="1323" 
d="M410 1538l-39 29q36 61 90 91.5t114 20.5q36 -6 102.5 -40.5t119.5 -34.5q68 0 116 63l39 -29q-35 -62 -91.5 -92t-117.5 -20q-39 5 -103 40.5t-116 35.5q-27 0 -50 -10.5t-34.5 -22t-29.5 -31.5zM606 1450h111l553 -1450h-109l-153 408h-693l-153 -408h-109zM662 1343
l-316 -849h631z" />
    <glyph glyph-name="Adieresis" unicode="&#xc4;" horiz-adv-x="1323" 
d="M553 1595q0 -33 -22 -54t-60 -21q-34 0 -57 21.5t-23 53.5q0 33 23.5 56.5t56.5 23.5q38 0 60 -22t22 -58zM932 1595q0 -33 -23 -54t-61 -21q-34 0 -56 21.5t-22 53.5q0 33 23.5 56.5t54.5 23.5q38 0 61 -22t23 -58zM606 1450h111l553 -1450h-109l-153 408h-693
l-153 -408h-109zM662 1343l-316 -849h631z" />
    <glyph glyph-name="Aring" unicode="&#xc5;" horiz-adv-x="1323" 
d="M606 1450h111l553 -1450h-109l-153 408h-693l-153 -408h-109zM662 1343l-316 -849h631zM494 1681q0 70 50 116t118 46t117.5 -46t49.5 -116t-49.5 -115.5t-117.5 -45.5t-118 45.5t-50 115.5zM780 1681q0 48 -35.5 79.5t-82.5 31.5t-83 -31.5t-36 -79.5t35.5 -79t83.5 -31
t83 31t35 79z" />
    <glyph glyph-name="AE" unicode="&#xc6;" horiz-adv-x="1914" 
d="M1804 0h-925v408h-533l-190 -408h-113l678 1434h1048v-99h-788v-590h668v-96h-668v-553h823v-96zM879 1335h-105l-393 -841h498v841z" />
    <glyph glyph-name="Ccedilla" unicode="&#xc7;" horiz-adv-x="1392" 
d="M858 -16l-27 -111q13 4 31 4q66 0 105 -37.5t39 -95.5q0 -70 -50.5 -110t-119.5 -40q-73 0 -136 37l17 47q56 -20 106 -20q49 0 80 25t31 63q0 37 -28.5 60.5t-74.5 23.5q-24 0 -36 -4l-35 33l49 127q-140 9 -266.5 70.5t-218 158.5t-145.5 228.5t-54 273.5q0 198 99 367
t268 267.5t366 98.5q106 0 218.5 -28.5t203.5 -73.5l-39 -80q-20 9 -54.5 23t-134.5 37.5t-190 23.5q-129 0 -246 -49.5t-201.5 -134t-134 -202.5t-49.5 -249t49.5 -249t134 -202.5t201.5 -134t246 -49.5q90 0 185 21t145 42l49 21l39 -80q-91 -45 -203.5 -73.5
t-218.5 -28.5z" />
    <glyph glyph-name="Egrave" unicode="&#xc8;" horiz-adv-x="1331" 
d="M217 1434h967v-99h-865v-590h744v-96h-744v-553h900v-96h-1002v1434zM522 1765l101 58l120 -303h-57z" />
    <glyph glyph-name="Eacute" unicode="&#xc9;" horiz-adv-x="1331" 
d="M217 1434h967v-99h-865v-590h744v-96h-744v-553h900v-96h-1002v1434zM739 1823l101 -58l-164 -245h-58z" />
    <glyph glyph-name="Ecircumflex" unicode="&#xca;" horiz-adv-x="1331" 
d="M217 1434h967v-99h-865v-590h744v-96h-744v-553h900v-96h-1002v1434zM530 1520h-84l201 219h76l205 -219h-88l-152 145z" />
    <glyph glyph-name="Edieresis" unicode="&#xcb;" horiz-adv-x="1331" 
d="M217 1434h967v-99h-865v-590h744v-96h-744v-553h900v-96h-1002v1434zM580 1595q0 -33 -23 -54t-61 -21q-34 0 -56 21.5t-22 53.5q0 33 23.5 56.5t54.5 23.5q38 0 61 -22t23 -58zM956 1595q0 -33 -23 -54t-61 -21q-34 0 -55.5 21.5t-21.5 53.5q0 33 23 56.5t54 23.5
q38 0 61 -22t23 -58z" />
    <glyph glyph-name="Igrave" unicode="&#xcc;" horiz-adv-x="534" 
d="M217 1434h102v-1434h-102v1434zM74 1765l100 58l121 -303h-57z" />
    <glyph glyph-name="Iacute" unicode="&#xcd;" horiz-adv-x="534" 
d="M217 1434h102v-1434h-102v1434zM362 1823l101 -58l-164 -245h-57z" />
    <glyph glyph-name="Icircumflex" unicode="&#xce;" horiz-adv-x="534" 
d="M217 1434h102v-1434h-102v1434zM113 1520h-84l200 219h76l203 -219h-86l-154 145z" />
    <glyph glyph-name="Idieresis" unicode="&#xcf;" horiz-adv-x="534" 
d="M217 1434h102v-1434h-102v1434zM160 1595q0 -33 -22.5 -54t-61.5 -21q-33 0 -55.5 21.5t-22.5 53.5q0 33 23.5 56.5t54.5 23.5q39 0 61.5 -22t22.5 -58zM537 1595q0 -33 -22 -54t-60 -21q-34 0 -57 21.5t-23 53.5q0 33 23.5 56.5t56.5 23.5q38 0 60 -22t22 -58z" />
    <glyph glyph-name="Eth" unicode="&#xd0;" horiz-adv-x="1472" 
d="M707 0h-480v686h-192v68h192v680h480q58 0 143.5 -20t175.5 -71q83 -49 145 -118.5t98 -152t53 -170.5t17 -185q0 -202 -76 -368t-237 -259q-154 -90 -319 -90zM330 1335v-581h358v-68h-358v-588h362q150 0 289 82q131 76 193.5 216.5t62.5 320.5q0 181 -63 320t-193 216
q-59 34 -126.5 54t-101.5 24t-61 4h-362z" />
    <glyph glyph-name="Ntilde" unicode="&#xd1;" horiz-adv-x="1497" 
d="M512 1538l-39 29q36 61 90.5 91.5t114.5 20.5q36 -6 102 -40.5t119 -34.5q69 0 117 63l39 -29q-35 -62 -91.5 -92t-117.5 -20q-39 5 -103 40.5t-116 35.5q-27 0 -50 -10.5t-35.5 -22t-29.5 -31.5zM217 1434h105l475 -703l385 -575h2l-6 538v740h102v-1434h-109l-479 717
l-375 561h-4l6 -545v-733h-102v1434z" />
    <glyph glyph-name="Ograve" unicode="&#xd2;" horiz-adv-x="1710" 
d="M666 1765l100 58l123 -303h-58zM125 717q0 201 99 370t266.5 266t363.5 97q199 0 367.5 -98.5t266 -267.5t97.5 -367q0 -201 -98.5 -370t-266.5 -266t-366 -97t-366 98t-265.5 266.5t-97.5 368.5zM231 715q0 -174 82 -319.5t225.5 -229.5t315.5 -84q173 0 317 84
t226 229.5t82 319.5q0 173 -82.5 319t-227 232t-317.5 86q-170 0 -313 -84.5t-225.5 -231t-82.5 -321.5z" />
    <glyph glyph-name="Oacute" unicode="&#xd3;" horiz-adv-x="1710" 
d="M125 717q0 201 99 370t266.5 266t363.5 97q199 0 367.5 -98.5t266 -267.5t97.5 -367q0 -201 -98.5 -370t-266.5 -266t-366 -97t-366 98t-265.5 266.5t-97.5 368.5zM231 715q0 -174 82 -319.5t225.5 -229.5t315.5 -84q173 0 317 84t226 229.5t82 319.5q0 173 -82.5 319
t-227 232t-317.5 86q-170 0 -313 -84.5t-225.5 -231t-82.5 -321.5zM958 1823l101 -58l-164 -245h-57z" />
    <glyph glyph-name="Ocircumflex" unicode="&#xd4;" horiz-adv-x="1710" 
d="M702 1520h-84l201 219h76l203 -219h-86l-154 145zM125 717q0 201 99 370t266.5 266t363.5 97q199 0 367.5 -98.5t266 -267.5t97.5 -367q0 -201 -98.5 -370t-266.5 -266t-366 -97t-366 98t-265.5 266.5t-97.5 368.5zM231 715q0 -174 82 -319.5t225.5 -229.5t315.5 -84
q173 0 317 84t226 229.5t82 319.5q0 173 -82.5 319t-227 232t-317.5 86q-170 0 -313 -84.5t-225.5 -231t-82.5 -321.5z" />
    <glyph glyph-name="Otilde" unicode="&#xd5;" horiz-adv-x="1726" 
d="M604 1538l-39 29q36 61 90.5 91.5t114.5 20.5q36 -6 101.5 -40.5t119.5 -34.5q71 0 115 63l39 -29q-34 -62 -90 -92t-117 -20q-39 5 -104 40.5t-117 35.5q-61 0 -113 -64zM125 717q0 201 99 370t266.5 266t363.5 97q199 0 367.5 -98.5t266 -267.5t97.5 -367
q0 -201 -98.5 -370t-266.5 -266t-366 -97t-366 98t-265.5 266.5t-97.5 368.5zM231 715q0 -174 82 -319.5t225.5 -229.5t315.5 -84q173 0 317 84t226 229.5t82 319.5q0 173 -82.5 319t-227 232t-317.5 86q-170 0 -313 -84.5t-225.5 -231t-82.5 -321.5z" />
    <glyph glyph-name="Odieresis" unicode="&#xd6;" horiz-adv-x="1710" 
d="M1126 1595q0 -33 -22.5 -54t-61.5 -21q-32 0 -54.5 21.5t-22.5 53.5q0 33 23 56.5t54 23.5q39 0 61.5 -22t22.5 -58zM750 1595q0 -33 -23 -54t-61 -21q-34 0 -56 21.5t-22 53.5q0 33 23.5 56.5t54.5 23.5q38 0 61 -22t23 -58zM125 717q0 201 99 370t266.5 266t363.5 97
q199 0 367.5 -98.5t266 -267.5t97.5 -367q0 -201 -98.5 -370t-266.5 -266t-366 -97t-366 98t-265.5 266.5t-97.5 368.5zM231 715q0 -174 82 -319.5t225.5 -229.5t315.5 -84q173 0 317 84t226 229.5t82 319.5q0 173 -82.5 319t-227 232t-317.5 86q-170 0 -313 -84.5
t-225.5 -231t-82.5 -321.5z" />
    <glyph glyph-name="multiply" unicode="&#xd7;" horiz-adv-x="915" 
d="M221 944l236 -233l237 237l49 -51l-235 -238l233 -231l-49 -53l-235 235l-234 -235l-51 53l234 231l-234 236z" />
    <glyph glyph-name="Oslash" unicode="&#xd8;" horiz-adv-x="1712" 
d="M125 717q0 201 99 370t266.5 266t363.5 97q199 0 371 -104l94 145h76l-117 -180q142 -102 224.5 -257.5t82.5 -336.5q0 -201 -98.5 -370t-266.5 -266t-366 -97q-200 0 -365 98l-92 -143h-78l115 178q-143 100 -226 258.5t-83 341.5zM231 715q0 -159 68 -294t188 -222
l684 1063q-154 90 -319 90q-170 0 -313 -84.5t-225.5 -231t-82.5 -321.5zM1479 715q0 154 -68 288t-186 224l-684 -1063q142 -82 313 -82q173 0 317 84t226 229.5t82 319.5z" />
    <glyph glyph-name="Ugrave" unicode="&#xd9;" horiz-adv-x="1464" 
d="M205 1434h100v-969q0 -94 58 -178.5t157.5 -136.5t212.5 -52t212.5 52t157.5 136.5t58 178.5v969h101v-842q0 -74 -7 -170q-12 -178 -163.5 -300t-358.5 -122t-358.5 122t-163.5 300q-6 82 -6 170v842zM586 1765l100 58l121 -303h-57z" />
    <glyph glyph-name="Uacute" unicode="&#xda;" horiz-adv-x="1464" 
d="M205 1434h100v-969q0 -94 58 -178.5t157.5 -136.5t212.5 -52t212.5 52t157.5 136.5t58 178.5v969h101v-842q0 -74 -7 -170q-12 -178 -163.5 -300t-358.5 -122t-358.5 122t-163.5 300q-6 82 -6 170v842zM758 1823l100 -58l-164 -245h-57z" />
    <glyph glyph-name="Ucircumflex" unicode="&#xdb;" horiz-adv-x="1464" 
d="M205 1434h100v-969q0 -144 127.5 -255.5t300.5 -111.5q112 0 211.5 52t158 136.5t58.5 178.5v969h101v-842q0 -74 -7 -170q-12 -178 -164 -300t-358 -122q-137 0 -254.5 55.5t-188.5 152.5t-79 214q-6 82 -6 170v842zM578 1520h-84l200 219h76l205 -219h-88l-152 145z
" />
    <glyph glyph-name="Udieresis" unicode="&#xdc;" horiz-adv-x="1464" 
d="M205 1434h100v-969q0 -144 127.5 -255.5t300.5 -111.5q112 0 211.5 52t158 136.5t58.5 178.5v969h101v-842q0 -74 -7 -170q-12 -178 -164 -300t-358 -122q-137 0 -254.5 55.5t-188.5 152.5t-79 214q-6 82 -6 170v842zM625 1595q0 -33 -22 -54t-60 -21q-34 0 -57 21.5
t-23 53.5q0 33 23.5 56.5t56.5 23.5q38 0 60 -22t22 -58zM1004 1595q0 -33 -23 -54t-61 -21q-34 0 -56 21.5t-22 53.5q0 33 23.5 56.5t54.5 23.5q38 0 61 -22t23 -58z" />
    <glyph glyph-name="Yacute" unicode="&#xdd;" horiz-adv-x="1189" 
d="M637 1823l100 -58l-166 -245h-57zM643 0h-98v588l-510 846h112l445 -750h4l444 750h113l-510 -846v-588z" />
    <glyph glyph-name="Thorn" unicode="&#xde;" horiz-adv-x="1298" 
d="M217 1434h102v-285h490q163 0 282 -127.5t119 -292.5q0 -107 -52.5 -204t-144 -157.5t-196.5 -60.5h-498v-307h-102v1434zM319 1051v-648h490q122 0 210.5 99t88.5 225q0 135 -95 229.5t-227 94.5h-467z" />
    <glyph glyph-name="germandbls" unicode="&#xdf;" horiz-adv-x="1222" 
d="M569 1450q169 0 275 -97t106 -266q0 -56 -17.5 -103.5t-42 -81t-49 -65t-42 -69.5t-17.5 -80q0 -41 37 -78.5t89 -71.5t104.5 -73t89.5 -99t37 -133q0 -162 -106 -257t-273 -95q-154 0 -285 91q-1 1 -2 1.5t-2 1.5l37 80l7 -4q7 -4 14.5 -7.5t20 -9.5t26 -11t30 -11
t34.5 -11t37.5 -9t41.5 -6t43 -2q116 0 195 66t79 183q0 46 -19.5 85t-51 66.5t-69.5 53t-76 50.5t-69.5 52t-51 64t-19.5 80q0 47 17.5 89.5t42 75.5t49 66.5t42 76t17.5 89.5q0 31 -6 63t-25 70t-48.5 66.5t-82 48t-119.5 19.5q-29 0 -60 -6t-73.5 -28t-74.5 -57.5
t-55 -102.5t-23 -155v-999h-103v1018q0 106 29 187t71.5 126t98.5 73.5t101.5 37t90.5 8.5z" />
    <glyph glyph-name="agrave" unicode="&#xe0;" horiz-adv-x="1157" 
d="M428 1438l100 57l121 -303h-57zM193 1024q195 57 374 57q201 0 296 -79.5t95 -260.5v-600q0 -49 60 -49q6 0 76 4v-82q-49 -14 -109 -14q-48 0 -83.5 27.5t-35.5 85.5v90q-44 -100 -152 -159.5t-243 -59.5q-77 0 -144.5 19.5t-122.5 58.5t-86.5 105.5t-31.5 154.5
q0 84 37 146.5t101.5 98.5t143.5 53t171 17q44 0 91 -3t85.5 -7.5t68.5 -8.5t52.5 -8t23.5 -4v127q0 145 -79 202.5t-230 57.5q-190 0 -336 -47zM860 524q-165 33 -313 33q-70 0 -130 -10.5t-116 -35t-88.5 -73t-32.5 -116.5q0 -86 45 -144.5t111 -83t147 -24.5
q147 0 262 96.5t115 224.5v133z" />
    <glyph glyph-name="aacute" unicode="&#xe1;" horiz-adv-x="1157" 
d="M645 1495l100 -57l-163 -246h-58zM193 1024q195 57 374 57q201 0 296 -79.5t95 -260.5v-600q0 -49 60 -49q6 0 76 4v-82q-49 -14 -109 -14q-48 0 -83.5 27.5t-35.5 85.5v90q-44 -100 -152 -159.5t-243 -59.5q-77 0 -144.5 19.5t-122.5 58.5t-86.5 105.5t-31.5 154.5
q0 84 37 146.5t101.5 98.5t143.5 53t171 17q44 0 91 -3t85.5 -7.5t68.5 -8.5t52.5 -8t23.5 -4v127q0 145 -79 202.5t-230 57.5q-190 0 -336 -47zM860 524q-165 33 -313 33q-70 0 -130 -10.5t-116 -35t-88.5 -73t-32.5 -116.5q0 -86 45 -144.5t111 -83t147 -24.5
q147 0 262 96.5t115 224.5v133z" />
    <glyph glyph-name="acircumflex" unicode="&#xe2;" horiz-adv-x="1157" 
d="M418 1192h-84l201 219h75l203 -219h-86l-154 145zM193 1024q195 57 374 57q201 0 296 -79.5t95 -260.5v-600q0 -49 60 -49q6 0 76 4v-82q-49 -14 -109 -14q-48 0 -83.5 27.5t-35.5 85.5v90q-44 -100 -152 -159.5t-243 -59.5q-77 0 -144.5 19.5t-122.5 58.5t-86.5 105.5
t-31.5 154.5q0 84 37 146.5t101.5 98.5t143.5 53t171 17q44 0 91 -3t85.5 -7.5t68.5 -8.5t52.5 -8t23.5 -4v127q0 145 -79 202.5t-230 57.5q-190 0 -336 -47zM860 524q-165 33 -313 33q-70 0 -130 -10.5t-116 -35t-88.5 -73t-32.5 -116.5q0 -86 45 -144.5t111 -83t147 -24.5
q147 0 262 96.5t115 224.5v133z" />
    <glyph glyph-name="atilde" unicode="&#xe3;" horiz-adv-x="1157" 
d="M283 1210l-39 29q31 54 76.5 84.5t97.5 30.5q50 0 124 -39t128 -39q68 0 116 63l39 -28q-31 -54 -78.5 -84.5t-101.5 -30.5q-51 0 -124 39t-126 39q-26 0 -48.5 -10.5t-34 -22t-29.5 -31.5zM193 1024q195 57 374 57q201 0 296 -79.5t95 -260.5v-600q0 -49 60 -49
q6 0 76 4v-82q-49 -14 -109 -14q-48 0 -83.5 27.5t-35.5 85.5v90q-44 -100 -152 -159.5t-243 -59.5q-77 0 -144.5 19.5t-122.5 58.5t-86.5 105.5t-31.5 154.5q0 84 37 146.5t101.5 98.5t143.5 53t171 17q44 0 91 -3t85.5 -7.5t68.5 -8.5t52.5 -8t23.5 -4v127
q0 145 -79 202.5t-230 57.5q-190 0 -336 -47zM860 524q-165 33 -313 33q-70 0 -130 -10.5t-116 -35t-88.5 -73t-32.5 -116.5q0 -86 45 -144.5t111 -83t147 -24.5q147 0 262 96.5t115 224.5v133z" />
    <glyph glyph-name="adieresis" unicode="&#xe4;" horiz-adv-x="1157" 
d="M461 1268q0 -33 -22.5 -54.5t-59.5 -21.5q-34 0 -57 22t-23 54q0 33 23.5 56.5t56.5 23.5q38 0 60 -22t22 -58zM840 1268q0 -33 -23 -54.5t-61 -21.5q-34 0 -56 22t-22 54q0 33 23.5 56.5t54.5 23.5q38 0 61 -22t23 -58zM193 1024q195 57 374 57q201 0 296 -79.5
t95 -260.5v-600q0 -49 60 -49q6 0 76 4v-82q-49 -14 -109 -14q-48 0 -83.5 27.5t-35.5 85.5v90q-44 -100 -152 -159.5t-243 -59.5q-77 0 -144.5 19.5t-122.5 58.5t-86.5 105.5t-31.5 154.5q0 84 37 146.5t101.5 98.5t143.5 53t171 17q44 0 91 -3t85.5 -7.5t68.5 -8.5
t52.5 -8t23.5 -4v127q0 145 -79 202.5t-230 57.5q-190 0 -336 -47zM860 524q-165 33 -313 33q-70 0 -130 -10.5t-116 -35t-88.5 -73t-32.5 -116.5q0 -86 45 -144.5t111 -83t147 -24.5q147 0 262 96.5t115 224.5v133z" />
    <glyph glyph-name="aring" unicode="&#xe5;" horiz-adv-x="1157" 
d="M406 1354q0 70 49.5 116t117.5 46t118 -46t50 -116t-50 -116t-118 -46t-117.5 46t-49.5 116zM692 1354q0 48 -35.5 79t-83.5 31q-47 0 -82.5 -31t-35.5 -79t35.5 -79.5t82.5 -31.5t83 31.5t36 79.5zM193 1024q195 57 374 57q201 0 296 -79.5t95 -260.5v-600q0 -49 60 -49
q6 0 76 4v-82q-49 -14 -109 -14q-48 0 -83.5 27.5t-35.5 85.5v90q-44 -100 -152 -159.5t-243 -59.5q-77 0 -144.5 19.5t-122.5 58.5t-86.5 105.5t-31.5 154.5q0 84 37 146.5t101.5 98.5t143.5 53t171 17q44 0 91 -3t85.5 -7.5t68.5 -8.5t52.5 -8t23.5 -4v127
q0 145 -79 202.5t-230 57.5q-190 0 -336 -47zM860 524q-165 33 -313 33q-70 0 -130 -10.5t-116 -35t-88.5 -73t-32.5 -116.5q0 -86 45 -144.5t111 -83t147 -24.5q147 0 262 96.5t115 224.5v133z" />
    <glyph glyph-name="ae" unicode="&#xe6;" horiz-adv-x="1927" 
d="M567 1081q157 0 249 -48.5t124 -153.5q72 95 177.5 148.5t230.5 53.5q111 0 204.5 -45.5t153.5 -121t93.5 -171t33.5 -196.5l-4 -53h-899q9 -177 133.5 -295.5t312.5 -118.5q154 0 334 80l37 -84q-189 -92 -371 -92q-152 0 -272.5 67t-196.5 185q-74 -124 -187 -188
t-249 -64q-77 0 -144.5 19.5t-122.5 58.5t-86.5 105.5t-31.5 154.5q0 84 37 146.5t101.5 98.5t143.5 53t171 17q111 0 290 -27q8 60 31 123q0 145 -79 202.5t-230 57.5q-190 0 -336 -47l-22 78q195 57 374 57zM483 70q133 0 242 80.5t131 195.5q-31 88 -31 184
q-186 27 -278 27q-70 0 -130 -10.5t-116 -35t-88.5 -73t-32.5 -116.5q0 -86 45 -144.5t111 -83t147 -24.5zM928 571h805q0 74 -25.5 146.5t-71.5 132.5t-120.5 97.5t-163.5 37.5q-170 0 -292.5 -121t-131.5 -293z" />
    <glyph glyph-name="ccedilla" unicode="&#xe7;" horiz-adv-x="1069" 
d="M657 -16q-20 0 -36 2l-29 -113q13 4 31 4q66 0 104.5 -37.5t38.5 -95.5q0 -70 -50.5 -110t-119.5 -40q-72 0 -135 37l16 47q56 -20 107 -20q49 0 79.5 24.5t30.5 63.5q0 37 -28.5 60.5t-73.5 23.5q-25 0 -37 -4l-35 33l49 133q-198 31 -329 184.5t-131 355.5
q0 110 43 211.5t116 175.5t175 118t214 44q175 0 318 -67l-37 -78l-8 3q-7 3 -20.5 7.5t-31.5 10t-41.5 11.5t-49.5 10.5t-57 7.5t-62 3q-130 0 -235.5 -65t-162.5 -169.5t-57 -222.5t57 -222t162.5 -169t235.5 -65q31 0 62 3t57 7.5t49.5 10t41.5 11.5l31.5 10.5t20.5 7.5
l8 3l37 -78q-143 -67 -318 -67z" />
    <glyph glyph-name="egrave" unicode="&#xe8;" horiz-adv-x="1212" 
d="M485 1438l101 57l121 -303h-58zM111 532q0 147 67 273t187.5 201t267.5 75q111 0 204.5 -45.5t153.5 -121t93.5 -171t33.5 -196.5l-4 -53h-897q9 -177 133 -295.5t312 -118.5q153 0 333 80l37 -84q-189 -92 -370 -92q-161 0 -288.5 75.5t-195 200t-67.5 272.5zM217 571
h801q0 74 -25.5 146.5t-71.5 132.5t-120.5 97.5t-163.5 37.5q-170 0 -290.5 -121t-129.5 -293z" />
    <glyph glyph-name="eacute" unicode="&#xe9;" horiz-adv-x="1212" 
d="M705 1495l100 -57l-164 -246h-57zM111 532q0 147 67 273t187.5 201t267.5 75q111 0 204.5 -45.5t153.5 -121t93.5 -171t33.5 -196.5l-4 -53h-897q9 -177 133 -295.5t312 -118.5q153 0 333 80l37 -84q-189 -92 -370 -92q-161 0 -288.5 75.5t-195 200t-67.5 272.5zM217 571
h801q0 74 -25.5 146.5t-71.5 132.5t-120.5 97.5t-163.5 37.5q-170 0 -290.5 -121t-129.5 -293z" />
    <glyph glyph-name="ecircumflex" unicode="&#xea;" horiz-adv-x="1212" 
d="M481 1194h-84l201 219h76l205 -219h-88l-152 143zM111 532q0 147 67 273t187.5 201t267.5 75q111 0 204.5 -45.5t153.5 -121t93.5 -171t33.5 -196.5l-4 -53h-897q9 -177 133 -295.5t312 -118.5q153 0 333 80l37 -84q-189 -92 -370 -92q-161 0 -288.5 75.5t-195 200
t-67.5 272.5zM217 571h801q0 74 -25.5 146.5t-71.5 132.5t-120.5 97.5t-163.5 37.5q-170 0 -290.5 -121t-129.5 -293z" />
    <glyph glyph-name="edieresis" unicode="&#xeb;" horiz-adv-x="1212" 
d="M526 1268q0 -33 -23 -54.5t-61 -21.5q-34 0 -55.5 22t-21.5 54q0 33 23 56.5t54 23.5q38 0 61 -22t23 -58zM903 1268q0 -33 -23 -54.5t-61 -21.5q-34 0 -56 22t-22 54q0 33 23.5 56.5t54.5 23.5q38 0 61 -22t23 -58zM111 532q0 147 67 273t187.5 201t267.5 75
q111 0 204.5 -45.5t153.5 -121t93.5 -171t33.5 -196.5l-4 -53h-897q9 -177 133 -295.5t312 -118.5q153 0 333 80l37 -84q-189 -92 -370 -92q-161 0 -288.5 75.5t-195 200t-67.5 272.5zM217 571h801q0 74 -25.5 146.5t-71.5 132.5t-120.5 97.5t-163.5 37.5
q-170 0 -290.5 -121t-129.5 -293z" />
    <glyph glyph-name="igrave" unicode="&#xec;" horiz-adv-x="475" 
d="M90 1065h207v-1065h-100v969l-107 26v70zM31 1438l100 57l121 -303h-57z" />
    <glyph glyph-name="iacute" unicode="&#xed;" horiz-adv-x="475" 
d="M90 1065h207v-1065h-100v969l-107 26v70zM303 1495l100 -57l-163 -246h-58z" />
    <glyph glyph-name="icircumflex" unicode="&#xee;" horiz-adv-x="475" 
d="M90 1065h207v-1065h-100v969l-107 26v70zM45 1192h-84l201 219h76l204 -219h-88l-151 145z" />
    <glyph glyph-name="idieresis" unicode="&#xef;" horiz-adv-x="475" 
d="M90 1065h207v-1065h-100v969l-107 26v70zM84 1268q0 -33 -23 -54.5t-61 -21.5q-34 0 -56 22t-22 54q0 33 23.5 56.5t54.5 23.5q38 0 61 -22t23 -58zM461 1268q0 -33 -22.5 -54.5t-61.5 -21.5q-32 0 -55 22t-23 54q0 33 23.5 56.5t54.5 23.5q39 0 61.5 -22t22.5 -58z" />
    <glyph glyph-name="eth" unicode="&#xf0;" horiz-adv-x="1159" 
d="M422 1477q172 -64 305 -166l186 127l29 -39l-176 -121q84 -76 144 -172t90 -194.5t42.5 -184.5t12.5 -172q0 -253 -126.5 -404t-336.5 -151q-139 0 -243.5 62t-158 165.5t-53.5 231.5q0 202 128.5 327t316.5 125q120 0 220 -57t150 -162h2q-14 167 -77 306t-175 235
l-204 -135l-29 41l197 131q-113 89 -271 155zM590 827q-164 0 -264.5 -107t-100.5 -263q0 -155 99.5 -262t267.5 -107q156 0 257 110.5t101 268.5q0 163 -104 261.5t-256 98.5z" />
    <glyph glyph-name="ntilde" unicode="&#xf1;" horiz-adv-x="1245" 
d="M385 1210l-39 29q36 61 90.5 92t114.5 21q36 -6 102 -41t119 -35q69 0 117 63l39 -28q-36 -62 -92 -92.5t-117 -20.5q-39 5 -103 40.5t-116 35.5q-27 0 -50 -10.5t-35.5 -22t-29.5 -31.5zM180 1065h78l18 -240q5 23 21.5 53.5t50 66.5t77 66t109 50t138.5 20
q195 0 300 -120t105 -338v-623h-102v625q0 167 -82 262.5t-236 95.5q-75 0 -138.5 -25t-106 -65.5t-72.5 -93t-43.5 -106t-13.5 -105.5v-588h-103v1065z" />
    <glyph glyph-name="ograve" unicode="&#xf2;" horiz-adv-x="1310" 
d="M477 1438l101 57l120 -303h-57zM111 532q0 113 43 215t115.5 175t173 116t210.5 43q112 0 213 -42.5t174.5 -115.5t116.5 -175t43 -216q0 -228 -160 -388t-387 -160q-147 0 -272 73t-197.5 199t-72.5 276zM653 989q-184 0 -312 -133t-128 -324q0 -123 58 -228
t159.5 -166.5t222.5 -61.5q185 0 315 134t130 322q0 191 -129.5 324t-315.5 133z" />
    <glyph glyph-name="oacute" unicode="&#xf3;" horiz-adv-x="1310" 
d="M725 1495l100 -57l-166 -246h-57zM111 532q0 113 43 215t115.5 175t173 116t210.5 43q112 0 213 -42.5t174.5 -115.5t116.5 -175t43 -216q0 -228 -160 -388t-387 -160q-147 0 -272 73t-197.5 199t-72.5 276zM653 989q-184 0 -312 -133t-128 -324q0 -123 58 -228
t159.5 -166.5t222.5 -61.5q185 0 315 134t130 322q0 191 -129.5 324t-315.5 133z" />
    <glyph glyph-name="ocircumflex" unicode="&#xf4;" horiz-adv-x="1310" 
d="M500 1192h-84l200 219h76l203 -219h-86l-154 145zM111 532q0 113 43 215t115.5 175t173 116t210.5 43q112 0 213 -42.5t174.5 -115.5t116.5 -175t43 -216q0 -228 -160 -388t-387 -160q-147 0 -272 73t-197.5 199t-72.5 276zM653 989q-184 0 -312 -133t-128 -324
q0 -123 58 -228t159.5 -166.5t222.5 -61.5q185 0 315 134t130 322q0 191 -129.5 324t-315.5 133z" />
    <glyph glyph-name="otilde" unicode="&#xf5;" horiz-adv-x="1310" 
d="M403 1210l-38 29q36 62 90 92.5t114 20.5q36 -6 102 -41t120 -35q70 0 114 63l39 -28q-34 -62 -90 -92.5t-117 -20.5q-39 5 -104 40.5t-117 35.5q-61 0 -113 -64zM111 532q0 113 43 215t115.5 175t173 116t210.5 43q112 0 213 -42.5t174.5 -115.5t116.5 -175t43 -216
q0 -228 -160 -388t-387 -160q-147 0 -272 73t-197.5 199t-72.5 276zM653 989q-184 0 -312 -133t-128 -324q0 -123 58 -228t159.5 -166.5t222.5 -61.5q185 0 315 134t130 322q0 191 -129.5 324t-315.5 133z" />
    <glyph glyph-name="odieresis" unicode="&#xf6;" horiz-adv-x="1310" 
d="M924 1268q0 -33 -22.5 -54.5t-61.5 -21.5q-32 0 -55 22t-23 54q0 33 23.5 56.5t54.5 23.5q39 0 61.5 -22t22.5 -58zM547 1268q0 -33 -23 -54.5t-61 -21.5q-34 0 -56 22t-22 54q0 33 23.5 56.5t54.5 23.5q38 0 61 -22t23 -58zM111 532q0 113 43 215t115.5 175t173 116
t210.5 43q112 0 213 -42.5t174.5 -115.5t116.5 -175t43 -216q0 -228 -160 -388t-387 -160q-147 0 -272 73t-197.5 199t-72.5 276zM653 989q-184 0 -312 -133t-128 -324q0 -123 58 -228t159.5 -166.5t222.5 -61.5q185 0 315 134t130 322q0 191 -129.5 324t-315.5 133z" />
    <glyph glyph-name="divide" unicode="&#xf7;" horiz-adv-x="1179" 
d="M592 1057q34 0 59 -25.5t25 -60.5q0 -36 -25 -62t-59 -26q-36 0 -62 24.5t-26 63.5q0 35 25.5 60.5t62.5 25.5zM170 686h840v-78h-840v78zM592 412q34 0 59 -25.5t25 -60.5t-25 -60.5t-59 -25.5q-37 0 -62.5 23.5t-25.5 62.5q0 37 25.5 61.5t62.5 24.5z" />
    <glyph glyph-name="oslash" unicode="&#xf8;" horiz-adv-x="1310" 
d="M111 532q0 113 43 215t115.5 175t173 116t210.5 43q147 0 273 -71l84 129h67l-104 -160q105 -75 166 -192.5t61 -254.5q0 -228 -160 -388t-387 -160q-148 0 -272 73l-80 -125h-68l101 156q-103 75 -163 191.5t-60 252.5zM1098 532q0 110 -47 205t-129 160l-490 -760
q99 -61 221 -61q185 0 315 134t130 322zM653 989q-184 0 -312 -133t-128 -324q0 -108 46 -203t126 -159l489 760q-105 59 -221 59z" />
    <glyph glyph-name="ugrave" unicode="&#xf9;" horiz-adv-x="1245" 
d="M444 1438l101 57l121 -303h-58zM168 1065h102v-625q0 -172 81.5 -265t266.5 -93q140 0 243.5 103t103.5 245v635h102v-1065h-78l-16 207q-54 -111 -152 -167t-219 -56q-218 0 -326 114t-108 328v639z" />
    <glyph glyph-name="uacute" unicode="&#xfa;" horiz-adv-x="1245" 
d="M674 1495l100 -57l-166 -246h-57zM168 1065h102v-625q0 -172 81.5 -265t266.5 -93q140 0 243.5 103t103.5 245v635h102v-1065h-78l-16 207q-54 -111 -152 -167t-219 -56q-218 0 -326 114t-108 328v639z" />
    <glyph glyph-name="ucircumflex" unicode="&#xfb;" horiz-adv-x="1245" 
d="M469 1192h-84l201 219h76l202 -219h-86l-153 145zM168 1065h102v-625q0 -172 81.5 -265t266.5 -93q140 0 243.5 103t103.5 245v635h102v-1065h-78l-16 207q-54 -111 -152 -167t-219 -56q-218 0 -326 114t-108 328v639z" />
    <glyph glyph-name="udieresis" unicode="&#xfc;" horiz-adv-x="1245" 
d="M885 1268q0 -33 -22.5 -54.5t-61.5 -21.5q-32 0 -55 22t-23 54q0 33 23.5 56.5t54.5 23.5q39 0 61.5 -22t22.5 -58zM508 1268q0 -33 -23 -54.5t-61 -21.5q-34 0 -56 22t-22 54q0 33 23.5 56.5t54.5 23.5q38 0 61 -22t23 -58zM168 1065h102v-625q0 -172 81.5 -265
t266.5 -93q140 0 243.5 103t103.5 245v635h102v-1065h-78l-16 207q-54 -111 -152 -167t-219 -56q-218 0 -326 114t-108 328v639z" />
    <glyph glyph-name="yacute" unicode="&#xfd;" horiz-adv-x="1044" 
d="M45 1065h107l368 -950h4l367 950h108l-436 -1094q-18 -45 -31 -73.5t-35 -71t-44 -69t-51.5 -53t-66 -39.5t-77.5 -13q-73 0 -168 31l23 92q77 -25 139 -25q35 0 65.5 16t51.5 38t41.5 59.5t32.5 66t28 72.5zM569 1495l101 -57l-164 -246h-57z" />
    <glyph glyph-name="thorn" unicode="&#xfe;" horiz-adv-x="1323" 
d="M688 989q-177 0 -297.5 -132.5t-120.5 -324.5q0 -195 121 -325.5t297 -130.5q178 0 300 132.5t122 323.5q0 192 -122 324.5t-300 132.5zM698 1081q146 0 264.5 -74.5t184 -199.5t65.5 -275q0 -146 -63.5 -270.5t-182.5 -201t-268 -76.5q-88 0 -170 28.5t-149.5 87.5
t-97.5 140v-588h-103v1784h96v-621q39 89 112 151.5t152 88.5t160 26z" />
    <glyph glyph-name="ydieresis" unicode="&#xff;" horiz-adv-x="1044" 
d="M45 1065h107l368 -950h4l367 950h108l-436 -1094q-18 -45 -31 -73.5t-35 -71t-44 -69t-51.5 -53t-66 -39.5t-77.5 -13q-73 0 -168 31l23 92q77 -25 139 -25q35 0 65.5 16t51.5 38t41.5 59.5t32.5 66t28 72.5zM414 1268q0 -33 -22.5 -54.5t-61.5 -21.5q-32 0 -55 22
t-23 54q0 33 23.5 56.5t54.5 23.5q39 0 61.5 -22t22.5 -58zM791 1268q0 -33 -22.5 -54.5t-59.5 -21.5q-34 0 -57 22t-23 54q0 33 23.5 56.5t56.5 23.5q38 0 60 -22t22 -58z" />
    <glyph glyph-name="Amacron" unicode="&#x100;" horiz-adv-x="1323" 
d="M362 1593h599v-73h-599v73zM606 1450h111l553 -1450h-109l-153 408h-693l-153 -408h-109zM662 1343l-316 -849h631z" />
    <glyph glyph-name="amacron" unicode="&#x101;" horiz-adv-x="1157" 
d="M266 1266h600v-74h-600v74zM193 1024q195 57 374 57q201 0 296 -79.5t95 -260.5v-600q0 -49 60 -49q6 0 76 4v-82q-49 -14 -109 -14q-48 0 -83.5 27.5t-35.5 85.5v90q-44 -100 -152 -159.5t-243 -59.5q-77 0 -144.5 19.5t-122.5 58.5t-86.5 105.5t-31.5 154.5
q0 84 37 146.5t101.5 98.5t143.5 53t171 17q44 0 91 -3t85.5 -7.5t68.5 -8.5t52.5 -8t23.5 -4v127q0 145 -79 202.5t-230 57.5q-190 0 -336 -47zM860 524q-165 33 -313 33q-70 0 -130 -10.5t-116 -35t-88.5 -73t-32.5 -116.5q0 -86 45 -144.5t111 -83t147 -24.5
q147 0 262 96.5t115 224.5v133z" />
    <glyph glyph-name="Abreve" unicode="&#x102;" horiz-adv-x="1323" 
d="M424 1729h55q17 -46 37 -73.5t56.5 -45t91.5 -17.5q78 0 116.5 32t61.5 104h59q-16 -105 -71 -157t-166 -52q-113 0 -167.5 51t-72.5 158zM606 1450h111l553 -1450h-109l-153 408h-693l-153 -408h-109zM662 1343l-316 -849h631z" />
    <glyph glyph-name="abreve" unicode="&#x103;" horiz-adv-x="1157" 
d="M328 1401h57q26 -70 64.5 -102.5t117.5 -32.5q78 0 118 32t63 103h57q-16 -105 -71 -157t-167 -52t-166.5 51t-72.5 158zM193 1024q195 57 374 57q201 0 296 -79.5t95 -260.5v-600q0 -49 60 -49q6 0 76 4v-82q-49 -14 -109 -14q-48 0 -83.5 27.5t-35.5 85.5v90
q-44 -100 -152 -159.5t-243 -59.5q-77 0 -144.5 19.5t-122.5 58.5t-86.5 105.5t-31.5 154.5q0 84 37 146.5t101.5 98.5t143.5 53t171 17q44 0 91 -3t85.5 -7.5t68.5 -8.5t52.5 -8t23.5 -4v127q0 145 -79 202.5t-230 57.5q-190 0 -336 -47zM860 524q-165 33 -313 33
q-70 0 -130 -10.5t-116 -35t-88.5 -73t-32.5 -116.5q0 -86 45 -144.5t111 -83t147 -24.5q147 0 262 96.5t115 224.5v133z" />
    <glyph glyph-name="Aogonek" unicode="&#x104;" horiz-adv-x="1323" 
d="M606 1450h111l553 -1450h-21q-135 -50 -135 -150q0 -43 25 -63t59 -20q35 0 84 14l18 -60q-58 -30 -100 -30q-61 0 -105 27t-51 87q-6 40 9 82q22 71 123 113h-15l-153 408h-693l-153 -408h-109zM662 1343l-316 -849h631z" />
    <glyph glyph-name="aogonek" unicode="&#x105;" horiz-adv-x="1157" 
d="M193 1024q195 57 374 57q201 0 296 -79.5t95 -260.5v-600q0 -49 60 -49q6 0 76 4v-82q-49 -14 -107 -14q-135 -50 -135 -150q0 -43 25 -63t59 -20q35 0 84 14l18 -60q-40 -23 -90 -30q-73 -6 -122.5 30.5t-49.5 108.5q0 62 39.5 109.5t106.5 74.5q-56 27 -56 99v90
q-44 -100 -152 -159.5t-243 -59.5q-77 0 -144.5 19.5t-122.5 58.5t-86.5 105.5t-31.5 154.5q0 84 37 146.5t101.5 98.5t143.5 53t171 17q44 0 91 -3t85.5 -7.5t68.5 -8.5t52.5 -8t23.5 -4v127q0 145 -79 202.5t-230 57.5q-190 0 -336 -47zM860 524q-165 33 -313 33
q-70 0 -130 -10.5t-116 -35t-88.5 -73t-32.5 -116.5q0 -86 45 -144.5t111 -83t147 -24.5q147 0 262 96.5t115 224.5v133z" />
    <glyph glyph-name="Cacute" unicode="&#x106;" horiz-adv-x="1390" 
d="M911 1823l101 -58l-164 -245h-57zM858 -16q-197 0 -366 98.5t-268 267.5t-99 367t99 367t268 267.5t366 98.5q106 0 218.5 -28.5t203.5 -73.5l-39 -80q-20 9 -54.5 23t-134.5 37.5t-190 23.5q-129 0 -246 -49.5t-201.5 -134t-134 -202.5t-49.5 -249t49.5 -249t134 -202.5
t201.5 -134t246 -49.5q90 0 185 21t145 42l49 21l39 -80q-91 -45 -203.5 -73.5t-218.5 -28.5z" />
    <glyph glyph-name="cacute" unicode="&#x107;" horiz-adv-x="1069" 
d="M707 1495l100 -57l-164 -246h-57zM657 -16q-112 0 -214 44t-175 117.5t-116 175t-43 211.5t43 211.5t116 175.5t175 118t214 44q175 0 318 -67l-37 -78l-8 3q-7 3 -20.5 7.5t-31.5 10t-41.5 11.5t-49.5 10.5t-57 7.5t-62 3q-130 0 -235.5 -65t-162.5 -169.5t-57 -222.5
t57 -222t162.5 -169t235.5 -65q31 0 62 3t57 7.5t49.5 10t41.5 11.5l31.5 10.5t20.5 7.5l8 3l37 -78q-143 -67 -318 -67z" />
    <glyph glyph-name="Ccircumflex" unicode="&#x108;" horiz-adv-x="1390" 
d="M707 1520h-84l200 219h76l203 -219h-86l-154 145zM858 -16q-197 0 -366 98.5t-268 267.5t-99 367t99 367t268 267.5t366 98.5q106 0 218.5 -28.5t203.5 -73.5l-39 -80q-20 9 -54.5 23t-134.5 37.5t-190 23.5q-129 0 -246 -49.5t-201.5 -134t-134 -202.5t-49.5 -249
t49.5 -249t134 -202.5t201.5 -134t246 -49.5q90 0 185 21t145 42l49 21l39 -80q-91 -45 -203.5 -73.5t-218.5 -28.5z" />
    <glyph glyph-name="ccircumflex" unicode="&#x109;" horiz-adv-x="1069" 
d="M506 1192h-84l201 219h75l203 -219h-86l-153 145zM657 1081q175 0 318 -67l-37 -78l-8 3q-7 3 -20.5 7.5t-31.5 10t-41.5 11.5t-49.5 10.5t-57 7.5t-62 3q-130 0 -235.5 -65t-162.5 -169.5t-57 -222.5q0 -119 57.5 -223t163 -168.5t232.5 -64.5q28 0 56 2t51 6t45.5 8.5
t39 9t32 9.5t25 8.5t16.5 6.5l7 3l33 -78q-43 -28 -136 -47.5t-180 -19.5q-111 0 -212 44t-174 117.5t-116.5 175t-43.5 211.5t43 211.5t116 175.5t175 118t214 44z" />
    <glyph glyph-name="Cdotaccent" unicode="&#x10a;" horiz-adv-x="1390" 
d="M940 1597q0 -33 -22.5 -55t-61.5 -22q-35 0 -57.5 22t-22.5 55q0 35 23.5 58.5t56.5 23.5q39 0 61.5 -22.5t22.5 -59.5zM858 -16q-197 0 -366 98.5t-268 267.5t-99 367t99 367t268 267.5t366 98.5q106 0 218.5 -28.5t203.5 -73.5l-39 -80q-20 9 -54.5 23t-134.5 37.5
t-190 23.5q-129 0 -246 -49.5t-201.5 -134t-134 -202.5t-49.5 -249t49.5 -249t134 -202.5t201.5 -134t246 -49.5q90 0 185 21t145 42l49 21l39 -80q-91 -45 -203.5 -73.5t-218.5 -28.5z" />
    <glyph glyph-name="cdotaccent" unicode="&#x10b;" horiz-adv-x="1069" 
d="M750 1270q0 -33 -23.5 -55.5t-62.5 -22.5q-34 0 -57 23t-23 55q0 35 23.5 58.5t56.5 23.5q39 0 62.5 -22.5t23.5 -59.5zM657 1081q175 0 318 -67l-37 -78l-8 3q-7 3 -20.5 7.5t-31.5 10t-41.5 11.5t-49.5 10.5t-57 7.5t-62 3q-130 0 -235.5 -65t-162.5 -169.5t-57 -222.5
q0 -119 57.5 -223t163 -168.5t232.5 -64.5q28 0 56 2t51 6t45.5 8.5t39 9t32 9.5t25 8.5t16.5 6.5l7 3l33 -78q-43 -28 -136 -47.5t-180 -19.5q-111 0 -212 44t-174 117.5t-116.5 175t-43.5 211.5t43 211.5t116 175.5t175 118t214 44z" />
    <glyph glyph-name="Ccaron" unicode="&#x10c;" horiz-adv-x="1390" 
d="M618 1739h84l156 -144l154 144h86l-203 -219h-76zM858 -16q-197 0 -366 98.5t-268 267.5t-99 367t99 367t268 267.5t366 98.5q106 0 218.5 -28.5t203.5 -73.5l-39 -80q-20 9 -54.5 23t-134.5 37.5t-190 23.5q-129 0 -246 -49.5t-201.5 -134t-134 -202.5t-49.5 -249
t49.5 -249t134 -202.5t201.5 -134t246 -49.5q90 0 185 21t145 42l49 21l39 -80q-91 -45 -203.5 -73.5t-218.5 -28.5z" />
    <glyph glyph-name="ccaron" unicode="&#x10d;" horiz-adv-x="1069" 
d="M420 1411h86l156 -143l153 143h86l-203 -219h-77zM657 -16q-112 0 -214 44t-175 117.5t-116 175t-43 211.5t43 211.5t116 175.5t175 118t214 44q175 0 318 -67l-37 -78l-8 3q-7 3 -20.5 7.5t-31.5 10t-41.5 11.5t-49.5 10.5t-57 7.5t-62 3q-130 0 -235.5 -65
t-162.5 -169.5t-57 -222.5t57 -222t162.5 -169t235.5 -65q31 0 62 3t57 7.5t49.5 10t41.5 11.5l31.5 10.5t20.5 7.5l8 3l37 -78q-143 -67 -318 -67z" />
    <glyph glyph-name="Dcaron" unicode="&#x10e;" horiz-adv-x="1464" 
d="M698 0h-481v1434h481q58 0 143.5 -20t174.5 -71q163 -96 239 -260.5t76 -365.5q0 -97 -17.5 -186t-54.5 -171.5t-98.5 -152t-144.5 -117.5q-154 -90 -318 -90zM319 1335v-1237h365q148 0 287 82q132 76 195 216.5t63 320.5q0 181 -63 320t-195 216q-139 82 -287 82h-365z
M406 1739h83l158 -144l152 144h88l-205 -219h-76z" />
    <glyph glyph-name="dcaron" unicode="&#x10f;" 
d="M1042 1499h101v-1499h-78l-16 250q-58 -127 -174.5 -196.5t-251.5 -69.5q-147 0 -265 75t-182.5 199.5t-64.5 271.5q0 145 63 270.5t181.5 203t267.5 77.5q136 0 248.5 -66t170.5 -181v665zM633 989q-178 0 -300 -133.5t-122 -325.5t122 -323t300 -131q179 0 299.5 131.5
t120.5 322.5q0 195 -121.5 327t-298.5 132zM1440 1495q40 0 62 -32t22 -72q0 -109 -129 -172l-21 32q40 21 67.5 62.5t16.5 79.5q-19 -15 -37 -15q-23 0 -36 16t-13 40q0 26 21.5 43.5t46.5 17.5z" />
    <glyph glyph-name="Dcroat" unicode="&#x110;" horiz-adv-x="1472" 
d="M707 0h-480v686h-192v68h192v680h480q58 0 143.5 -20t175.5 -71q83 -49 145 -118.5t98 -152t53 -170.5t17 -185q0 -202 -76 -368t-237 -259q-154 -90 -319 -90zM330 1335v-581h358v-68h-358v-588h362q150 0 289 82q131 76 193.5 216.5t62.5 320.5q0 181 -63 320t-193 216
q-59 34 -126.5 54t-101.5 24t-61 4h-362z" />
    <glyph glyph-name="dcroat" unicode="&#x111;" horiz-adv-x="1320" 
d="M1042 1499h101v-207h176v-47h-176v-1245h-78l-16 250q-58 -127 -174.5 -196.5t-251.5 -69.5q-147 0 -265 75t-182.5 199.5t-64.5 271.5q0 145 63 270.5t181.5 203t267.5 77.5q136 0 248.5 -66t170.5 -181v411h-337v47h337v207zM633 989q-178 0 -300 -133.5t-122 -325.5
t122 -323t300 -131q179 0 299.5 131.5t120.5 322.5q0 195 -121.5 327t-298.5 132z" />
    <glyph glyph-name="Emacron" unicode="&#x112;" horiz-adv-x="1331" 
d="M217 1434h967v-99h-865v-590h744v-96h-744v-553h900v-96h-1002v1434zM412 1593h598v-73h-598v73z" />
    <glyph glyph-name="emacron" unicode="&#x113;" horiz-adv-x="1212" 
d="M332 1266h598v-74h-598v74zM111 532q0 147 67 273t187.5 201t267.5 75q111 0 204.5 -45.5t153.5 -121t93.5 -171t33.5 -196.5l-4 -53h-897q9 -177 133 -295.5t312 -118.5q153 0 333 80l37 -84q-189 -92 -370 -92q-161 0 -288.5 75.5t-195 200t-67.5 272.5zM217 571h801
q0 74 -25.5 146.5t-71.5 132.5t-120.5 97.5t-163.5 37.5q-170 0 -290.5 -121t-129.5 -293z" />
    <glyph glyph-name="Ebreve" unicode="&#x114;" horiz-adv-x="1331" 
d="M217 1434h967v-99h-865v-590h744v-96h-744v-553h900v-96h-1002v1434zM457 1729h57q26 -70 64.5 -103t117.5 -33q78 0 118 32.5t63 103.5h57q-16 -105 -71 -157t-167 -52t-166.5 51t-72.5 158z" />
    <glyph glyph-name="ebreve" unicode="&#x115;" horiz-adv-x="1212" 
d="M381 1401h57q26 -70 65 -102.5t118 -32.5q78 0 117.5 32t62.5 103h57q-16 -105 -70.5 -157t-166.5 -52t-167 51t-73 158zM111 532q0 147 67 273t187.5 201t267.5 75q111 0 204.5 -45.5t153.5 -121t93.5 -171t33.5 -196.5l-4 -53h-897q9 -177 133 -295.5t312 -118.5
q153 0 333 80l37 -84q-189 -92 -370 -92q-161 0 -288.5 75.5t-195 200t-67.5 272.5zM217 571h801q0 74 -25.5 146.5t-71.5 132.5t-120.5 97.5t-163.5 37.5q-170 0 -290.5 -121t-129.5 -293z" />
    <glyph glyph-name="Edotaccent" unicode="&#x116;" horiz-adv-x="1331" 
d="M217 1434h967v-99h-865v-590h744v-96h-744v-553h900v-96h-1002v1434zM801 1597q0 -33 -23.5 -55t-62.5 -22q-34 0 -57 22.5t-23 54.5q0 35 23.5 58.5t56.5 23.5q39 0 62.5 -22.5t23.5 -59.5z" />
    <glyph glyph-name="edotaccent" unicode="&#x117;" horiz-adv-x="1212" 
d="M719 1270q0 -33 -23.5 -55.5t-62.5 -22.5q-34 0 -57 23t-23 55q0 35 23.5 58.5t56.5 23.5q39 0 62.5 -22.5t23.5 -59.5zM111 532q0 147 67 273t187.5 201t267.5 75q111 0 204.5 -45.5t153.5 -121t93.5 -171t33.5 -196.5l-4 -53h-897q9 -177 133 -295.5t312 -118.5
q153 0 333 80l37 -84q-189 -92 -370 -92q-161 0 -288.5 75.5t-195 200t-67.5 272.5zM217 571h801q0 74 -25.5 146.5t-71.5 132.5t-120.5 97.5t-163.5 37.5q-170 0 -290.5 -121t-129.5 -293z" />
    <glyph glyph-name="Eogonek" unicode="&#x118;" horiz-adv-x="1335" 
d="M217 1434h967v-99h-865v-590h744v-96h-744v-553h900v-96h-50q-133 -50 -133 -147q0 -42 24 -62t58 -20q32 0 84 12l19 -57q-50 -31 -109 -31q-68 0 -112 34.5t-44 102.5q0 112 125 168h-864v1434z" />
    <glyph glyph-name="eogonek" unicode="&#x119;" horiz-adv-x="1212" 
d="M111 532q0 147 67 273t187.5 201t267.5 75q111 0 204.5 -45.5t153.5 -121t93.5 -171t33.5 -196.5l-4 -53h-897q9 -177 133 -295.5t312 -118.5q153 0 333 80l37 -84q-99 -46 -180 -68q-44 -17 -69 -52t-25 -81q0 -43 24 -62.5t58 -19.5q30 0 86 12l18 -57q-48 -28 -90 -31
q-72 -8 -122 29t-50 109q0 79 57 133q-54 -4 -77 -4q-161 0 -288.5 75.5t-195 200t-67.5 272.5zM217 571h801q0 74 -25.5 146.5t-71.5 132.5t-120.5 97.5t-163.5 37.5q-170 0 -290.5 -121t-129.5 -293z" />
    <glyph glyph-name="Ecaron" unicode="&#x11a;" horiz-adv-x="1331" 
d="M217 1434h967v-99h-865v-590h744v-96h-744v-553h900v-96h-1002v1434zM446 1739h84l158 -144l152 144h88l-205 -219h-76z" />
    <glyph glyph-name="ecaron" unicode="&#x11b;" horiz-adv-x="1212" 
d="M408 1411h84l155 -143l154 143h86l-203 -219h-76zM111 532q0 147 67 273t187.5 201t267.5 75q111 0 204.5 -45.5t153.5 -121t93.5 -171t33.5 -196.5l-4 -53h-897q9 -177 133 -295.5t312 -118.5q153 0 333 80l37 -84q-189 -92 -370 -92q-161 0 -288.5 75.5t-195 200
t-67.5 272.5zM217 571h801q0 74 -25.5 146.5t-71.5 132.5t-120.5 97.5t-163.5 37.5q-170 0 -290.5 -121t-129.5 -293z" />
    <glyph glyph-name="Gcircumflex" unicode="&#x11c;" horiz-adv-x="1540" 
d="M700 1520h-86l201 219h78l203 -219h-86l-154 145zM872 1450q107 0 227 -30t218 -79l-41 -79q-202 90 -393 90q-138 0 -260.5 -52t-207.5 -138.5t-134.5 -202.5t-49.5 -242q0 -173 81 -318t227 -231t325 -86q255 0 447 168v358h-406v90h502v-485q-234 -229 -543 -229
q-205 0 -375 97.5t-267 266t-97 369.5q0 200 98.5 368.5t270.5 266.5t378 98z" />
    <glyph glyph-name="gcircumflex" unicode="&#x11d;" horiz-adv-x="1091" 
d="M377 1192h-84l201 219h75l205 -219h-88l-151 145zM1004 1065v-64l-181 -22q58 -35 90.5 -98.5t32.5 -141.5q0 -154 -101 -245t-292 -91q-133 0 -221 46q-12 -5 -29 -17t-37 -42t-20 -64q0 -46 35.5 -75t104 -39.5t110.5 -12.5t112 -2h9h8h8q85 0 148 -11.5t113.5 -39
t76.5 -77.5t26 -122q0 -70 -27 -123.5t-69.5 -85t-102 -52t-116 -27.5t-119.5 -7q-452 0 -452 295q0 134 137 221q-94 47 -94 151q0 83 108 173q-52 41 -79 107.5t-27 139.5q0 161 107 251.5t288 90.5q70 0 129 -16h324zM563 999q-144 0 -227.5 -68.5t-83.5 -191.5
q0 -117 78 -185.5t223 -68.5q144 0 220.5 68t76.5 186q0 122 -78.5 191t-208.5 69zM618 115q-199 0 -284 20q-127 -73 -127 -188q0 -211 358 -211q336 0 336 211q0 93 -69.5 130.5t-213.5 37.5z" />
    <glyph glyph-name="Gbreve" unicode="&#x11e;" horiz-adv-x="1540" 
d="M635 1729h57q26 -70 64.5 -103t117.5 -33q78 0 118 32.5t63 103.5h57q-16 -105 -71 -157t-167 -52t-166.5 51t-72.5 158zM872 1450q107 0 227 -30t218 -79l-41 -79q-202 90 -393 90q-138 0 -260.5 -52t-207.5 -138.5t-134.5 -202.5t-49.5 -242q0 -173 81 -318t227 -231
t325 -86q255 0 447 168v358h-406v90h502v-485q-234 -229 -543 -229q-205 0 -375 97.5t-267 266t-97 369.5q0 200 98.5 368.5t270.5 266.5t378 98z" />
    <glyph glyph-name="gbreve" unicode="&#x11f;" horiz-adv-x="1091" 
d="M334 1401h57q26 -70 64.5 -102.5t117.5 -32.5q78 0 117 31.5t64 103.5h57q-16 -105 -71 -157t-167 -52q-113 0 -167 51t-72 158zM1004 1065v-64l-181 -22q58 -35 90.5 -98.5t32.5 -141.5q0 -154 -101 -245t-292 -91q-133 0 -221 46q-12 -5 -29 -17t-37 -42t-20 -64
q0 -46 35.5 -75t104 -39.5t110.5 -12.5t112 -2h9h8h8q85 0 148 -11.5t113.5 -39t76.5 -77.5t26 -122q0 -70 -27 -123.5t-69.5 -85t-102 -52t-116 -27.5t-119.5 -7q-452 0 -452 295q0 134 137 221q-94 47 -94 151q0 83 108 173q-52 41 -79 107.5t-27 139.5q0 161 107 251.5
t288 90.5q70 0 129 -16h324zM563 999q-144 0 -227.5 -68.5t-83.5 -191.5q0 -117 78 -185.5t223 -68.5q144 0 220.5 68t76.5 186q0 122 -78.5 191t-208.5 69zM618 115q-199 0 -284 20q-127 -73 -127 -188q0 -211 358 -211q336 0 336 211q0 93 -69.5 130.5t-213.5 37.5z" />
    <glyph glyph-name="Gdotaccent" unicode="&#x120;" horiz-adv-x="1540" 
d="M954 1597q0 -33 -23.5 -55t-62.5 -22q-34 0 -57 22.5t-23 54.5q0 35 23.5 58.5t56.5 23.5q39 0 62.5 -22.5t23.5 -59.5zM872 1450q107 0 227 -30t218 -79l-41 -79q-202 90 -393 90q-138 0 -260.5 -52t-207.5 -138.5t-134.5 -202.5t-49.5 -242q0 -173 81 -318t227 -231
t325 -86q255 0 447 168v358h-406v90h502v-485q-234 -229 -543 -229q-205 0 -375 97.5t-267 266t-97 369.5q0 200 98.5 368.5t270.5 266.5t378 98z" />
    <glyph glyph-name="gdotaccent" unicode="&#x121;" horiz-adv-x="1091" 
d="M637 1270q0 -33 -23.5 -55.5t-62.5 -22.5q-34 0 -57 23t-23 55q0 35 23.5 58.5t56.5 23.5q39 0 62.5 -22.5t23.5 -59.5zM1004 1065v-64l-181 -22q58 -35 90.5 -98.5t32.5 -141.5q0 -154 -101 -245t-292 -91q-133 0 -221 46q-12 -5 -29 -17t-37 -42t-20 -64
q0 -46 35.5 -75t104 -39.5t110.5 -12.5t112 -2h9h8h8q85 0 148 -11.5t113.5 -39t76.5 -77.5t26 -122q0 -70 -27 -123.5t-69.5 -85t-102 -52t-116 -27.5t-119.5 -7q-452 0 -452 295q0 134 137 221q-94 47 -94 151q0 83 108 173q-52 41 -79 107.5t-27 139.5q0 161 107 251.5
t288 90.5q70 0 129 -16h324zM563 999q-144 0 -227.5 -68.5t-83.5 -191.5q0 -117 78 -185.5t223 -68.5q144 0 220.5 68t76.5 186q0 122 -78.5 191t-208.5 69zM618 115q-199 0 -284 20q-127 -73 -127 -188q0 -211 358 -211q336 0 336 211q0 93 -69.5 130.5t-213.5 37.5z" />
    <glyph glyph-name="Gcommaaccent" unicode="&#x122;" horiz-adv-x="1540" 
d="M866 -129q39 0 61.5 -32t22.5 -72q0 -107 -131 -173l-18 33q41 23 67.5 64t14.5 80q-12 -15 -35 -15q-22 0 -35.5 15.5t-13.5 38.5q0 27 20.5 44t46.5 17zM872 1450q107 0 227 -30t218 -79l-41 -79q-202 90 -393 90q-138 0 -260.5 -52t-207.5 -138.5t-134.5 -202.5
t-49.5 -242q0 -173 81 -318t227 -231t325 -86q255 0 447 168v358h-406v90h502v-485q-234 -229 -543 -229q-205 0 -375 97.5t-267 266t-97 369.5q0 200 98.5 368.5t270.5 266.5t378 98z" />
    <glyph glyph-name="gcommaaccent" unicode="&#x123;" horiz-adv-x="1091" 
d="M553 1192q-40 0 -62 32t-22 72q0 58 36.5 102.5t92.5 71.5l20 -32q-39 -21 -66 -63t-17 -81q15 15 36 15q23 0 36.5 -16t13.5 -40q0 -25 -21.5 -43t-46.5 -18zM1004 1065v-64l-181 -22q58 -35 90.5 -98.5t32.5 -141.5q0 -154 -101 -245t-292 -91q-133 0 -221 46
q-12 -5 -29 -17t-37 -42t-20 -64q0 -46 35.5 -75t104 -39.5t110.5 -12.5t112 -2h9h8h8q85 0 148 -11.5t113.5 -39t76.5 -77.5t26 -122q0 -70 -27 -123.5t-69.5 -85t-102 -52t-116 -27.5t-119.5 -7q-452 0 -452 295q0 134 137 221q-94 47 -94 151q0 83 108 173
q-52 41 -79 107.5t-27 139.5q0 161 107 251.5t288 90.5q70 0 129 -16h324zM563 999q-144 0 -227.5 -68.5t-83.5 -191.5q0 -117 78 -185.5t223 -68.5q144 0 220.5 68t76.5 186q0 122 -78.5 191t-208.5 69zM618 115q-199 0 -284 20q-127 -73 -127 -188q0 -211 358 -211
q336 0 336 211q0 93 -69.5 130.5t-213.5 37.5z" />
    <glyph glyph-name="Hcircumflex" unicode="&#x124;" horiz-adv-x="1521" 
d="M217 1434h102v-662h883v662h103v-1434h-103v678h-883v-678h-102v1434zM606 1520h-86l201 219h78l202 -219h-86l-153 145z" />
    <glyph glyph-name="hcircumflex" unicode="&#x125;" horiz-adv-x="1245" 
d="M72 1524h-84l200 219h76l205 -219h-88l-152 145zM178 1499h103v-670q6 30 31.5 69.5t70.5 82t121 71.5t166 29q195 0 300 -120t105 -338v-623h-102v625q0 167 -82 262.5t-236 95.5q-75 0 -138.5 -24.5t-106 -64.5t-72.5 -92t-43.5 -105t-13.5 -105v-592h-103v1499z" />
    <glyph glyph-name="Hbar" unicode="&#x126;" horiz-adv-x="1523" 
d="M217 1434h102v-279h885v279h103v-279h127v-57h-127v-1098h-103v678h-885v-678h-102v1098h-127v57h127v279zM319 772h885v326h-885v-326z" />
    <glyph glyph-name="hbar" unicode="&#x127;" horiz-adv-x="1243" 
d="M178 1499h103v-207h335v-47h-335v-416q6 30 31.5 69.5t70.5 82t121 71.5t166 29q195 0 300 -120t105 -338v-623h-102v625q0 167 -82 262.5t-236 95.5q-75 0 -138.5 -24.5t-106 -64.5t-72.5 -92t-43.5 -105t-13.5 -105v-592h-103v1245h-176v47h176v207z" />
    <glyph glyph-name="Itilde" unicode="&#x128;" horiz-adv-x="534" 
d="M217 1434h102v-1434h-102v1434zM14 1538l-39 29q36 61 90.5 91.5t114.5 20.5q35 -7 101.5 -41t119.5 -34q69 0 117 63l39 -29q-35 -62 -91.5 -92t-117.5 -20q-38 4 -103 40t-118 36q-37 0 -61.5 -16.5t-51.5 -47.5z" />
    <glyph glyph-name="itilde" unicode="&#x129;" horiz-adv-x="475" 
d="M90 1065h207v-1065h-100v969l-107 26v70zM-31 1210l-39 29q36 61 90.5 92t114.5 21q36 -6 102 -41t119 -35q69 0 117 63l39 -28q-36 -62 -92 -92.5t-117 -20.5q-39 5 -103.5 40.5t-117.5 35.5q-37 0 -61.5 -16.5t-51.5 -47.5z" />
    <glyph glyph-name="Imacron" unicode="&#x12a;" horiz-adv-x="534" 
d="M217 1434h102v-1434h-102v1434zM-31 1593h598v-73h-598v73z" />
    <glyph glyph-name="imacron" unicode="&#x12b;" horiz-adv-x="475" 
d="M90 1065h207v-1065h-100v969l-107 26v70zM-94 1266h598v-74h-598v74z" />
    <glyph glyph-name="Ibreve" unicode="&#x12c;" horiz-adv-x="534" 
d="M217 1434h102v-1434h-102v1434zM0 1729h55q17 -46 37 -73.5t56.5 -45t91.5 -17.5q78 0 116.5 32t61.5 104h59q-16 -105 -71 -157t-166 -52q-113 0 -167.5 51t-72.5 158z" />
    <glyph glyph-name="ibreve" unicode="&#x12d;" horiz-adv-x="475" 
d="M90 1065h207v-1065h-100v969l-107 26v70zM-14 1401h55q17 -46 36.5 -73.5t56 -44.5t91.5 -17q78 0 116.5 31.5t61.5 103.5h60q-16 -105 -71.5 -157t-166.5 -52q-113 0 -167 51t-72 158z" />
    <glyph glyph-name="Iogonek" unicode="&#x12e;" horiz-adv-x="534" 
d="M217 1434h102v-1434h-14q-60 -23 -100.5 -60t-40.5 -90q0 -43 25 -63t59 -20t86 14l18 -60q-42 -23 -90 -30q-73 -6 -123.5 30.5t-50.5 108.5q0 117 139 170h-10v1434z" />
    <glyph glyph-name="iogonek" unicode="&#x12f;" horiz-adv-x="475" 
d="M90 1065h207v-1065q-61 -19 -106.5 -56t-45.5 -94q0 -43 25 -63t59 -20q35 0 84 14l19 -60q-54 -30 -105 -30q-69 0 -113 35.5t-44 103.5q0 118 141 170h-14v969l-107 26v70zM225 1434q35 0 62.5 -25t27.5 -59q0 -37 -26.5 -62.5t-63.5 -25.5q-35 0 -59.5 25.5
t-24.5 60.5t24.5 60.5t59.5 25.5z" />
    <glyph glyph-name="Idotaccent" unicode="&#x130;" horiz-adv-x="536" 
d="M217 1434h102v-1434h-102v1434zM350 1597q0 -33 -23 -55t-61 -22q-35 0 -58.5 22.5t-23.5 54.5q0 35 24 58.5t58 23.5q38 0 61 -22.5t23 -59.5z" />
    <glyph glyph-name="dotlessi" unicode="&#x131;" horiz-adv-x="477" 
d="M92 1065h205v-1065h-98v969l-107 26v70z" />
    <glyph glyph-name="Jcircumflex" unicode="&#x134;" horiz-adv-x="561" 
d="M94 1520h-84l201 219h76l205 -219h-89l-151 145zM43 -287l-33 70q14 6 39 21t59.5 43.5t63.5 61t49.5 76.5t20.5 87v1259l-131 27v76h233v-1340q0 -68 -25 -129t-70 -107.5t-95 -81.5t-111 -63z" />
    <glyph glyph-name="jcircumflex" unicode="&#x135;" horiz-adv-x="479" 
d="M96 -348l-33 67q17 7 37.5 22t44 39t39 61t15.5 79v1049l-109 26v70h211v-1038q0 -164 -59 -255t-146 -120zM47 1192h-84l201 219h76l202 -219h-86l-153 145z" />
    <glyph glyph-name="Kcommaaccent" unicode="&#x136;" horiz-adv-x="1269" 
d="M670 -129q40 0 63 -32t23 -72q0 -56 -37 -100t-94 -73l-19 33q39 24 66 64.5t16 79.5q-12 -15 -35 -15q-22 0 -35.5 15.5t-13.5 38.5q0 26 20.5 43.5t45.5 17.5zM217 0v1434h102v-682l-2 -193l140 172l596 703h123l-531 -629l606 -805h-123l-546 733l-263 -303v-430h-102
z" />
    <glyph glyph-name="kcommaaccent" unicode="&#x137;" horiz-adv-x="989" 
d="M178 1499h103v-733l-5 -313l269 315l258 297h131l-432 -490l436 -575h-119l-377 500l-161 -183v-317h-103v1499zM522 -129q40 0 63 -32t23 -72q0 -56 -37 -100t-94 -73l-18 33q39 24 66 64.5t16 79.5q-12 -15 -35 -15q-22 0 -35.5 15.5t-13.5 38.5q0 26 20 43.5t45 17.5z
" />
    <glyph glyph-name="kgreenlandic" unicode="&#x138;" horiz-adv-x="991" 
d="M178 1065h103v-299l-2 -313l268 315l258 297h129l-430 -490l436 -575h-121l-377 500l-161 -183v-317h-103v1065z" />
    <glyph glyph-name="Lacute" unicode="&#x139;" horiz-adv-x="1218" 
d="M217 1434h102v-1338h840v-96h-942v1434zM362 1823l101 -58l-164 -245h-57z" />
    <glyph glyph-name="lacute" unicode="&#x13a;" horiz-adv-x="503" 
d="M186 1499h103v-1349q0 -58 59 -58q40 0 70 6v-82q-43 -16 -113 -16q-39 0 -65 15.5t-36.5 40.5t-14 43t-3.5 38v1362zM332 1839l100 -57l-166 -246h-57z" />
    <glyph glyph-name="Lcommaaccent" unicode="&#x13b;" horiz-adv-x="1222" 
d="M217 1434h102v-1338h840v-96h-942v1434zM643 -125q40 0 63 -32.5t23 -71.5q0 -108 -131 -172l-18 32q38 21 65.5 62.5t16.5 79.5q-19 -15 -37 -15q-22 0 -36 16t-14 40q0 26 21.5 43.5t46.5 17.5z" />
    <glyph glyph-name="lcommaaccent" unicode="&#x13c;" horiz-adv-x="503" 
d="M184 1499h101v-1349q0 -58 59 -58q42 0 72 6v-82q-48 -16 -113 -16q-39 0 -65 15.5t-36.5 40.5t-14 43t-3.5 38v1362zM276 -125q38 0 61 -32.5t23 -71.5q0 -110 -131 -172l-18 32q40 21 67.5 62.5t14.5 79.5q-15 -15 -35 -15q-23 0 -36 16t-13 40q0 27 20.5 44t46.5 17z
" />
    <glyph glyph-name="Lcaron" unicode="&#x13d;" horiz-adv-x="1218" 
d="M217 1434h102v-1338h840v-96h-942v1434zM717 1417q39 0 61.5 -32t22.5 -72q0 -107 -131 -172l-19 33q41 23 67.5 63.5t14.5 79.5q-11 -14 -35 -14q-23 0 -36 15t-13 38q0 27 21 44t47 17z" />
    <glyph glyph-name="lcaron" unicode="&#x13e;" horiz-adv-x="579" 
d="M184 1499h101v-1349q0 -58 59 -58q42 0 72 6v-82q-48 -16 -113 -16q-39 0 -65 15.5t-36.5 40.5t-14 43t-3.5 38v1362zM569 1495q38 0 61 -32.5t23 -71.5q0 -110 -131 -172l-18 32q40 21 67.5 62.5t14.5 79.5q-15 -15 -35 -15q-23 0 -36 16t-13 40q0 27 20.5 44t46.5 17z
" />
    <glyph glyph-name="Lslash" unicode="&#x141;" horiz-adv-x="1208" 
d="M16 508l217 131v795h103v-732l293 177l30 -56l-323 -194v-537h776v-92h-879v567l-188 -112z" />
    <glyph glyph-name="lslash" unicode="&#x142;" horiz-adv-x="628" 
d="M227 1499h101v-801l223 136l31 -54l-254 -153v-477q0 -58 61 -58q40 0 70 6v-82q-43 -16 -113 -16q-34 0 -59.5 14.5t-37.5 37.5t-17 44t-5 41v428l-168 -102l-32 55l200 121v860z" />
    <glyph glyph-name="Nacute" unicode="&#x143;" horiz-adv-x="1497" 
d="M834 1823l100 -58l-164 -245h-57zM217 1434h105l475 -703l385 -575h2l-6 538v740h102v-1434h-109l-479 717l-375 561h-4l6 -545v-733h-102v1434z" />
    <glyph glyph-name="nacute" unicode="&#x144;" horiz-adv-x="1245" 
d="M733 1495l101 -57l-164 -246h-58zM180 1065h78l18 -240q5 23 21.5 53.5t50 66.5t77 66t109 50t138.5 20q195 0 300 -120t105 -338v-623h-102v625q0 167 -82 262.5t-236 95.5q-75 0 -138.5 -25t-106 -65.5t-72.5 -93t-43.5 -106t-13.5 -105.5v-588h-103v1065z" />
    <glyph glyph-name="Ncommaaccent" unicode="&#x145;" horiz-adv-x="1497" 
d="M713 -129q40 0 63 -32t23 -72q0 -56 -37 -100t-94 -73l-19 33q39 24 66 64.5t16 79.5q-12 -15 -35 -15q-22 0 -35.5 15.5t-13.5 38.5q0 26 20.5 43.5t45.5 17.5zM217 1434h105l475 -703l385 -575h2l-6 538v740h102v-1434h-109l-479 717l-375 561h-4l6 -545v-733h-102
v1434z" />
    <glyph glyph-name="ncommaaccent" unicode="&#x146;" horiz-adv-x="1245" 
d="M612 -125q40 0 63 -32.5t23 -71.5q0 -108 -131 -172l-18 32q38 21 65.5 62.5t16.5 79.5q-19 -15 -37 -15q-21 0 -35 16t-14 40q0 26 21 43.5t46 17.5zM180 1065h78l18 -240q5 23 21.5 53.5t50 66.5t77 66t109 50t138.5 20q195 0 300 -120t105 -338v-623h-102v625
q0 167 -82 262.5t-236 95.5q-75 0 -138.5 -25t-106 -65.5t-72.5 -93t-43.5 -106t-13.5 -105.5v-588h-103v1065z" />
    <glyph glyph-name="Ncaron" unicode="&#x147;" horiz-adv-x="1497" 
d="M524 1739h84l156 -144l154 144h86l-203 -219h-76zM217 1434h105l475 -703l385 -575h2l-6 538v740h102v-1434h-109l-479 717l-375 561h-4l6 -545v-733h-102v1434z" />
    <glyph glyph-name="ncaron" unicode="&#x148;" horiz-adv-x="1245" 
d="M356 1411h86l156 -143l154 143h86l-203 -219h-78zM180 1065h78l18 -240q5 23 21.5 53.5t50 66.5t77 66t109 50t138.5 20q195 0 300 -120t105 -338v-623h-102v625q0 167 -82 262.5t-236 95.5q-75 0 -138.5 -25t-106 -65.5t-72.5 -93t-43.5 -106t-13.5 -105.5v-588h-103
v1065z" />
    <glyph glyph-name="Eng" unicode="&#x14a;" horiz-adv-x="1507" 
d="M1047 -309l-23 71q6 2 26.5 9.5t28 10.5t25 10.5t24 13t19.5 15t18.5 19t12.5 22t9.5 27.5t2.5 33v78l-871 1274v-1274h-102v1434h113l860 -1256v1256h102v-1508q0 -94 -55 -149.5t-190 -85.5z" />
    <glyph glyph-name="eng" unicode="&#x14b;" horiz-adv-x="1243" 
d="M829 -309l-20 65q5 2 26 10t27.5 10.5t24.5 10.5t24.5 13.5t20 15t19 19t12.5 22.5t9.5 28t2.5 33v692q0 167 -82 262t-238 95q-74 0 -137.5 -24.5t-106 -64t-72.5 -91t-44 -104.5t-14 -105v-578h-103v1065h78l16 -254q5 23 22.5 53.5t51.5 66t78 65t109.5 49.5t138.5 20
q195 0 299 -119.5t104 -337.5v-682q0 -94 -55.5 -149.5t-190.5 -85.5z" />
    <glyph glyph-name="Omacron" unicode="&#x14c;" horiz-adv-x="1710" 
d="M557 1593h598v-73h-598v73zM125 717q0 201 99 370t266.5 266t363.5 97q199 0 367.5 -98.5t266 -267.5t97.5 -367q0 -201 -98.5 -370t-266.5 -266t-366 -97t-366 98t-265.5 266.5t-97.5 368.5zM231 715q0 -174 82 -319.5t225.5 -229.5t315.5 -84q173 0 317 84t226 229.5
t82 319.5q0 173 -82.5 319t-227 232t-317.5 86q-170 0 -313 -84.5t-225.5 -231t-82.5 -321.5z" />
    <glyph glyph-name="omacron" unicode="&#x14d;" horiz-adv-x="1310" 
d="M356 1266h598v-74h-598v74zM111 532q0 113 43 215t115.5 175t173 116t210.5 43q112 0 213 -42.5t174.5 -115.5t116.5 -175t43 -216q0 -228 -160 -388t-387 -160q-147 0 -272 73t-197.5 199t-72.5 276zM653 989q-184 0 -312 -133t-128 -324q0 -123 58 -228t159.5 -166.5
t222.5 -61.5q185 0 315 134t130 322q0 191 -129.5 324t-315.5 133z" />
    <glyph glyph-name="Obreve" unicode="&#x14e;" horiz-adv-x="1710" 
d="M618 1729h58q26 -70 64.5 -103t117.5 -33q78 0 117.5 32.5t62.5 103.5h58q-16 -105 -71 -157t-167 -52t-167 51t-73 158zM125 717q0 201 99 370t266.5 266t363.5 97q199 0 367.5 -98.5t266 -267.5t97.5 -367q0 -201 -98.5 -370t-266.5 -266t-366 -97t-366 98
t-265.5 266.5t-97.5 368.5zM231 715q0 -174 82 -319.5t225.5 -229.5t315.5 -84q173 0 317 84t226 229.5t82 319.5q0 173 -82.5 319t-227 232t-317.5 86q-170 0 -313 -84.5t-225.5 -231t-82.5 -321.5z" />
    <glyph glyph-name="obreve" unicode="&#x14f;" horiz-adv-x="1310" 
d="M416 1401h57q26 -70 64.5 -102.5t117.5 -32.5t118.5 32t62.5 103h57q-16 -105 -71 -157t-167 -52t-166.5 51t-72.5 158zM111 532q0 113 43 215t115.5 175t173 116t210.5 43q112 0 213 -42.5t174.5 -115.5t116.5 -175t43 -216q0 -228 -160 -388t-387 -160q-147 0 -272 73
t-197.5 199t-72.5 276zM653 989q-184 0 -312 -133t-128 -324q0 -123 58 -228t159.5 -166.5t222.5 -61.5q185 0 315 134t130 322q0 191 -129.5 324t-315.5 133z" />
    <glyph glyph-name="Ohungarumlaut" unicode="&#x150;" horiz-adv-x="1710" 
d="M811 1812l98 -55l-153 -237h-58zM1042 1812l97 -55l-152 -237h-59zM125 717q0 201 99 370t266.5 266t363.5 97q199 0 367.5 -98.5t266 -267.5t97.5 -367q0 -201 -98.5 -370t-266.5 -266t-366 -97t-366 98t-265.5 266.5t-97.5 368.5zM231 715q0 -174 82 -319.5
t225.5 -229.5t315.5 -84q173 0 317 84t226 229.5t82 319.5q0 173 -82.5 319t-227 232t-317.5 86q-170 0 -313 -84.5t-225.5 -231t-82.5 -321.5z" />
    <glyph glyph-name="ohungarumlaut" unicode="&#x151;" horiz-adv-x="1310" 
d="M598 1485l98 -55l-153 -238h-58zM829 1485l97 -55l-152 -238h-59zM111 532q0 113 43 215t115.5 175t173 116t210.5 43q112 0 213 -42.5t174.5 -115.5t116.5 -175t43 -216q0 -228 -160 -388t-387 -160q-147 0 -272 73t-197.5 199t-72.5 276zM653 989q-184 0 -312 -133
t-128 -324q0 -123 58 -228t159.5 -166.5t222.5 -61.5q185 0 315 134t130 322q0 191 -129.5 324t-315.5 133z" />
    <glyph glyph-name="OE" unicode="&#x152;" horiz-adv-x="1976" 
d="M860 0q-201 0 -369.5 95.5t-266 261t-97.5 362.5t99.5 362t268 259t365.5 94h969v-103h-830v-583h709v-101h-709v-545h865v-102h-1004zM233 717q0 -128 49 -242t133 -195.5t200 -129.5t245 -48h47v1229h-49q-128 0 -243.5 -47.5t-199 -128.5t-133 -195.5t-49.5 -242.5z
" />
    <glyph glyph-name="oe" unicode="&#x153;" horiz-adv-x="2203" 
d="M109 532q0 151 73.5 277.5t199 199t273.5 72.5q169 0 304 -98t190 -252q52 154 180 252t293 98q111 0 205 -45.5t154.5 -121t94 -171t33.5 -198.5l-4 -51h-893q15 -187 148 -304.5t321 -109.5q139 3 314 80l37 -84q-189 -92 -383 -92q-180 0 -312.5 97t-185.5 249
q-57 -152 -192 -249t-304 -97q-148 0 -274 73t-199 199t-73 276zM655 985q-185 0 -314.5 -132t-129.5 -321q0 -188 130 -320t314 -132q183 0 314 132.5t131 319.5q1 188 -130.5 320.5t-314.5 132.5zM1212 571h797q-1 103 -45.5 196t-134.5 155.5t-207 62.5q-165 0 -283 -123
t-127 -291z" />
    <glyph glyph-name="Racute" unicode="&#x154;" horiz-adv-x="1378" 
d="M217 1434h608q166 0 284 -117t118 -281q0 -141 -89.5 -251t-226.5 -138l367 -647h-117l-356 635h-486v-635h-102v1434zM319 1335v-604h506q124 0 211.5 90.5t87.5 214.5q0 131 -93.5 215t-227.5 84h-484zM657 1823l101 -58l-164 -245h-57z" />
    <glyph glyph-name="racute" unicode="&#x155;" horiz-adv-x="688" 
d="M449 1495l100 -57l-166 -246h-57zM178 1063h78l18 -201q41 101 131 152t209 51v-109q-68 0 -126.5 -18.5t-105.5 -55t-74 -98.5t-27 -143v-641h-103v1063z" />
    <glyph glyph-name="Rcommaaccent" unicode="&#x156;" horiz-adv-x="1376" 
d="M682 -129q40 0 63 -32t23 -72q0 -56 -37 -100t-94 -73l-19 33q39 24 66 64.5t16 79.5q-12 -15 -34 -15q-23 0 -36.5 15.5t-13.5 38.5q0 26 20.5 43.5t45.5 17.5zM217 1434h608q166 0 284 -117t118 -281q0 -141 -89.5 -251t-226.5 -138l367 -647h-117l-356 635h-486v-635
h-102v1434zM319 1335v-604h506q124 0 211.5 90.5t87.5 214.5q0 131 -93.5 215t-227.5 84h-484z" />
    <glyph glyph-name="rcommaaccent" unicode="&#x157;" horiz-adv-x="690" 
d="M229 -129q40 0 63 -32t23 -72q0 -56 -37 -100t-94 -73l-18 33q39 24 66 64.5t16 79.5q-15 -15 -37 -15q-21 0 -35 16t-14 38q0 26 21 43.5t46 17.5zM178 1063h78l18 -201q41 101 131 152t209 51v-109q-68 0 -126.5 -18.5t-105.5 -55t-74 -98.5t-27 -143v-641h-103v1063z
" />
    <glyph glyph-name="Rcaron" unicode="&#x158;" horiz-adv-x="1378" 
d="M387 1739h86l156 -144l153 144h86l-202 -219h-78zM217 1434h608q166 0 284 -117t118 -281q0 -141 -89.5 -251t-226.5 -138l367 -647h-117l-356 635h-486v-635h-102v1434zM319 1335v-604h506q124 0 211.5 90.5t87.5 214.5q0 131 -93.5 215t-227.5 84h-484z" />
    <glyph glyph-name="rcaron" unicode="&#x159;" horiz-adv-x="688" 
d="M152 1411h84l157 -143l152 143h88l-205 -219h-76zM178 1063h78l18 -201q41 101 131 152t209 51v-109q-68 0 -126.5 -18.5t-105.5 -55t-74 -98.5t-27 -143v-641h-103v1063z" />
    <glyph glyph-name="Sacute" unicode="&#x15a;" horiz-adv-x="1220" 
d="M666 1823l100 -58l-164 -245h-57zM618 -16q-253 0 -495 114l41 88q40 -18 87.5 -36.5t158 -43t211.5 -24.5q185 0 286 71.5t101 204.5q0 66 -30 116.5t-80 82.5t-115.5 57t-138 45.5t-144.5 42t-137.5 53t-115.5 72t-80 104.5t-30 146q0 173 126 273t349 100
q127 0 243.5 -28.5t191.5 -61.5l-39 -86q-21 9 -57.5 22.5t-139.5 35.5t-193 22q-167 0 -271.5 -68.5t-104.5 -200.5q0 -66 30 -117t80 -84t115.5 -58.5t137.5 -46.5t144 -43t137.5 -52.5t115.5 -71t80 -103t30 -142.5q0 -181 -132.5 -282t-361.5 -101z" />
    <glyph glyph-name="sacute" unicode="&#x15b;" horiz-adv-x="970" 
d="M487 -16q-191 0 -376 86l34 77q41 -22 137 -48.5t203 -26.5q139 0 214 53t75 145q0 60 -36 102.5t-94 66.5t-127.5 43t-139.5 41.5t-128 53.5t-94 86.5t-36 133.5q0 130 97.5 207t270.5 77q97 0 189.5 -21.5t148.5 -45.5l-34 -78q-16 6 -44 15.5t-107 25.5t-148 16
q-124 0 -200.5 -50.5t-76.5 -143.5q0 -53 28 -92t74 -61t105 -42.5t120.5 -35t120.5 -39t105 -55t74 -82.5t28 -120q0 -134 -102.5 -211t-280.5 -77zM545 1495l100 -57l-164 -246h-57z" />
    <glyph glyph-name="Scircumflex" unicode="&#x15c;" horiz-adv-x="1220" 
d="M471 1520h-84l201 219h76l202 -219h-86l-153 145zM618 -16q-253 0 -495 114l41 88q40 -18 87.5 -36.5t158 -43t211.5 -24.5q185 0 286 71.5t101 204.5q0 66 -30 116.5t-80 82.5t-115.5 57t-138 45.5t-144.5 42t-137.5 53t-115.5 72t-80 104.5t-30 146q0 173 126 273
t349 100q127 0 243.5 -28.5t191.5 -61.5l-39 -86q-21 9 -57.5 22.5t-139.5 35.5t-193 22q-167 0 -271.5 -68.5t-104.5 -200.5q0 -66 30 -117t80 -84t115.5 -58.5t137.5 -46.5t144 -43t137.5 -52.5t115.5 -71t80 -103t30 -142.5q0 -181 -132.5 -282t-361.5 -101z" />
    <glyph glyph-name="scircumflex" unicode="&#x15d;" horiz-adv-x="970" 
d="M336 1192h-84l201 219h75l203 -219h-86l-153 145zM487 -16q-191 0 -376 86l34 77q41 -22 137 -48.5t203 -26.5q139 0 214 53t75 145q0 60 -36 102.5t-94 66.5t-127.5 43t-139.5 41.5t-128 53.5t-94 86.5t-36 133.5q0 130 97.5 207t270.5 77q97 0 189.5 -21.5t148.5 -45.5
l-34 -78q-16 6 -44 15.5t-107 25.5t-148 16q-124 0 -200.5 -50.5t-76.5 -143.5q0 -53 28 -92t74 -61t105 -42.5t120.5 -35t120.5 -39t105 -55t74 -82.5t28 -120q0 -134 -102.5 -211t-280.5 -77z" />
    <glyph glyph-name="Scedilla" unicode="&#x15e;" horiz-adv-x="1220" 
d="M616 -16l-26 -111q13 4 31 4q66 0 104.5 -37.5t38.5 -95.5q0 -70 -50.5 -110t-119.5 -40q-72 0 -135 37l16 47q56 -20 107 -20q49 0 79.5 24.5t30.5 63.5q0 37 -28.5 60.5t-73.5 23.5q-25 0 -37 -4l-35 33l49 127q-231 13 -442 112l41 88q40 -18 87.5 -36.5t158 -43
t211.5 -24.5q184 0 285.5 71t101.5 199q0 68 -30 119.5t-80 84t-115.5 58t-138 46t-144.5 42t-137.5 52.5t-115.5 71t-80 104t-30 146q0 174 126 274.5t349 100.5q127 0 243.5 -28.5t191.5 -61.5l-39 -86q-21 9 -57.5 22.5t-139 35.5t-192.5 22q-167 0 -272 -68.5
t-105 -200.5q0 -67 30 -118t80 -83.5t115.5 -58t137.5 -46.5t144 -43t137.5 -53t115.5 -72t80 -104t30 -145q0 -178 -133.5 -278t-364.5 -100z" />
    <glyph glyph-name="scedilla" unicode="&#x15f;" horiz-adv-x="970" 
d="M510 -16l-27 -111q13 4 31 4q66 0 104.5 -37.5t38.5 -95.5q0 -70 -50.5 -110t-119.5 -40q-72 0 -135 37l17 47q56 -20 106 -20q49 0 80 25t31 63q0 37 -28.5 60.5t-74.5 23.5q-25 0 -37 -4l-34 33l49 125q-187 6 -350 86l34 77q41 -22 137 -48.5t203 -26.5q139 0 214 53
t75 145q0 60 -36 102.5t-94 66.5t-127.5 43t-139.5 41.5t-128 53.5t-94 86.5t-36 133.5q0 130 97.5 207t270.5 77q97 0 189.5 -21.5t148.5 -45.5l-34 -78q-16 6 -44 15.5t-107 25.5t-148 16q-124 0 -200.5 -50.5t-76.5 -143.5q0 -53 28 -92t74 -61t105 -42.5t120.5 -35
t120.5 -39t105 -55t74 -82.5t28 -120q0 -130 -96.5 -206.5t-263.5 -81.5z" />
    <glyph glyph-name="Scaron" unicode="&#x160;" horiz-adv-x="1220" 
d="M387 1739h84l156 -144l153 144h86l-202 -219h-76zM618 -16q-253 0 -495 114l41 88q40 -18 87.5 -36.5t158 -43t211.5 -24.5q185 0 286 71.5t101 204.5q0 66 -30 116.5t-80 82.5t-115.5 57t-138 45.5t-144.5 42t-137.5 53t-115.5 72t-80 104.5t-30 146q0 173 126 273
t349 100q127 0 243.5 -28.5t191.5 -61.5l-39 -86q-21 9 -57.5 22.5t-139.5 35.5t-193 22q-167 0 -271.5 -68.5t-104.5 -200.5q0 -66 30 -117t80 -84t115.5 -58.5t137.5 -46.5t144 -43t137.5 -52.5t115.5 -71t80 -103t30 -142.5q0 -181 -132.5 -282t-361.5 -101z" />
    <glyph glyph-name="scaron" unicode="&#x161;" horiz-adv-x="970" 
d="M238 1411h86l155 -143l154 143h86l-203 -219h-78zM487 -16q-191 0 -376 86l34 77q41 -22 137 -48.5t203 -26.5q139 0 214 53t75 145q0 60 -36 102.5t-94 66.5t-127.5 43t-139.5 41.5t-128 53.5t-94 86.5t-36 133.5q0 130 97.5 207t270.5 77q97 0 189.5 -21.5t148.5 -45.5
l-34 -78q-16 6 -44 15.5t-107 25.5t-148 16q-124 0 -200.5 -50.5t-76.5 -143.5q0 -53 28 -92t74 -61t105 -42.5t120.5 -35t120.5 -39t105 -55t74 -82.5t28 -120q0 -134 -102.5 -211t-280.5 -77z" />
    <glyph glyph-name="Tcommaaccent" unicode="&#x162;" horiz-adv-x="1243" 
d="M49 1434h1145v-99h-522v-1335h-103v1335h-520v99zM614 -129q39 0 61.5 -32t22.5 -72q0 -107 -131 -173l-18 33q41 23 67.5 64t14.5 80q-12 -15 -35 -15q-22 0 -35.5 15.5t-13.5 38.5q0 27 20.5 44t46.5 17z" />
    <glyph glyph-name="tcommaaccent" unicode="&#x163;" horiz-adv-x="696" 
d="M252 1372h82v-307h293v-86h-293v-641q0 -124 43 -187t145 -63q66 0 144 16l16 -73q-91 -31 -172 -31q-154 0 -215.5 84.5t-61.5 257.5v637h-161v70l161 16zM391 -129q40 0 63 -32t23 -72q0 -56 -37 -100t-94 -73l-18 33q39 24 66 64.5t16 79.5q-12 -15 -35 -15
q-22 0 -35.5 15.5t-13.5 38.5q0 26 20 43.5t45 17.5z" />
    <glyph glyph-name="Tcaron" unicode="&#x164;" horiz-adv-x="1243" 
d="M49 1434h1145v-99h-522v-1335h-103v1335h-520v99zM381 1739h84l158 -144l151 144h88l-205 -219h-75z" />
    <glyph glyph-name="tcaron" unicode="&#x165;" horiz-adv-x="698" 
d="M252 1372h82v-307h293v-86h-293v-641q0 -124 43 -187t145 -63q66 0 144 16l16 -73q-91 -31 -172 -31q-154 0 -215.5 84.5t-61.5 257.5v637h-161v70l161 16zM604 1495q40 0 62 -32t22 -72q0 -109 -129 -172l-20 32q40 21 67.5 62.5t16.5 79.5q-19 -15 -37 -15
q-23 0 -36 16t-13 40q0 26 21 43.5t46 17.5z" />
    <glyph glyph-name="Tbar" unicode="&#x166;" horiz-adv-x="1251" 
d="M1059 709h-383v-709h-103v709h-385v61h385v565h-520v99h1145v-99h-522v-565h383v-61z" />
    <glyph glyph-name="tbar" unicode="&#x167;" horiz-adv-x="700" 
d="M74 811h162v168h-162v70l162 16l18 307h82v-307h293v-86h-293v-168h293v-47h-293v-426q0 -124 43 -187t145 -63q66 0 144 16l16 -73q-91 -31 -172 -31q-154 0 -215 84.5t-61 257.5v422h-162v47z" />
    <glyph glyph-name="Utilde" unicode="&#x168;" horiz-adv-x="1464" 
d="M205 1434h100v-969q0 -144 127.5 -255.5t300.5 -111.5q112 0 211.5 52t158 136.5t58.5 178.5v969h101v-842q0 -74 -7 -170q-12 -178 -164 -300t-358 -122q-137 0 -254.5 55.5t-188.5 152.5t-79 214q-6 82 -6 170v842zM479 1538l-39 29q31 53 76.5 83.5t97.5 30.5
q44 0 123.5 -38.5t128.5 -38.5q69 0 117 63l39 -29q-31 -54 -77 -84t-99 -30q-44 0 -123.5 39t-128.5 39q-27 0 -50 -10.5t-35.5 -22t-29.5 -31.5z" />
    <glyph glyph-name="utilde" unicode="&#x169;" horiz-adv-x="1245" 
d="M375 1210l-41 29q71 115 176 115q49 0 122.5 -39t129.5 -39q71 0 115 63l38 -28q-29 -54 -75.5 -84.5t-100.5 -30.5q-51 0 -125 39t-127 39q-27 0 -49.5 -10.5t-34.5 -22t-28 -31.5zM168 1065h102v-625q0 -172 81.5 -265t266.5 -93q140 0 243.5 103t103.5 245v635h102
v-1065h-78l-16 207q-54 -111 -152 -167t-219 -56q-218 0 -326 114t-108 328v639z" />
    <glyph glyph-name="Umacron" unicode="&#x16a;" horiz-adv-x="1464" 
d="M205 1434h100v-969q0 -94 58 -178.5t157.5 -136.5t212.5 -52t212.5 52t157.5 136.5t58 178.5v969h101v-842q0 -74 -7 -170q-12 -178 -163.5 -300t-358.5 -122t-358.5 122t-163.5 300q-6 82 -6 170v842zM434 1593h598v-73h-598v73z" />
    <glyph glyph-name="umacron" unicode="&#x16b;" horiz-adv-x="1245" 
d="M324 1266h598v-74h-598v74zM168 1065h102v-625q0 -172 81.5 -265t266.5 -93q140 0 243.5 103t103.5 245v635h102v-1065h-78l-16 207q-54 -111 -152 -167t-219 -56q-218 0 -326 114t-108 328v639z" />
    <glyph glyph-name="Ubreve" unicode="&#x16c;" horiz-adv-x="1464" 
d="M205 1434h100v-969q0 -94 58 -178.5t157.5 -136.5t212.5 -52t212.5 52t157.5 136.5t58 178.5v969h101v-842q0 -74 -7 -170q-12 -178 -163.5 -300t-358.5 -122t-358.5 122t-163.5 300q-6 82 -6 170v842zM496 1729h57q26 -70 64.5 -103t117.5 -33q78 0 116.5 32t63.5 104
h58q-16 -105 -71 -157t-167 -52q-113 0 -167 51t-72 158z" />
    <glyph glyph-name="ubreve" unicode="&#x16d;" horiz-adv-x="1245" 
d="M389 1401h55q26 -69 65.5 -102t119.5 -33q78 0 116.5 31.5t61.5 103.5h59q-16 -105 -71 -157t-166 -52q-113 0 -167.5 51t-72.5 158zM168 1065h102v-625q0 -172 81.5 -265t266.5 -93q140 0 243.5 103t103.5 245v635h102v-1065h-78l-16 207q-54 -111 -152 -167t-219 -56
q-218 0 -326 114t-108 328v639z" />
    <glyph glyph-name="Uring" unicode="&#x16e;" horiz-adv-x="1464" 
d="M205 1434h100v-969q0 -94 58 -178.5t157.5 -136.5t212.5 -52t212.5 52t157.5 136.5t58 178.5v969h101v-842q0 -74 -7 -170q-12 -178 -163.5 -300t-358.5 -122t-358.5 122t-163.5 300q-6 82 -6 170v842zM565 1681q0 70 50 116t118 46t118 -46t50 -116t-50 -115.5
t-118 -45.5t-118 45.5t-50 115.5zM852 1681q0 48 -36 79.5t-83 31.5t-83 -31.5t-36 -79.5t35.5 -79t83.5 -31t83.5 31t35.5 79z" />
    <glyph glyph-name="uring" unicode="&#x16f;" horiz-adv-x="1245" 
d="M436 1356q0 68 50.5 114t117.5 46q68 0 118 -45.5t50 -112.5q0 -72 -50 -119t-118 -47t-118 47t-50 117zM485 1354q0 -48 36.5 -79.5t82.5 -31.5q49 0 85 31t36 80t-37 79.5t-84 30.5t-83 -32t-36 -78zM168 1065h102v-625q0 -172 81.5 -265t266.5 -93q140 0 243.5 103
t103.5 245v635h102v-1065h-78l-16 207q-54 -111 -152 -167t-219 -56q-218 0 -326 114t-108 328v639z" />
    <glyph glyph-name="Uhungarumlaut" unicode="&#x170;" horiz-adv-x="1464" 
d="M205 1434h100v-969q0 -94 58 -178.5t157.5 -136.5t212.5 -52t212.5 52t157.5 136.5t58 178.5v969h101v-842q0 -74 -7 -170q-12 -178 -163.5 -300t-358.5 -122t-358.5 122t-163.5 300q-6 82 -6 170v842zM678 1812l98 -55l-153 -237h-58zM909 1812l97 -55l-152 -237h-59z
" />
    <glyph glyph-name="uhungarumlaut" unicode="&#x171;" horiz-adv-x="1245" 
d="M559 1485l98 -55l-153 -238h-58zM791 1485l98 -55l-154 -238h-57zM168 1065h102v-625q0 -172 81.5 -265t266.5 -93q140 0 243.5 103t103.5 245v635h102v-1065h-78l-16 207q-54 -111 -152 -167t-219 -56q-218 0 -326 114t-108 328v639z" />
    <glyph glyph-name="Uogonek" unicode="&#x172;" horiz-adv-x="1466" 
d="M205 1434h100v-969q0 -144 127.5 -255.5t300.5 -111.5q112 0 211.5 52t158 136.5t58.5 178.5v969h101v-967q0 -128 -70 -235t-189 -168t-260 -64q-135 -51 -135 -150q0 -43 25 -63t59 -20t86 14l19 -60q-42 -23 -90 -30q-73 -6 -124 30.5t-51 108.5q0 57 33.5 102
t91.5 72q-126 15 -228.5 78.5t-162.5 164.5t-61 220v967z" />
    <glyph glyph-name="uogonek" unicode="&#x173;" horiz-adv-x="1245" 
d="M168 1065h102v-625q0 -172 81.5 -265t266.5 -93q140 0 243.5 103t103.5 245v635h102v-1065h-10q-57 -21 -95 -59t-38 -91q0 -43 24 -63t58 -20t86 14l18 -60q-47 -30 -109 -30q-67 0 -110 36t-43 103q0 62 37.5 110t101.5 72l-14 195q-54 -111 -152 -167t-219 -56
q-218 0 -326 114t-108 328v639z" />
    <glyph glyph-name="Wcircumflex" unicode="&#x174;" horiz-adv-x="1933" 
d="M809 1520h-86l201 219h77l203 -219h-86l-153 145zM61 1434h111l369 -1272h4l368 1272h105l368 -1272h5l366 1272h113l-432 -1434h-103l-368 1270h-2l-369 -1270h-102z" />
    <glyph glyph-name="wcircumflex" unicode="&#x175;" horiz-adv-x="1595" 
d="M643 1192h-86l201 219h78l202 -219h-86l-153 145zM53 1065h105l301 -932h6l278 932h105l280 -932h7l301 932h104l-354 -1065h-107l-282 922h-2l-281 -922h-106z" />
    <glyph glyph-name="Ycircumflex" unicode="&#x176;" horiz-adv-x="1189" 
d="M438 1520h-84l201 219h76l203 -219h-86l-154 145zM643 0h-98v588l-510 846h112l445 -750h4l444 750h113l-510 -846v-588z" />
    <glyph glyph-name="ycircumflex" unicode="&#x177;" horiz-adv-x="1044" 
d="M45 1065h107l368 -950h4l367 950h108l-436 -1094q-18 -45 -31 -73.5t-35 -71t-44 -69t-51.5 -53t-66 -39.5t-77.5 -13q-73 0 -168 31l23 92q77 -25 139 -25q35 0 65.5 16t51.5 38t41.5 59.5t32.5 66t28 72.5zM373 1192h-84l200 219h76l203 -219h-86l-154 145z" />
    <glyph glyph-name="Ydieresis" unicode="&#x178;" horiz-adv-x="1189" 
d="M643 0h-98v588l-510 846h112l445 -750h4l444 750h113l-510 -846v-588zM487 1595q0 -33 -22.5 -54t-61.5 -21q-32 0 -54.5 21.5t-22.5 53.5t23 56t54 24q39 0 61.5 -22t22.5 -58zM864 1595q0 -33 -22 -54t-60 -21q-34 0 -57 21.5t-23 53.5t24 56t56 24q38 0 60 -22t22 -58
z" />
    <glyph glyph-name="Zacute" unicode="&#x179;" horiz-adv-x="1251" 
d="M109 1434h1046v-88l-938 -1254l2 -2l248 4h688v-94h-1073v76l946 1263q0 1 -1 2t-1 2l-328 -4h-589v95zM682 1823l100 -58l-164 -245h-57z" />
    <glyph glyph-name="zacute" unicode="&#x17a;" horiz-adv-x="1044" 
d="M104 1065h850v-78l-743 -901l2 -4l242 2h499v-84h-874v76l754 899l-3 4l-391 -2h-336v88zM559 1495l100 -57l-163 -246h-58z" />
    <glyph glyph-name="Zdotaccent" unicode="&#x17b;" horiz-adv-x="1251" 
d="M109 1434h1046v-88l-938 -1254l2 -2l248 4h688v-94h-1073v76l946 1263q0 1 -1 2t-1 2l-328 -4h-589v95zM702 1597q0 -33 -23.5 -55t-62.5 -22q-34 0 -56.5 22.5t-22.5 54.5q0 35 23 58.5t56 23.5q39 0 62.5 -22.5t23.5 -59.5z" />
    <glyph glyph-name="zdotaccent" unicode="&#x17c;" horiz-adv-x="1044" 
d="M104 1065h850v-78l-743 -901l2 -4l242 2h499v-84h-874v76l754 899l-3 4l-391 -2h-336v88zM604 1270q0 -33 -23.5 -55.5t-60.5 -22.5q-35 0 -58.5 22.5t-23.5 55.5q0 35 24 58.5t58 23.5q38 0 61 -22.5t23 -59.5z" />
    <glyph glyph-name="Zcaron" unicode="&#x17d;" horiz-adv-x="1251" 
d="M109 1434h1046v-88l-938 -1254l2 -2l248 4h688v-94h-1073v76l946 1263q0 1 -1 2t-1 2l-328 -4h-589v95zM397 1739h86l156 -144l154 144h86l-203 -219h-78z" />
    <glyph glyph-name="zcaron" unicode="&#x17e;" horiz-adv-x="1044" 
d="M104 1065h850v-78l-743 -901l2 -4l242 2h499v-84h-874v76l754 899l-3 4l-391 -2h-336v88zM291 1411h84l155 -143l154 143h86l-203 -219h-75z" />
    <glyph glyph-name="AEacute" unicode="&#x1fc;" horiz-adv-x="1914" 
d="M1264 1823l100 -58l-164 -245h-57zM1804 0h-925v408h-533l-190 -408h-113l678 1434h1048v-99h-788v-590h668v-96h-668v-553h823v-96zM879 1335h-105l-393 -841h498v841z" />
    <glyph glyph-name="aeacute" unicode="&#x1fd;" horiz-adv-x="1927" 
d="M1061 1495l100 -57l-164 -246h-57zM567 1081q157 0 249 -48.5t124 -153.5q72 95 177.5 148.5t230.5 53.5q111 0 204.5 -45.5t153.5 -121t93.5 -171t33.5 -196.5l-4 -53h-899q9 -177 133.5 -295.5t312.5 -118.5q154 0 334 80l37 -84q-189 -92 -371 -92q-152 0 -272.5 67
t-196.5 185q-74 -124 -187 -188t-249 -64q-77 0 -144.5 19.5t-122.5 58.5t-86.5 105.5t-31.5 154.5q0 84 37 146.5t101.5 98.5t143.5 53t171 17q111 0 290 -27q8 60 31 123q0 145 -79 202.5t-230 57.5q-190 0 -336 -47l-22 78q195 57 374 57zM483 70q133 0 242 80.5
t131 195.5q-31 88 -31 184q-186 27 -278 27q-70 0 -130 -10.5t-116 -35t-88.5 -73t-32.5 -116.5q0 -86 45 -144.5t111 -83t147 -24.5zM928 571h805q0 74 -25.5 146.5t-71.5 132.5t-120.5 97.5t-163.5 37.5q-170 0 -292.5 -121t-131.5 -293z" />
    <glyph glyph-name="Oslashacute" unicode="&#x1fe;" horiz-adv-x="1710" 
d="M125 717q0 201 99 370t266.5 266t363.5 97q199 0 371 -104l94 145h76l-117 -180q142 -102 224.5 -257.5t82.5 -336.5q0 -201 -98.5 -370t-266.5 -266t-366 -97q-200 0 -365 98l-92 -143h-78l115 178q-143 100 -226 258.5t-83 341.5zM231 715q0 -159 68 -294t188 -222
l684 1063q-154 90 -319 90q-170 0 -313 -84.5t-225.5 -231t-82.5 -321.5zM1479 715q0 154 -68 288t-186 224l-684 -1063q142 -82 313 -82q173 0 317 84t226 229.5t82 319.5zM958 1823l101 -58l-164 -245h-57z" />
    <glyph glyph-name="oslashacute" unicode="&#x1ff;" horiz-adv-x="1310" 
d="M111 532q0 113 43 215t115.5 175t173 116t210.5 43q147 0 273 -71l84 129h67l-104 -160q105 -75 166 -192.5t61 -254.5q0 -228 -160 -388t-387 -160q-148 0 -272 73l-80 -125h-68l101 156q-103 75 -163 191.5t-60 252.5zM1098 532q0 110 -47 205t-129 160l-490 -760
q99 -61 221 -61q185 0 315 134t130 322zM653 989q-184 0 -312 -133t-128 -324q0 -108 46 -203t126 -159l489 760q-105 59 -221 59zM725 1495l100 -57l-166 -246h-57z" />
    <glyph glyph-name="Scommaaccent" unicode="&#x218;" horiz-adv-x="1220" 
d="M584 -129q40 0 63 -32t23 -72q0 -56 -37.5 -101t-93.5 -72l-21 35q39 23 65 62t15 76q-14 -11 -31 -11q-21 0 -35 17t-14 39q0 25 20.5 42t45.5 17zM618 -16q-253 0 -495 114l41 88q40 -18 87.5 -36.5t158 -43t211.5 -24.5q185 0 286 71.5t101 204.5q0 66 -30 116.5
t-80 82.5t-115.5 57t-138 45.5t-144.5 42t-137.5 53t-115.5 72t-80 104.5t-30 146q0 173 126 273t349 100q127 0 243.5 -28.5t191.5 -61.5l-39 -86q-21 9 -57.5 22.5t-139.5 35.5t-193 22q-167 0 -271.5 -68.5t-104.5 -200.5q0 -66 30 -117t80 -84t115.5 -58.5t137.5 -46.5
t144 -43t137.5 -52.5t115.5 -71t80 -103t30 -142.5q0 -181 -132.5 -282t-361.5 -101z" />
    <glyph glyph-name="scommaaccent" unicode="&#x219;" horiz-adv-x="970" 
d="M479 -129q40 0 63 -32t23 -72q0 -56 -37 -100t-94 -73l-18 33q39 24 66 64.5t16 79.5q-15 -15 -37 -15q-21 0 -35 16t-14 38q0 26 21 43.5t46 17.5zM487 -16q-191 0 -376 86l34 77q41 -22 137 -48.5t203 -26.5q139 0 214 53t75 145q0 60 -36 102.5t-94 66.5t-127.5 43
t-139.5 41.5t-128 53.5t-94 86.5t-36 133.5q0 130 97.5 207t270.5 77q97 0 189.5 -21.5t148.5 -45.5l-34 -78q-16 6 -44 15.5t-107 25.5t-148 16q-124 0 -200.5 -50.5t-76.5 -143.5q0 -53 28 -92t74 -61t105 -42.5t120.5 -35t120.5 -39t105 -55t74 -82.5t28 -120
q0 -134 -102.5 -211t-280.5 -77z" />
    <glyph glyph-name="circumflex" unicode="&#x2c6;" horiz-adv-x="763" 
d="M197 1288h-84l200 219h76l203 -219h-86l-154 144z" />
    <glyph glyph-name="caron" unicode="&#x2c7;" horiz-adv-x="763" 
d="M137 1507h84l156 -143l153 143h86l-202 -219h-76z" />
    <glyph glyph-name="breve" unicode="&#x2d8;" horiz-adv-x="782" 
d="M152 1487h57q26 -69 64.5 -101t117.5 -32t118 31t62 102h58q-16 -105 -71 -156t-167 -51t-166.5 50t-72.5 157z" />
    <glyph glyph-name="dotaccent" unicode="&#x2d9;" horiz-adv-x="593" 
d="M305 1458q0 -34 -23.5 -56t-62.5 -22q-34 0 -57 22t-23 56q0 33 23.5 56.5t56.5 23.5q39 0 62.5 -22t23.5 -58z" />
    <glyph glyph-name="ring" unicode="&#x2da;" horiz-adv-x="641" 
d="M154 1339q0 70 50 116t118 46t117.5 -46t49.5 -116t-49.5 -115.5t-117.5 -45.5t-118 45.5t-50 115.5zM440 1339q0 48 -35.5 79.5t-82.5 31.5t-83 -31.5t-36 -79.5t35.5 -79t83.5 -31t83 31t35 79z" />
    <glyph glyph-name="ogonek" unicode="&#x2db;" horiz-adv-x="483" 
d="M313 31l9 -31q-136 -50 -136 -150q0 -43 25 -63t59 -20q35 0 84 14l19 -60q-40 -23 -90 -30q-73 -6 -122.5 30.5t-49.5 108.5q0 75 56 128.5t146 72.5z" />
    <glyph glyph-name="tilde" unicode="&#x2dc;" horiz-adv-x="866" 
d="M150 1288l-41 31q33 54 79.5 84.5t100.5 30.5q41 0 118.5 -40t129.5 -40q70 0 114 63l39 -28q-30 -53 -77 -84t-101 -31q-44 0 -122.5 39t-127.5 39q-27 0 -49.5 -10.5t-34.5 -22t-28 -31.5z" />
    <glyph glyph-name="hungarumlaut" unicode="&#x2dd;" horiz-adv-x="763" 
d="M266 1509l96 -57l-153 -235h-57zM498 1509l96 -57l-154 -235h-57z" />
    <glyph glyph-name="mu" unicode="&#x3bc;" horiz-adv-x="1269" 
d="M178 1065h96v-629q0 -152 97 -246t250 -94q174 0 272 89t98 259v621h99v-1065h-76l-19 195q-47 -93 -145 -144t-229 -51q-123 0 -218 56.5t-129 148.5v-553h-96v1413z" />
    <glyph glyph-name="Wgrave" unicode="&#x1e80;" horiz-adv-x="1933" 
d="M770 1765l100 58l121 -303h-57zM61 1434h111l369 -1272h4l368 1272h105l368 -1272h5l366 1272h113l-432 -1434h-103l-368 1270h-2l-369 -1270h-102z" />
    <glyph glyph-name="wgrave" unicode="&#x1e81;" horiz-adv-x="1595" 
d="M604 1438l101 57l120 -303h-57zM53 1065h105l301 -932h6l278 932h105l280 -932h7l301 932h104l-354 -1065h-107l-282 922h-2l-281 -922h-106z" />
    <glyph glyph-name="Wacute" unicode="&#x1e82;" horiz-adv-x="1933" 
d="M1065 1823l100 -58l-164 -245h-57zM61 1434h111l369 -1272h4l368 1272h105l368 -1272h5l366 1272h113l-432 -1434h-103l-368 1270h-2l-369 -1270h-102z" />
    <glyph glyph-name="wacute" unicode="&#x1e83;" horiz-adv-x="1595" 
d="M899 1495l100 -57l-163 -246h-58zM53 1065h105l301 -932h6l278 932h105l280 -932h7l301 932h104l-354 -1065h-107l-282 922h-2l-281 -922h-106z" />
    <glyph glyph-name="Wdieresis" unicode="&#x1e84;" horiz-adv-x="1933" 
d="M61 1434h111l369 -1272h4l368 1272h105l368 -1272h5l366 1272h113l-432 -1434h-103l-368 1270h-2l-369 -1270h-102zM860 1595q0 -33 -22.5 -54t-61.5 -21q-33 0 -55.5 21.5t-22.5 53.5t23.5 56t54.5 24q39 0 61.5 -22t22.5 -58zM1237 1595q0 -33 -22 -54t-60 -21
q-34 0 -57 21.5t-23 53.5t24 56t56 24q38 0 60 -22t22 -58z" />
    <glyph glyph-name="wdieresis" unicode="&#x1e85;" horiz-adv-x="1595" 
d="M1067 1268q0 -33 -23 -54.5t-61 -21.5q-34 0 -56 22t-22 54q0 33 23.5 56.5t54.5 23.5q38 0 61 -22t23 -58zM690 1268q0 -33 -23 -54.5t-61 -21.5q-34 0 -56 22t-22 54q0 33 23.5 56.5t54.5 23.5q38 0 61 -22t23 -58zM53 1065h105l301 -932h6l278 932h105l280 -932h7
l301 932h104l-354 -1065h-107l-282 922h-2l-281 -922h-106z" />
    <glyph glyph-name="germandbls.case" unicode="&#x1e9e;" horiz-adv-x="1484" 
d="M217 940q0 108 29.5 199.5t86.5 161.5t150 109.5t213 39.5t239 -45t208 -150q-55 -94 -104.5 -172.5t-96.5 -151t-70 -108.5q80 -12 145.5 -30.5t128.5 -51.5t105.5 -78t68.5 -112.5t26 -151.5q0 -189 -142 -313.5t-346 -124.5q-161 0 -297 68l35 86q39 -22 114.5 -39
t145.5 -17q95 0 183 40t147 120.5t59 183.5q0 74 -25 131t-64 93t-99.5 62t-120 39t-135.5 22l-35 65l262 422q-46 49 -140 84t-188 35q-102 0 -178 -33t-119.5 -91.5t-64.5 -131t-21 -160.5v-940h-100v940z" />
    <glyph glyph-name="Ygrave" unicode="&#x1ef2;" horiz-adv-x="1189" 
d="M422 1765l100 58l121 -303h-57zM643 0h-98v588l-510 846h112l445 -750h4l444 750h113l-510 -846v-588z" />
    <glyph glyph-name="ygrave" unicode="&#x1ef3;" horiz-adv-x="1044" 
d="M45 1065h107l368 -950h4l367 950h108l-436 -1094q-18 -45 -31 -73.5t-35 -71t-44 -69t-51.5 -53t-66 -39.5t-77.5 -13q-73 0 -168 31l23 92q77 -25 139 -25q35 0 65.5 16t51.5 38t41.5 59.5t32.5 66t28 72.5zM340 1438l100 57l123 -303h-57z" />
    <glyph glyph-name="endash" unicode="&#x2013;" horiz-adv-x="1449" 
d="M158 692h1134v-78h-1134v78z" />
    <glyph glyph-name="emdash" unicode="&#x2014;" horiz-adv-x="1552" 
d="M158 692h1239v-78h-1239v78z" />
    <glyph glyph-name="quoteleft" unicode="&#x2018;" horiz-adv-x="471" 
d="M242 1051q-53 0 -85 47.5t-32 107.5q0 77 55 140.5t135 101.5l25 -39q-58 -33 -104.5 -99.5t-16.5 -123.5q8 22 45 22q35 0 51.5 -22t16.5 -51q0 -37 -28 -60.5t-62 -23.5z" />
    <glyph glyph-name="quoteright" unicode="&#x2019;" horiz-adv-x="473" 
d="M240 1448q52 0 83 -47.5t31 -106.5q0 -78 -54.5 -141t-133.5 -102l-25 39q24 15 49 37.5t49 54.5t30.5 64.5t-7.5 66.5q-10 -23 -47 -23q-34 0 -51 23.5t-17 52.5q0 37 29.5 59.5t63.5 22.5z" />
    <glyph glyph-name="quotesinglbase" unicode="&#x201a;" horiz-adv-x="479" 
d="M233 158q52 0 83.5 -48t31.5 -108q0 -77 -55 -140.5t-133 -101.5l-25 39q33 19 66 53.5t55 81.5t0 89q-10 -23 -47 -23q-34 0 -51 22.5t-17 51.5q0 37 29 60.5t63 23.5z" />
    <glyph glyph-name="quotedblleft" unicode="&#x201c;" horiz-adv-x="817" 
d="M584 1051q-52 0 -84.5 47t-32.5 106q0 79 55 142.5t135 101.5l25 -39q-59 -35 -105 -100.5t-16 -122.5q10 22 45 22t51.5 -23t16.5 -52q0 -37 -28 -59.5t-62 -22.5zM250 1051q-52 0 -84.5 47t-32.5 106q0 78 55.5 142t135.5 102l24 -39q-59 -35 -105 -100.5t-16 -122.5
q10 22 45 22t51.5 -23t16.5 -52q0 -37 -28 -59.5t-62 -22.5z" />
    <glyph glyph-name="quotedblright" unicode="&#x201d;" horiz-adv-x="823" 
d="M248 1448q52 0 84.5 -48t32.5 -108q0 -77 -55.5 -140t-135.5 -101l-24 39q58 33 104 99.5t16 123.5q-10 -23 -45 -23t-51 22.5t-16 51.5q0 37 28 60.5t62 23.5zM582 1448q52 0 84 -48t32 -108q0 -77 -55 -140t-135 -101l-25 39q58 33 104.5 99.5t16.5 123.5
q-10 -23 -45 -23t-51 22.5t-16 51.5q0 37 28 60.5t62 23.5z" />
    <glyph glyph-name="quotedblbase" unicode="&#x201e;" horiz-adv-x="827" 
d="M240 158q52 0 84 -48t32 -108q0 -77 -55 -140.5t-135 -101.5l-25 39q58 33 104.5 100t16.5 124q-10 -23 -45 -23t-51 22.5t-16 51.5q0 37 28 60.5t62 23.5zM573 158q52 0 84.5 -48t32.5 -108q0 -77 -55 -140.5t-135 -101.5l-25 39q58 33 104.5 100t16.5 124
q-10 -23 -45 -23t-51.5 22.5t-16.5 51.5q0 37 28 60.5t62 23.5z" />
    <glyph glyph-name="dagger" unicode="&#x2020;" horiz-adv-x="1024" 
d="M461 1434h102l-14 -1225h-74zM125 1100l276 -25v-59l-276 -19v103zM899 1100v-103l-276 19v59z" />
    <glyph glyph-name="daggerdbl" unicode="&#x2021;" horiz-adv-x="1058" 
d="M477 1434h105l-17 -1434h-71zM918 1100v-103l-277 19v59zM141 1100l279 -25v-59l-279 -19v103zM918 524v-104l-277 18v62zM141 524l279 -24v-62l-279 -18v104z" />
    <glyph glyph-name="bullet" unicode="&#x2022;" horiz-adv-x="598" 
d="M299 872q63 0 108.5 -45.5t45.5 -109.5q0 -62 -45.5 -107t-108.5 -45t-108.5 46t-45.5 110q0 62 45.5 106.5t108.5 44.5z" />
    <glyph glyph-name="ellipsis" unicode="&#x2026;" horiz-adv-x="1224" 
d="M238 168q37 0 62.5 -25.5t25.5 -62.5q0 -35 -25.5 -60.5t-62.5 -25.5t-62.5 25.5t-25.5 60.5q0 37 25.5 62.5t62.5 25.5zM606 168q37 0 62.5 -25.5t25.5 -62.5q0 -35 -25.5 -60.5t-62.5 -25.5t-62.5 25.5t-25.5 60.5q0 37 25.5 62.5t62.5 25.5zM987 168q37 0 62.5 -25.5
t25.5 -62.5q0 -35 -25.5 -60.5t-62.5 -25.5q-35 0 -60.5 25.5t-25.5 60.5q0 37 25.5 62.5t60.5 25.5z" />
    <glyph glyph-name="perthousand" unicode="&#x2030;" horiz-adv-x="2490" 
d="M1219 -16q-141 0 -229.5 97t-88.5 245q0 151 89.5 251.5t230.5 100.5t229 -99t88 -249t-88 -248t-231 -98zM2060 -16q-142 0 -229.5 97.5t-87.5 246.5q0 152 88 251t231 99q141 0 228.5 -99t87.5 -249q0 -149 -88.5 -247.5t-229.5 -98.5zM1223 59q104 0 165.5 75.5
t61.5 193.5q0 119 -64 196.5t-167 77.5q-105 0 -167.5 -75.5t-62.5 -194.5t65 -196t169 -77zM2062 59q104 0 166 75.5t62 193.5q0 119 -64 196.5t-168 77.5t-166.5 -75.5t-62.5 -194.5q0 -118 65 -195.5t168 -77.5zM360 0l826 1434h98l-825 -1434h-99zM432 756
q-141 0 -229 97t-88 245q0 151 89 251.5t230 100.5t229.5 -99t88.5 -249t-88.5 -248t-231.5 -98zM436 831q104 0 166 75.5t62 193.5t-64.5 196t-167.5 78q-105 0 -167 -75.5t-62 -194.5t64.5 -196t168.5 -77z" />
    <glyph glyph-name="guilsinglleft" unicode="&#x2039;" horiz-adv-x="706" 
d="M526 999l54 -55l-342 -412l340 -415l-52 -54l-413 463v15z" />
    <glyph glyph-name="guilsinglright" unicode="&#x203a;" horiz-adv-x="706" 
d="M180 999l412 -458v-15l-412 -463l-51 54l340 415l-342 412z" />
    <glyph glyph-name="fraction" unicode="&#x2044;" horiz-adv-x="788" 
d="M680 1434h90l-655 -1434h-92z" />
    <glyph glyph-name="Euro" unicode="&#x20ac;" horiz-adv-x="1638" 
d="M125 621h231q-6 47 -6 96q0 61 8 110h-233v68h248q61 240 259.5 397.5t450.5 157.5q106 0 218.5 -28.5t203.5 -73.5l-39 -80q-20 9 -54.5 23t-134.5 37.5t-190 23.5q-215 0 -381.5 -128t-222.5 -329h555v-68h-573q-8 -74 -8 -110q0 -3 6 -96h575v-68h-559
q51 -207 220.5 -339t390.5 -132q90 0 184 21.5t143 42.5l49 22l39 -80q-210 -104 -422 -104q-253 0 -456 160.5t-260 408.5h-242v68z" />
    <glyph glyph-name="trademark" unicode="&#x2122;" horiz-adv-x="1597" 
d="M160 1434h497v-70h-213v-557h-69v557h-215v70zM811 1434h66l231 -396l223 396h66v-627h-66v489l-201 -360h-45l-208 377v-506h-66v627z" />
    <glyph glyph-name="commaaccent" unicode="&#xf6c3;" horiz-adv-x="475" 
d="M301 -125q40 0 62 -32t22 -72q0 -109 -129 -172l-20 30q40 23 67 64.5t16 79.5q-15 -15 -36 -15q-23 0 -36.5 16t-13.5 40q0 25 21.5 43t46.5 18z" />
    <glyph glyph-name="CR" horiz-adv-x="585" 
 />
    <glyph glyph-name="a.alt" horiz-adv-x="1306" 
d="M629 989q-174 0 -296 -133t-122 -326q0 -190 120.5 -322t299.5 -132q174 0 290.5 130t116.5 326t-114.5 326.5t-294.5 130.5zM616 1081q137 0 247.5 -65.5t168.5 -196.5l17 246h79v-1065h-102v242q-45 -120 -158 -189t-250 -69q-149 0 -266.5 77t-179 200t-61.5 265
q0 152 65.5 279t181.5 201.5t258 74.5z" />
    <glyph glyph-name="g.alt" horiz-adv-x="1282" 
d="M172 -252l33 80q71 -36 169 -60t197 -24q194 0 314.5 101.5t120.5 287.5v172q-45 -103 -157.5 -164t-264.5 -61q-199 0 -336 142.5t-137 359.5t137 358t336 141q152 0 266.5 -63t159.5 -168l22 215h72v-915q0 -242 -139.5 -370t-378.5 -128q-230 0 -414 96zM606 170
q190 0 300 118t110 294q0 177 -109 293t-301 116q-170 0 -282.5 -119t-112.5 -290q0 -170 112.5 -291t282.5 -121z" />
    <glyph glyph-name="f_b" horiz-adv-x="1947" 
d="M903 1163v-332q58 115 172.5 182.5t249.5 67.5q149 0 267.5 -76.5t181.5 -200.5t63 -269q0 -150 -67.5 -276t-188.5 -200.5t-268 -74.5q-133 0 -244 70t-170 198l-16 -252h-78v1165q0 131 -68 205t-180 74q-110 0 -176 -76t-66 -203v-100h269v-86h-269v-979h-100v979
h-137v70l137 16v92q0 172 95 275.5t245 103.5q151 0 249.5 -99t98.5 -274zM1315 989q-179 0 -299.5 -126.5t-120.5 -319.5q0 -126 54 -233t150.5 -170.5t213.5 -63.5q178 0 301 134.5t123 326.5t-121.5 322t-300.5 130z" />
    <glyph glyph-name="f_f_b" horiz-adv-x="2488" 
d="M627 1497l-11 -86q-56 12 -116 12q-103 0 -144 -58.5t-41 -164.5v-135h441v92q0 172 95 275.5t245 103.5t249 -100.5t99 -276.5v-332q59 116 173 185t249 69q149 0 267.5 -76.5t181.5 -200.5t63 -269q0 -150 -68 -276t-189 -200.5t-268 -74.5q-133 0 -243.5 70
t-169.5 198l-17 -252h-77v1165q0 131 -68 205t-180 74q-110 0 -176 -76t-66 -203v-100h268v-86h-268v-979h-100v979h-441v-979h-100v979h-137v72l137 14v137q0 155 64 234.5t215 79.5q71 0 133 -19zM1855 989q-178 0 -298.5 -128t-120.5 -322q0 -126 53.5 -232t150 -168.5
t213.5 -62.5q178 0 301 134.5t123 326.5t-121.5 322t-300.5 130z" />
    <glyph glyph-name="f_h" horiz-adv-x="1869" 
d="M905 1159v-291q44 104 142 158.5t221 54.5q214 0 323 -112t109 -330v-639h-103v625q0 358 -346 358q-141 0 -243.5 -103t-102.5 -251v-629h-102v1165q0 131 -68 205t-180 74q-110 0 -176 -76t-66 -203v-100h269v-86h-269v-979h-100v979h-137v70l137 16v92
q0 172 95.5 275.5t244.5 103.5q151 0 251.5 -101t100.5 -276z" />
    <glyph glyph-name="f_f_h" horiz-adv-x="2414" 
d="M629 1497l-11 -86q-55 12 -116 12q-103 0 -144 -58.5t-41 -164.5v-135h441v92q0 172 95.5 275.5t244.5 103.5q151 0 251.5 -101t100.5 -276v-291q44 104 141.5 158.5t220.5 54.5q215 0 324 -112.5t109 -329.5v-639h-103v625q0 358 -346 358q-141 0 -243.5 -103
t-102.5 -251v-629h-102v1165q0 131 -68 205t-180 74q-110 0 -176 -76t-66 -203v-100h268v-86h-268v-979h-100v979h-441v-979h-100v979h-137v70l137 16v137q0 155 64 234.5t215 79.5q71 0 133 -19z" />
    <glyph glyph-name="f_k" horiz-adv-x="1615" 
d="M903 1159v-706l524 612h132l-433 -490l437 -575h-119l-377 500l-164 -187v-313h-100v1161q0 129 -69 206t-179 77t-175 -77t-65 -208v-94h275v-86h-275v-979h-100v979h-137v70l137 16v92q0 172 94.5 275.5t243.5 103.5q151 0 250.5 -100.5t99.5 -276.5z" />
    <glyph glyph-name="f_f_k" horiz-adv-x="2160" 
d="M629 1499l-11 -86q-55 12 -116 12q-103 0 -144 -58.5t-41 -164.5v-137h441v94q0 173 94.5 276t245.5 103q152 0 251 -100t99 -277v-708l252 295l272 317h131l-432 -490l436 -575h-118l-377 500l-162 -183v-317h-102v1167q0 131 -68 205t-180 74t-177 -73.5t-65 -205.5
v-102h275v-86h-275v-979h-100v979h-441v-979h-100v979h-137v70l137 16v139q0 155 64 234.5t215 79.5q71 0 133 -19z" />
    <glyph glyph-name="dollar.tnum" 
d="M745 1616v-166q207 -7 400 -90l-41 -86q-21 9 -58 22.5t-140.5 35.5t-194.5 22q-171 0 -279 -68.5t-108 -200.5q0 -66 30.5 -117t81.5 -84t117.5 -58.5t140 -46.5t147 -43t140 -52.5t117.5 -71t81.5 -103t30.5 -142.5q0 -175 -125 -275t-340 -108v-156h-75v156
q-103 5 -210 29.5t-160.5 45t-92.5 39.5l43 88q34 -17 86 -36.5t163 -43.5t214 -24q187 0 290 71.5t103 204.5q0 84 -49 142.5t-127 92t-172 60t-188.5 57t-172.5 72t-127 116.5t-49 179q0 165 119 265.5t330 107.5v166h75z" />
    <glyph glyph-name="percent.tnum" 
d="M326 754q-133 0 -218 99t-85 247v4q0 148 85 247t218 99q136 0 219.5 -98.5t83.5 -247.5v-4q0 -149 -83.5 -247.5t-219.5 -98.5zM254 0l788 1434h99l-789 -1434h-98zM1077 -16q-136 0 -219.5 97.5t-83.5 246.5v4q0 149 84.5 247.5t220.5 98.5q134 0 218.5 -98.5
t84.5 -245.5v-4q0 -149 -85 -247.5t-220 -98.5zM328 831q99 0 157 74.5t58 192.5v4q0 118 -60.5 195t-158.5 77q-97 0 -156 -76t-59 -192v-4q0 -116 61.5 -193.5t157.5 -77.5zM1081 59q97 0 155 75.5t58 193.5v4q0 116 -60 193t-157 77q-99 0 -157 -74.5t-58 -191.5v-4
q0 -119 60.5 -196t158.5 -77z" />
    <glyph glyph-name="plus.tnum" 
d="M659 1042h82v-350h392v-80h-392v-352h-82v352h-389v80h389v350z" />
    <glyph glyph-name="hyphen.tnum" 
d="M301 692h801v-78h-801v78z" />
    <glyph glyph-name="zero.tnum" 
d="M700 -16q-130 0 -238.5 58.5t-180 158t-111 231t-39.5 279.5q0 118 24.5 227.5t73.5 202.5t117 162t159.5 108t196.5 39q130 0 238.5 -59.5t180.5 -160.5t111.5 -234t39.5 -281t-39.5 -280t-111.5 -232.5t-181 -159.5t-240 -59zM705 78q142 0 248 88t159 230t53 315
q0 171 -53.5 316t-161.5 237t-250 92t-249.5 -90.5t-161 -235t-53.5 -317.5q0 -127 32 -241t90.5 -202t148.5 -140t198 -52z" />
    <glyph glyph-name="one.tnum" 
d="M354 0v90h359v1219l-4 2l-283 -105l-41 76l346 152h80v-1344h371v-90h-828z" />
    <glyph glyph-name="two.tnum" horiz-adv-x="1413" 
d="M252 1339q82 46 186.5 78.5t208.5 32.5q206 0 342.5 -112.5t136.5 -295.5q0 -253 -340 -553l-452 -401h833v-88h-968v82l524 477q42 40 74.5 72t78.5 86.5t76 102t52 106.5t22 112q0 144 -109.5 231t-277.5 87q-166 2 -352 -88z" />
    <glyph glyph-name="three.tnum" 
d="M279 1298l-35 76q207 76 383 76q67 0 132 -15t123 -46t102.5 -73t70.5 -100.5t26 -125.5q0 -127 -83.5 -208.5t-204.5 -107.5q163 -30 265.5 -132t102.5 -247q0 -123 -74 -218t-192.5 -144t-257.5 -49q-206 0 -399 90l34 73q170 -71 357 -71q109 0 206 36.5t161.5 111
t64.5 171.5q0 71 -32.5 132.5t-86 103t-120 67.5t-136.5 33q-64 6 -207 6v72q143 0 205 6q53 5 104.5 25.5t95 53t70.5 83t27 110.5q0 84 -56 147t-138.5 92.5t-174.5 29.5q-147 0 -333 -58z" />
    <glyph glyph-name="four.tnum" 
d="M956 1434h76v-969h197v-90h-197v-375h-94v375h-795v80zM938 1266l-682 -801h682v801z" />
    <glyph glyph-name="five.tnum" 
d="M1114 1434v-88h-665l-68 -515q156 87 305 87q138 0 255 -60t186 -165.5t69 -231.5q0 -135 -76 -245t-202.5 -171t-274.5 -61q-213 0 -430 104l35 76q70 -34 173.5 -59t217.5 -25q123 0 228.5 52.5t167 141.5t61.5 191q0 151 -124.5 256.5t-301.5 105.5q-165 0 -316 -106
l-82 41l93 672h749z" />
    <glyph glyph-name="six.tnum" 
d="M1151 1356l-31 -78q-175 63 -334 63q-114 0 -200 -37.5t-140 -100.5t-87.5 -157t-46.5 -195t-13 -226h4q47 124 171 201t276 77q126 0 232 -53.5t171.5 -157.5t65.5 -239q0 -204 -142 -336.5t-366 -132.5q-131 0 -229 50t-157.5 141.5t-88.5 213t-29 273.5q0 74 6.5 144
t23.5 148.5t43.5 145.5t71 130t101.5 107t138.5 70.5t178.5 26.5q177 0 381 -78zM735 811q-169 0 -289 -106t-120 -267q0 -154 111 -258t282 -104q178 0 291.5 111t113.5 268q0 153 -111.5 254.5t-277.5 101.5z" />
    <glyph glyph-name="seven.tnum" 
d="M211 1434h1006v-86l-676 -1348h-107l676 1341h-899v93z" />
    <glyph glyph-name="eight.tnum" 
d="M705 1450q108 0 200.5 -42.5t149.5 -124.5t57 -187q0 -113 -70.5 -198.5t-175.5 -115.5q139 -36 234.5 -137.5t95.5 -245.5q0 -126 -71 -222.5t-181.5 -144.5t-238.5 -48q-131 0 -243 48.5t-182.5 143.5t-70.5 219q0 139 95.5 246.5t236.5 140.5q-109 31 -177.5 117
t-68.5 197q0 104 57.5 186t150.5 125t202 43zM707 727q-176 0 -289 -96.5t-113 -233.5q0 -140 113 -232.5t287 -92.5q170 0 283.5 90t113.5 237q0 144 -112.5 236t-282.5 92zM705 1362q-83 0 -154.5 -31t-117.5 -94t-46 -147q0 -118 86.5 -194.5t231.5 -76.5t231 75.5
t86 192.5q0 84 -46 148t-117 95.5t-154 31.5z" />
    <glyph glyph-name="nine.tnum" 
d="M193 63l30 78q168 -65 334 -65q90 0 161 26.5t120 76t83 114t53 148.5t27.5 170t8.5 188h-4q-46 -130 -164 -201.5t-262 -71.5q-122 0 -225.5 54.5t-166.5 158.5t-63 236q0 130 57.5 237t170.5 172.5t261 65.5q158 0 269.5 -83t165 -227.5t53.5 -338.5q0 -85 -6.5 -163.5
t-23.5 -162t-43.5 -154t-68.5 -134t-96 -107.5t-129.5 -70t-165.5 -26q-182 0 -376 79zM592 618q161 0 276 104.5t115 260.5q0 150 -103 262.5t-262 112.5q-125 0 -217.5 -54t-137 -139t-44.5 -188q0 -156 108 -257.5t265 -101.5z" />
    <glyph glyph-name="equal.tnum" 
d="M319 862h764v-80h-764v80zM319 547h764v-80h-764v80z" />
    <glyph glyph-name="cent.tnum" 
d="M823 -180h-71v164q-223 9 -376 170t-153 383q0 143 67 265.5t189 199t273 85.5v154h71v-151q179 -5 328 -70l-39 -78l-8 3q-8 3 -23 7.5t-35 10t-47 11.5t-57 10.5t-67 7.5t-74 3q-139 0 -249 -65t-168 -169t-58 -224t58.5 -224.5t168.5 -169.5t246 -65q27 0 54 1.5
t49.5 4t45 5.5t40.5 7t35 8t29.5 7.5t24 7t18.5 6t12 4.5l5 2l35 -78q-43 -26 -133 -45t-191 -24v-164z" />
    <glyph glyph-name="sterling.tnum" 
d="M1124 1288l-71 -67q-105 127 -271 127q-140 0 -236.5 -92t-96.5 -228v-313h557v-70h-557v-194q0 -61 -19 -201q-1 -31 -10 -58.5t-20.5 -44.5t-25.5 -31.5t-22 -20t-12 -7.5h844v-88h-959v86q5 3 13.5 8t29.5 23.5t37 40.5t29.5 59t13.5 78v350h-123v70h123v252
q0 57 2 84q7 171 131 285t301 114q99 0 189 -44t153 -118z" />
    <glyph glyph-name="yen.tnum" 
d="M131 1434h117l280 -459l172 -285h5l174 287l280 457h113l-518 -846v-64h282v-67h-282v-105h282v-67h-282v-285h-103v285h-295v67h295v105h-295v67h295v64z" />
    <glyph glyph-name="multiply.tnum" 
d="M424 944l276 -235l279 239l47 -53l-272 -236l270 -229l-47 -55l-277 239l-276 -239l-47 53l270 231l-270 232z" />
    <glyph glyph-name="divide.tnum" 
d="M702 1057q36 0 62.5 -25.5t26.5 -60.5q0 -36 -26.5 -62t-62.5 -26q-37 0 -63.5 24.5t-26.5 63.5q0 35 26.5 60.5t63.5 25.5zM258 686h885v-78h-885v78zM702 412q36 0 62.5 -25.5t26.5 -60.5t-26.5 -60.5t-62.5 -25.5q-37 0 -63.5 24t-26.5 62q0 36 26.5 61t63.5 25z" />
    <glyph glyph-name="Euro.tnum" 
d="M1343 1331l-51 -78q-78 51 -175.5 75t-184.5 24q-211 0 -354 -127.5t-191 -329.5h524v-68h-544q-7 -65 -7 -108q0 -23 5 -101h546v-67h-530q45 -212 191.5 -340.5t359.5 -128.5q88 0 185 23t175 73l51 -78q-181 -116 -419 -116q-249 0 -424 157t-232 410h-231v67h221
q-4 31 -4 103q0 68 6 106h-223v68h235q62 247 235 401t417 154q239 0 419 -119z" />
    <glyph glyph-name="agrave.alt" horiz-adv-x="1306" 
d="M449 1438l100 57l121 -303h-58zM629 989q-174 0 -296 -133t-122 -326q0 -190 120.5 -322t299.5 -132q174 0 290.5 130t116.5 326t-114.5 326.5t-294.5 130.5zM616 1081q137 0 247.5 -65.5t168.5 -196.5l17 246h79v-1065h-102v242q-45 -120 -158 -189t-250 -69
q-149 0 -266.5 77t-179 200t-61.5 265q0 152 65.5 279t181.5 201.5t258 74.5z" />
    <glyph glyph-name="acircumflex.alt" horiz-adv-x="1306" 
d="M471 1192h-84l201 219h76l202 -219h-86l-153 145zM629 989q-174 0 -296 -133t-122 -326q0 -190 120.5 -322t299.5 -132q174 0 290.5 130t116.5 326t-114.5 326.5t-294.5 130.5zM616 1081q137 0 247.5 -65.5t168.5 -196.5l17 246h79v-1065h-102v242q-45 -120 -158 -189
t-250 -69q-149 0 -266.5 77t-179 200t-61.5 265q0 152 65.5 279t181.5 201.5t258 74.5z" />
    <glyph glyph-name="aacute.alt" horiz-adv-x="1306" 
d="M700 1495l101 -57l-164 -246h-57zM629 989q-174 0 -296 -133t-122 -326q0 -190 120.5 -322t299.5 -132q174 0 290.5 130t116.5 326t-114.5 326.5t-294.5 130.5zM616 1081q137 0 247.5 -65.5t168.5 -196.5l17 246h79v-1065h-102v242q-45 -120 -158 -189t-250 -69
q-149 0 -266.5 77t-179 200t-61.5 265q0 152 65.5 279t181.5 201.5t258 74.5z" />
    <glyph glyph-name="adieresis.alt" horiz-adv-x="1306" 
d="M512 1268q0 -33 -22.5 -54.5t-61.5 -21.5q-32 0 -55 22t-23 54q0 33 23.5 56.5t54.5 23.5q39 0 61.5 -22t22.5 -58zM889 1268q0 -33 -22.5 -54.5t-59.5 -21.5q-34 0 -57 22t-23 54q0 33 23.5 56.5t56.5 23.5q38 0 60 -22t22 -58zM629 989q-174 0 -296 -133t-122 -326
q0 -190 120.5 -322t299.5 -132q174 0 290.5 130t116.5 326t-114.5 326.5t-294.5 130.5zM616 1081q137 0 247.5 -65.5t168.5 -196.5l17 246h79v-1065h-102v242q-45 -120 -158 -189t-250 -69q-149 0 -266.5 77t-179 200t-61.5 265q0 152 65.5 279t181.5 201.5t258 74.5z" />
    <glyph glyph-name="aring.alt" horiz-adv-x="1306" 
d="M453 1356q0 68 50.5 114t117.5 46q68 0 117.5 -45t49.5 -113q0 -72 -49.5 -119t-117.5 -47t-118 47t-50 117zM502 1354q0 -48 36.5 -79.5t82.5 -31.5q49 0 84.5 31t35.5 80t-36.5 79.5t-83.5 30.5t-83 -32t-36 -78zM629 989q-174 0 -296 -133t-122 -326
q0 -190 120.5 -322t299.5 -132q174 0 290.5 130t116.5 326t-114.5 326.5t-294.5 130.5zM616 1081q137 0 247.5 -65.5t168.5 -196.5l17 246h79v-1065h-102v242q-45 -120 -158 -189t-250 -69q-149 0 -266.5 77t-179 200t-61.5 265q0 152 65.5 279t181.5 201.5t258 74.5z" />
    <glyph glyph-name="aogonek.alt" horiz-adv-x="1341" 
d="M616 1081q137 0 247.5 -65.5t168.5 -196.5l17 246h79v-1065h-16q-135 -48 -135 -150q0 -43 24 -63t58 -20t86 14l18 -60q-55 -30 -100 -30q-70 0 -116 34t-46 105q0 117 139 170h-14v242q-45 -120 -158 -189t-250 -69q-149 0 -266.5 77t-179 200t-61.5 265
q0 152 65.5 279t181.5 201.5t258 74.5zM629 989q-174 0 -296 -133t-122 -326q0 -190 120.5 -322t299.5 -132q174 0 290.5 130t116.5 326t-114.5 326.5t-294.5 130.5z" />
    <glyph glyph-name="amacron.alt" horiz-adv-x="1306" 
d="M317 1266h598v-74h-598v74zM629 989q-174 0 -296 -133t-122 -326q0 -190 120.5 -322t299.5 -132q174 0 290.5 130t116.5 326t-114.5 326.5t-294.5 130.5zM616 1081q137 0 247.5 -65.5t168.5 -196.5l17 246h79v-1065h-102v242q-45 -120 -158 -189t-250 -69
q-149 0 -266.5 77t-179 200t-61.5 265q0 152 65.5 279t181.5 201.5t258 74.5z" />
    <glyph glyph-name="atilde.alt" horiz-adv-x="1306" 
d="M362 1210l-40 29q33 54 79.5 84.5t100.5 30.5q41 0 118.5 -39t129.5 -39q70 0 114 63l39 -28q-29 -54 -75.5 -84.5t-100.5 -30.5q-44 0 -123.5 39t-128.5 39q-38 0 -63.5 -17t-49.5 -47zM629 989q-174 0 -296 -133t-122 -326q0 -190 120.5 -322t299.5 -132
q174 0 290.5 130t116.5 326t-114.5 326.5t-294.5 130.5zM616 1081q137 0 247.5 -65.5t168.5 -196.5l17 246h79v-1065h-102v242q-45 -120 -158 -189t-250 -69q-149 0 -266.5 77t-179 200t-61.5 265q0 152 65.5 279t181.5 201.5t258 74.5z" />
    <glyph glyph-name="abreve.alt" horiz-adv-x="1306" 
d="M377 1401h57q26 -69 65 -102t117 -33t118 32t63 103h59q-16 -105 -72 -157t-168 -52t-166.5 51t-72.5 158zM629 989q-174 0 -296 -133t-122 -326q0 -190 120.5 -322t299.5 -132q174 0 290.5 130t116.5 326t-114.5 326.5t-294.5 130.5zM616 1081q137 0 247.5 -65.5
t168.5 -196.5l17 246h79v-1065h-102v242q-45 -120 -158 -189t-250 -69q-149 0 -266.5 77t-179 200t-61.5 265q0 152 65.5 279t181.5 201.5t258 74.5z" />
    <glyph glyph-name="gbreve.alt" horiz-adv-x="1269" 
d="M332 1401h57q26 -70 64.5 -102.5t117.5 -32.5q78 0 117 31.5t64 103.5h57q-16 -105 -71 -157t-167 -52q-113 0 -167 51t-72 158zM172 -252l33 80q71 -36 169 -60t197 -24q194 0 314.5 101.5t120.5 287.5v172q-45 -103 -157.5 -164t-264.5 -61q-199 0 -336 142.5
t-137 359.5t137 358t336 141q152 0 266.5 -63t159.5 -168l22 215h72v-915q0 -242 -139.5 -370t-378.5 -128q-230 0 -414 96zM606 170q190 0 300 118t110 294q0 177 -109 293t-301 116q-170 0 -282.5 -119t-112.5 -290q0 -170 112.5 -291t282.5 -121z" />
    <glyph glyph-name="gcircumflex.alt" horiz-adv-x="1282" 
d="M434 1192h-86l201 219h78l202 -219h-86l-153 145zM172 -252l33 80q71 -36 169 -60t197 -24q194 0 314.5 101.5t120.5 287.5v172q-45 -103 -157.5 -164t-264.5 -61q-199 0 -336 142.5t-137 359.5t137 358t336 141q152 0 266.5 -63t159.5 -168l22 215h72v-915
q0 -242 -139.5 -370t-378.5 -128q-230 0 -414 96zM606 170q190 0 300 118t110 294q0 177 -109 293t-301 116q-170 0 -282.5 -119t-112.5 -290q0 -170 112.5 -291t282.5 -121z" />
    <glyph glyph-name="gcommaaccent.alt" horiz-adv-x="1282" 
d="M612 1192q-40 0 -62 32t-22 72q0 58 36.5 102.5t92.5 71.5l21 -32q-39 -21 -66.5 -63t-17.5 -81q15 15 37 15q23 0 36 -16t13 -40q0 -25 -21.5 -43t-46.5 -18zM172 -252l33 80q71 -36 169 -60t197 -24q194 0 314.5 101.5t120.5 287.5v172q-45 -103 -157.5 -164
t-264.5 -61q-199 0 -336 142.5t-137 359.5t137 358t336 141q152 0 266.5 -63t159.5 -168l22 215h72v-915q0 -242 -139.5 -370t-378.5 -128q-230 0 -414 96zM606 170q190 0 300 118t110 294q0 177 -109 293t-301 116q-170 0 -282.5 -119t-112.5 -290q0 -170 112.5 -291
t282.5 -121z" />
    <glyph glyph-name="gdotaccent.alt" horiz-adv-x="1282" 
d="M680 1270q0 -33 -23.5 -55.5t-60.5 -22.5q-35 0 -58.5 22.5t-23.5 55.5q0 35 24 58.5t58 23.5q38 0 61 -22.5t23 -59.5zM172 -252l33 80q71 -36 169 -60t197 -24q194 0 314.5 101.5t120.5 287.5v172q-45 -103 -157.5 -164t-264.5 -61q-199 0 -336 142.5t-137 359.5
t137 358t336 141q152 0 266.5 -63t159.5 -168l22 215h72v-915q0 -242 -139.5 -370t-378.5 -128q-230 0 -414 96zM606 170q190 0 300 118t110 294q0 177 -109 293t-301 116q-170 0 -282.5 -119t-112.5 -290q0 -170 112.5 -291t282.5 -121z" />
    <glyph glyph-name="apple" horiz-adv-x="2304" 
d="M1006 1008v-394h-9v394h9zM90 981h37v-63h51v-35h-51v-115q0 -33 29 -33q4 0 12.5 1t13.5 1l8 -32q-27 -9 -40 -9q-37 0 -52.5 18.5t-15.5 57.5v111h-31v28l31 7zM201 918h47l63 -173l62 173h49l-92 -232q-13 -32 -28 -46.5t-40 -14.5q-22 0 -43 6l8 41q12 -4 25 -4
q21 0 35 28zM678 807q0 -48 -29 -81.5t-78 -33.5q-48 0 -69 31v-98h-47v293h37l6 -33q22 37 73 37q47 0 77 -32.5t30 -82.5zM498 807q0 -33 18.5 -53.5t48.5 -20.5q28 0 47 21t19 53t-19 53t-47 21q-30 0 -48.5 -20.5t-18.5 -53.5zM819 922q48 0 75.5 -33.5t27.5 -79.5
l-2 -21h-162q3 -28 22 -42.5t47 -14.5q24 0 66 14l14 -32q-35 -21 -82 -21q-50 0 -82 32t-32 81q0 51 30.5 84t77.5 33zM758 823h121q-2 25 -15.5 41.5t-40.5 16.5q-26 0 -43 -15.5t-22 -42.5zM1260 1008h20v-312h-16l-2 52q-12 -26 -36.5 -41t-51.5 -15q-46 0 -77.5 34
t-31.5 81q0 46 30.5 79.5t78.5 33.5q61 0 86 -52v140zM1087 807q0 -40 25.5 -68t63.5 -28q36 0 61 28t25 68q0 39 -25 66.5t-61 27.5q-38 0 -63.5 -27t-25.5 -67zM1448 920q45 0 73.5 -33t28.5 -78l-2 -10h-186q2 -37 28 -61.5t64 -24.5q33 0 70 16l8 -16q-42 -21 -78 -21
q-50 0 -82.5 34t-32.5 81q0 46 32 79.5t77 33.5zM1362 815h166q0 32 -21 59t-57 27q-35 0 -60.5 -25.5t-27.5 -60.5zM1821 807q0 -47 -30.5 -81t-76.5 -34q-28 0 -52.5 14t-33.5 39v-120h-22v293h16l4 -52q11 26 36 40t52 14q45 0 76 -33.5t31 -79.5zM1626 807
q0 -41 24.5 -67.5t61.5 -26.5t62.5 27t25.5 67t-25.5 67t-62.5 27t-61.5 -27t-24.5 -67zM1978 920q48 0 81.5 -32t33.5 -81q0 -47 -34 -81t-81 -34q-46 0 -78 34t-32 81t32 80t78 33zM1888 807q0 -39 26 -66.5t64 -27.5q40 0 67.5 27.5t27.5 66.5q0 40 -27.5 67t-67.5 27
q-38 0 -64 -27t-26 -67zM2165 981h16v-63h62v-19h-62v-133q0 -51 39 -51q21 0 31 4l2 -17q-12 -6 -35 -6q-32 0 -44.5 18t-12.5 54v131h-33v16l33 3z" />
    </font>
</defs>
</svg>
